;Layer: Drill PTH
;EasyEDA v6.3.53, 2020-06-28T18:38:07+02:00
;af82a4ba73104de48942a1140a1abb13,10
;Gerber Generator version 0.2
M48
METRIC,LZ,000.000
;Holesize 1 = 0.915 METRIC
T01C0.915
;Holesize 2 = 1.200 METRIC
T02C1.200
%
G05
G90
T01
X+037465Y+044333
X+037465Y+041793
X+037465Y+039253
X+037465Y+036713
X+037465Y+034173
X+037465Y+031633
X+037465Y+029093
X+037465Y+026553
X+037465Y+024013
X+037465Y+021473
X+037465Y+018933
X+037465Y+016393
X+037465Y+013853
X+037465Y+011313
X+037465Y+008773
X+052705Y+044333
X+052705Y+041793
X+052705Y+039253
X+052705Y+036713
X+052705Y+034173
X+052705Y+031633
X+052705Y+029093
X+052705Y+026553
X+052705Y+024013
X+052705Y+021473
X+052705Y+018933
X+052705Y+016393
X+052705Y+013853
X+052705Y+011313
X+052705Y+008773
T02
X+074355Y+004861
X+076855Y+004861
X+079355Y+004861
X+081855Y+004861
X+076855Y+074861
X+081855Y+074861
X+058353Y+004861
X+060853Y+004861
X+063353Y+004861
X+065853Y+004861
X+060853Y+074861
X+065853Y+074861
X+024190Y+004861
X+026690Y+004861
X+029190Y+004861
X+031690Y+004861
X+026690Y+074861
X+031690Y+074861
X+011196Y+074861
X+016196Y+074861
X+008696Y+004861
X+011196Y+004861
X+013696Y+004861
X+016196Y+004861
M30
