G04 Layer: BottomSolderMaskLayer*
G04 EasyEDA v6.3.53, 2020-06-28T18:38:07+02:00*
G04 af82a4ba73104de48942a1140a1abb13,10*
G04 Gerber Generator version 0.2*
G04 Scale: 100 percent, Rotated: No, Reflected: No *
G04 Dimensions in millimeters *
G04 leading zeros omitted , absolute positions ,3 integer and 3 decimal *
%FSLAX33Y33*%
%MOMM*%
G90*
G71D02*

%ADD19C,1.981200*%
%ADD20C,2.203196*%

%LPD*%
G36*
G01X36474Y43342D02*
G01X36474Y45323D01*
G01X38455Y45323D01*
G01X38455Y43342D01*
G01X36474Y43342D01*
G37*
G54D19*
G01X37465Y41793D03*
G01X37465Y39253D03*
G01X37465Y36713D03*
G01X37465Y34173D03*
G01X37465Y31633D03*
G01X37465Y29093D03*
G01X37465Y26553D03*
G01X37465Y24013D03*
G01X37465Y21473D03*
G01X37465Y18933D03*
G01X37465Y16393D03*
G01X37465Y13853D03*
G01X37465Y11313D03*
G01X37465Y8773D03*
G01X52705Y44333D03*
G01X52705Y41793D03*
G01X52705Y39253D03*
G01X52705Y36713D03*
G01X52705Y34173D03*
G01X52705Y31633D03*
G01X52705Y29093D03*
G01X52705Y26553D03*
G01X52705Y24013D03*
G01X52705Y21473D03*
G01X52705Y18933D03*
G01X52705Y16393D03*
G01X52705Y13853D03*
G01X52705Y11313D03*
G01X52705Y8773D03*
G54D20*
G01X74354Y4861D03*
G01X76855Y4861D03*
G01X79355Y4861D03*
G01X81855Y4861D03*
G01X76855Y74862D03*
G01X81855Y74862D03*
G01X58352Y4861D03*
G01X60853Y4861D03*
G01X63353Y4861D03*
G01X65853Y4861D03*
G01X60853Y74862D03*
G01X65853Y74862D03*
G01X24189Y4861D03*
G01X26690Y4861D03*
G01X29190Y4861D03*
G01X31690Y4861D03*
G01X26690Y74862D03*
G01X31690Y74862D03*
G01X11196Y74861D03*
G01X16196Y74861D03*
G01X8695Y4861D03*
G01X11196Y4861D03*
G01X13696Y4861D03*
G01X16196Y4861D03*
M00*
M02*
