G04 Layer: TopSilkLayer*
G04 EasyEDA v6.3.53, 2020-06-28T18:38:07+02:00*
G04 af82a4ba73104de48942a1140a1abb13,10*
G04 Gerber Generator version 0.2*
G04 Scale: 100 percent, Rotated: No, Reflected: No *
G04 Dimensions in millimeters *
G04 leading zeros omitted , absolute positions ,3 integer and 3 decimal *
%FSLAX33Y33*%
%MOMM*%
G90*
G71D02*

%ADD10C,0.254000*%
%ADD15C,0.203200*%
%ADD16C,0.152400*%
%ADD17C,0.177800*%

%LPD*%
G54D10*
G01X36195Y4963D02*
G01X53975Y4963D01*
G01X53975Y4963D02*
G01X53975Y48143D01*
G01X53975Y48143D02*
G01X36195Y48143D01*
G01X36195Y48143D02*
G01X36195Y4963D01*
G01X41275Y8773D02*
G01X41275Y1153D01*
G01X48895Y1153D01*
G01X48895Y8773D01*
G01X41275Y8773D01*
G01X73025Y77326D02*
G01X83185Y77326D01*
G01X73025Y77326D02*
G01X73025Y2361D01*
G01X83185Y77326D02*
G01X83185Y2361D01*
G01X73025Y2361D02*
G01X83185Y2361D01*
G01X75565Y6968D02*
G01X75565Y72881D01*
G01X80645Y72881D01*
G01X80645Y6968D01*
G01X75565Y6968D01*
G01X75692Y55101D02*
G01X80645Y55101D01*
G01X75566Y50022D02*
G01X80646Y50022D01*
G01X57023Y77326D02*
G01X67183Y77326D01*
G01X57023Y77326D02*
G01X57023Y2361D01*
G01X67183Y77326D02*
G01X67183Y2361D01*
G01X57023Y2361D02*
G01X67183Y2361D01*
G01X59563Y6968D02*
G01X59563Y72881D01*
G01X64643Y72881D01*
G01X64643Y6968D01*
G01X59563Y6968D01*
G01X59564Y50022D02*
G01X64644Y50022D01*
G01X59690Y55101D02*
G01X64643Y55101D01*
G01X22860Y77326D02*
G01X33020Y77326D01*
G01X22860Y77326D02*
G01X22860Y2361D01*
G01X33020Y77326D02*
G01X33020Y2361D01*
G01X25400Y6968D02*
G01X25400Y72881D01*
G01X30480Y72881D01*
G01X30480Y6968D01*
G01X25400Y6968D01*
G01X25401Y50022D02*
G01X30481Y50022D01*
G01X25527Y55101D02*
G01X30480Y55101D01*
G01X22860Y2361D02*
G01X33020Y2361D01*
G01X7366Y77326D02*
G01X17526Y77326D01*
G01X7366Y77326D02*
G01X7366Y2361D01*
G01X17526Y77326D02*
G01X17526Y2361D01*
G01X7366Y2361D02*
G01X17526Y2361D01*
G01X9906Y6968D02*
G01X9906Y72881D01*
G01X14986Y72881D01*
G01X14986Y6968D01*
G01X9906Y6968D01*
G01X10033Y55101D02*
G01X14986Y55101D01*
G01X9907Y50022D02*
G01X14987Y50022D01*
G54D15*
G01X86274Y33055D02*
G01X88214Y33055D01*
G01X87198Y33055D02*
G01X87013Y32869D01*
G01X86921Y32687D01*
G01X86921Y32407D01*
G01X87013Y32224D01*
G01X87198Y32039D01*
G01X87475Y31947D01*
G01X87660Y31947D01*
G01X87937Y32039D01*
G01X88120Y32224D01*
G01X88214Y32407D01*
G01X88214Y32687D01*
G01X88120Y32869D01*
G01X87937Y33055D01*
G01X87475Y33665D02*
G01X87475Y34772D01*
G01X87290Y34772D01*
G01X87104Y34681D01*
G01X87013Y34589D01*
G01X86921Y34404D01*
G01X86921Y34127D01*
G01X87013Y33941D01*
G01X87198Y33756D01*
G01X87475Y33665D01*
G01X87660Y33665D01*
G01X87937Y33756D01*
G01X88120Y33941D01*
G01X88214Y34127D01*
G01X88214Y34404D01*
G01X88120Y34589D01*
G01X87937Y34772D01*
G01X87198Y36398D02*
G01X87013Y36306D01*
G01X86921Y36029D01*
G01X86921Y35752D01*
G01X87013Y35476D01*
G01X87198Y35382D01*
G01X87381Y35476D01*
G01X87475Y35658D01*
G01X87567Y36121D01*
G01X87660Y36306D01*
G01X87843Y36398D01*
G01X87937Y36398D01*
G01X88120Y36306D01*
G01X88214Y36029D01*
G01X88214Y35752D01*
G01X88120Y35476D01*
G01X87937Y35382D01*
G01X86274Y37007D02*
G01X86365Y37101D01*
G01X86274Y37193D01*
G01X86182Y37101D01*
G01X86274Y37007D01*
G01X86921Y37101D02*
G01X88214Y37101D01*
G01X86921Y38910D02*
G01X88397Y38910D01*
G01X88676Y38818D01*
G01X88768Y38727D01*
G01X88859Y38541D01*
G01X88859Y38264D01*
G01X88768Y38079D01*
G01X87198Y38910D02*
G01X87013Y38727D01*
G01X86921Y38541D01*
G01X86921Y38264D01*
G01X87013Y38079D01*
G01X87198Y37894D01*
G01X87475Y37802D01*
G01X87660Y37802D01*
G01X87937Y37894D01*
G01X88120Y38079D01*
G01X88214Y38264D01*
G01X88214Y38541D01*
G01X88120Y38727D01*
G01X87937Y38910D01*
G01X86921Y39519D02*
G01X88214Y39519D01*
G01X87290Y39519D02*
G01X87013Y39799D01*
G01X86921Y39981D01*
G01X86921Y40258D01*
G01X87013Y40444D01*
G01X87290Y40535D01*
G01X88214Y40535D01*
G01X87475Y41145D02*
G01X87475Y42255D01*
G01X87290Y42255D01*
G01X87104Y42161D01*
G01X87013Y42069D01*
G01X86921Y41884D01*
G01X86921Y41607D01*
G01X87013Y41424D01*
G01X87198Y41239D01*
G01X87475Y41145D01*
G01X87660Y41145D01*
G01X87937Y41239D01*
G01X88120Y41424D01*
G01X88214Y41607D01*
G01X88214Y41884D01*
G01X88120Y42069D01*
G01X87937Y42255D01*
G01X86274Y43972D02*
G01X88214Y43972D01*
G01X87198Y43972D02*
G01X87013Y43786D01*
G01X86921Y43604D01*
G01X86921Y43327D01*
G01X87013Y43141D01*
G01X87198Y42956D01*
G01X87475Y42864D01*
G01X87660Y42864D01*
G01X87937Y42956D01*
G01X88120Y43141D01*
G01X88214Y43327D01*
G01X88214Y43604D01*
G01X88120Y43786D01*
G01X87937Y43972D01*
G01X86274Y46004D02*
G01X88214Y46004D01*
G01X87198Y46004D02*
G01X87013Y46189D01*
G01X86921Y46375D01*
G01X86921Y46652D01*
G01X87013Y46834D01*
G01X87198Y47020D01*
G01X87475Y47114D01*
G01X87660Y47114D01*
G01X87937Y47020D01*
G01X88120Y46834D01*
G01X88214Y46652D01*
G01X88214Y46375D01*
G01X88120Y46189D01*
G01X87937Y46004D01*
G01X86921Y47815D02*
G01X88214Y48369D01*
G01X86921Y48922D02*
G01X88214Y48369D01*
G01X88583Y48183D01*
G01X88768Y48000D01*
G01X88859Y47815D01*
G01X88859Y47723D01*
G01X86921Y51417D02*
G01X87013Y51231D01*
G01X87198Y51048D01*
G01X87475Y50954D01*
G01X87660Y50954D01*
G01X87937Y51048D01*
G01X88120Y51231D01*
G01X88214Y51417D01*
G01X88214Y51693D01*
G01X88120Y51879D01*
G01X87937Y52064D01*
G01X87660Y52156D01*
G01X87475Y52156D01*
G01X87198Y52064D01*
G01X87013Y51879D01*
G01X86921Y51693D01*
G01X86921Y51417D01*
G01X86274Y52765D02*
G01X88214Y52765D01*
G01X86274Y53375D02*
G01X86365Y53466D01*
G01X86274Y53560D01*
G01X86182Y53466D01*
G01X86274Y53375D01*
G01X86921Y53466D02*
G01X88214Y53466D01*
G01X86274Y54538D02*
G01X86365Y54632D01*
G01X86274Y54724D01*
G01X86182Y54632D01*
G01X86274Y54538D01*
G01X86921Y54632D02*
G01X88491Y54632D01*
G01X88768Y54538D01*
G01X88859Y54353D01*
G01X88859Y54170D01*
G01X86921Y55796D02*
G01X87013Y55610D01*
G01X87198Y55425D01*
G01X87475Y55333D01*
G01X87660Y55333D01*
G01X87937Y55425D01*
G01X88120Y55610D01*
G01X88214Y55796D01*
G01X88214Y56072D01*
G01X88120Y56258D01*
G01X87937Y56441D01*
G01X87660Y56535D01*
G01X87475Y56535D01*
G01X87198Y56441D01*
G01X87013Y56258D01*
G01X86921Y56072D01*
G01X86921Y55796D01*
G01X87475Y57144D02*
G01X87475Y58252D01*
G01X87290Y58252D01*
G01X87104Y58160D01*
G01X87013Y58066D01*
G01X86921Y57883D01*
G01X86921Y57604D01*
G01X87013Y57421D01*
G01X87198Y57236D01*
G01X87475Y57144D01*
G01X87660Y57144D01*
G01X87937Y57236D01*
G01X88120Y57421D01*
G01X88214Y57604D01*
G01X88214Y57883D01*
G01X88120Y58066D01*
G01X87937Y58252D01*
G01X2477Y33748D02*
G01X2291Y33563D01*
G01X2200Y33286D01*
G01X2200Y32915D01*
G01X2291Y32638D01*
G01X2477Y32455D01*
G01X2662Y32455D01*
G01X2847Y32547D01*
G01X2939Y32638D01*
G01X3030Y32824D01*
G01X3216Y33377D01*
G01X3307Y33563D01*
G01X3401Y33654D01*
G01X3587Y33748D01*
G01X3863Y33748D01*
G01X4046Y33563D01*
G01X4140Y33286D01*
G01X4140Y32915D01*
G01X4046Y32638D01*
G01X3863Y32455D01*
G01X2200Y34358D02*
G01X4140Y34358D01*
G01X2200Y34968D02*
G01X2291Y35059D01*
G01X2200Y35150D01*
G01X2108Y35059D01*
G01X2200Y34968D01*
G01X2847Y35059D02*
G01X4140Y35059D01*
G01X2200Y36870D02*
G01X4140Y36870D01*
G01X3124Y36870D02*
G01X2939Y36685D01*
G01X2847Y36499D01*
G01X2847Y36222D01*
G01X2939Y36039D01*
G01X3124Y35854D01*
G01X3401Y35760D01*
G01X3587Y35760D01*
G01X3863Y35854D01*
G01X4046Y36039D01*
G01X4140Y36222D01*
G01X4140Y36499D01*
G01X4046Y36685D01*
G01X3863Y36870D01*
G01X3401Y37480D02*
G01X3401Y38587D01*
G01X3216Y38587D01*
G01X3030Y38496D01*
G01X2939Y38402D01*
G01X2847Y38219D01*
G01X2847Y37942D01*
G01X2939Y37756D01*
G01X3124Y37571D01*
G01X3401Y37480D01*
G01X3587Y37480D01*
G01X3863Y37571D01*
G01X4046Y37756D01*
G01X4140Y37942D01*
G01X4140Y38219D01*
G01X4046Y38402D01*
G01X3863Y38587D01*
G01X2847Y39197D02*
G01X4140Y39197D01*
G01X3401Y39197D02*
G01X3124Y39291D01*
G01X2939Y39473D01*
G01X2847Y39659D01*
G01X2847Y39936D01*
G01X2200Y41968D02*
G01X4140Y42707D01*
G01X2200Y43446D02*
G01X4140Y42707D01*
G01X2571Y44056D02*
G01X2477Y44241D01*
G01X2200Y44518D01*
G01X4140Y44518D01*
G54D16*
G01X44831Y49550D02*
G01X44831Y48770D01*
G01X44881Y48615D01*
G01X44985Y48511D01*
G01X45143Y48460D01*
G01X45247Y48460D01*
G01X45402Y48511D01*
G01X45506Y48615D01*
G01X45557Y48770D01*
G01X45557Y49550D01*
G01X45900Y49341D02*
G01X46004Y49395D01*
G01X46161Y49550D01*
G01X46161Y48460D01*
G54D15*
G01X30767Y45163D02*
G01X30767Y44193D01*
G01X30767Y45163D02*
G01X31089Y45163D01*
G01X31229Y45117D01*
G01X31320Y45026D01*
G01X31366Y44932D01*
G01X31414Y44795D01*
G01X31414Y44564D01*
G01X31366Y44424D01*
G01X31320Y44333D01*
G01X31229Y44241D01*
G01X31089Y44193D01*
G01X30767Y44193D01*
G01X31719Y44978D02*
G01X31810Y45026D01*
G01X31948Y45163D01*
G01X31948Y44193D01*
G01X33086Y45349D02*
G01X32252Y43870D01*
G01X33713Y45163D02*
G01X33713Y44193D01*
G01X33390Y45163D02*
G01X34036Y45163D01*
G01X34340Y45163D02*
G01X34988Y44193D01*
G01X34988Y45163D02*
G01X34340Y44193D01*
G01X48572Y41988D02*
G01X48526Y42082D01*
G01X48432Y42174D01*
G01X48341Y42219D01*
G01X48155Y42219D01*
G01X48064Y42174D01*
G01X47970Y42082D01*
G01X47924Y41988D01*
G01X47879Y41851D01*
G01X47879Y41620D01*
G01X47924Y41480D01*
G01X47970Y41389D01*
G01X48064Y41297D01*
G01X48155Y41249D01*
G01X48341Y41249D01*
G01X48432Y41297D01*
G01X48526Y41389D01*
G01X48572Y41480D01*
G01X48572Y41620D01*
G01X48341Y41620D02*
G01X48572Y41620D01*
G01X48877Y42219D02*
G01X48877Y41249D01*
G01X48877Y42219D02*
G01X49522Y41249D01*
G01X49522Y42219D02*
G01X49522Y41249D01*
G01X49827Y42219D02*
G01X49827Y41249D01*
G01X49827Y42219D02*
G01X50152Y42219D01*
G01X50289Y42174D01*
G01X50380Y42082D01*
G01X50429Y41988D01*
G01X50474Y41851D01*
G01X50474Y41620D01*
G01X50429Y41480D01*
G01X50380Y41389D01*
G01X50289Y41297D01*
G01X50152Y41249D01*
G01X49827Y41249D01*
G01X48295Y36748D02*
G01X48295Y35915D01*
G01X47879Y36332D02*
G01X48709Y36332D01*
G01X49568Y36885D02*
G01X49108Y36885D01*
G01X49060Y36471D01*
G01X49108Y36517D01*
G01X49245Y36563D01*
G01X49385Y36563D01*
G01X49522Y36517D01*
G01X49616Y36423D01*
G01X49662Y36286D01*
G01X49662Y36192D01*
G01X49616Y36055D01*
G01X49522Y35963D01*
G01X49385Y35915D01*
G01X49245Y35915D01*
G01X49108Y35963D01*
G01X49060Y36009D01*
G01X49014Y36100D01*
G01X49966Y36885D02*
G01X50335Y35915D01*
G01X50706Y36885D02*
G01X50335Y35915D01*
G01X39243Y9326D02*
G01X39243Y8356D01*
G01X39243Y9326D02*
G01X39565Y9326D01*
G01X39705Y9281D01*
G01X39796Y9189D01*
G01X39842Y9095D01*
G01X39890Y8958D01*
G01X39890Y8727D01*
G01X39842Y8587D01*
G01X39796Y8496D01*
G01X39705Y8404D01*
G01X39565Y8356D01*
G01X39243Y8356D01*
G01X40195Y9141D02*
G01X40286Y9189D01*
G01X40424Y9326D01*
G01X40424Y8356D01*
G01X40777Y9095D02*
G01X40777Y9141D01*
G01X40822Y9235D01*
G01X40868Y9281D01*
G01X40960Y9326D01*
G01X41145Y9326D01*
G01X41236Y9281D01*
G01X41285Y9235D01*
G01X41330Y9141D01*
G01X41330Y9049D01*
G01X41285Y8958D01*
G01X41191Y8818D01*
G01X40728Y8356D01*
G01X41376Y8356D01*
G01X42511Y9512D02*
G01X41681Y8033D01*
G01X42816Y9326D02*
G01X42816Y8356D01*
G01X42816Y9326D02*
G01X43187Y8356D01*
G01X43555Y9326D02*
G01X43187Y8356D01*
G01X43555Y9326D02*
G01X43555Y8356D01*
G01X43860Y9326D02*
G01X43860Y8356D01*
G01X44813Y9189D02*
G01X44719Y9281D01*
G01X44582Y9326D01*
G01X44396Y9326D01*
G01X44259Y9281D01*
G01X44165Y9189D01*
G01X44165Y9095D01*
G01X44211Y9004D01*
G01X44259Y8958D01*
G01X44350Y8912D01*
G01X44627Y8818D01*
G01X44719Y8773D01*
G01X44767Y8727D01*
G01X44813Y8633D01*
G01X44813Y8496D01*
G01X44719Y8404D01*
G01X44582Y8356D01*
G01X44396Y8356D01*
G01X44259Y8404D01*
G01X44165Y8496D01*
G01X45394Y9326D02*
G01X45300Y9281D01*
G01X45209Y9189D01*
G01X45163Y9095D01*
G01X45118Y8958D01*
G01X45118Y8727D01*
G01X45163Y8587D01*
G01X45209Y8496D01*
G01X45300Y8404D01*
G01X45394Y8356D01*
G01X45580Y8356D01*
G01X45671Y8404D01*
G01X45763Y8496D01*
G01X45808Y8587D01*
G01X45857Y8727D01*
G01X45857Y8958D01*
G01X45808Y9095D01*
G01X45763Y9189D01*
G01X45671Y9281D01*
G01X45580Y9326D01*
G01X45394Y9326D01*
G01X47879Y44759D02*
G01X48247Y43789D01*
G01X48618Y44759D02*
G01X48247Y43789D01*
G01X48922Y44759D02*
G01X48922Y43789D01*
G01X49227Y44759D02*
G01X49227Y43789D01*
G01X49227Y44759D02*
G01X49872Y43789D01*
G01X49872Y44759D02*
G01X49872Y43789D01*
G01X46609Y9326D02*
G01X46609Y8356D01*
G01X46609Y9326D02*
G01X46931Y9326D01*
G01X47071Y9281D01*
G01X47162Y9189D01*
G01X47208Y9095D01*
G01X47256Y8958D01*
G01X47256Y8727D01*
G01X47208Y8587D01*
G01X47162Y8496D01*
G01X47071Y8404D01*
G01X46931Y8356D01*
G01X46609Y8356D01*
G01X47561Y9141D02*
G01X47652Y9189D01*
G01X47790Y9326D01*
G01X47790Y8356D01*
G01X48188Y9326D02*
G01X48696Y9326D01*
G01X48420Y8958D01*
G01X48557Y8958D01*
G01X48651Y8912D01*
G01X48696Y8864D01*
G01X48742Y8727D01*
G01X48742Y8633D01*
G01X48696Y8496D01*
G01X48602Y8404D01*
G01X48465Y8356D01*
G01X48326Y8356D01*
G01X48188Y8404D01*
G01X48143Y8450D01*
G01X48094Y8541D01*
G01X49877Y9512D02*
G01X49047Y8033D01*
G01X50830Y9189D02*
G01X50736Y9281D01*
G01X50599Y9326D01*
G01X50413Y9326D01*
G01X50276Y9281D01*
G01X50182Y9189D01*
G01X50182Y9095D01*
G01X50228Y9004D01*
G01X50276Y8958D01*
G01X50368Y8912D01*
G01X50645Y8818D01*
G01X50736Y8773D01*
G01X50784Y8727D01*
G01X50830Y8633D01*
G01X50830Y8496D01*
G01X50736Y8404D01*
G01X50599Y8356D01*
G01X50413Y8356D01*
G01X50276Y8404D01*
G01X50182Y8496D01*
G01X51828Y9095D02*
G01X51780Y9189D01*
G01X51689Y9281D01*
G01X51597Y9326D01*
G01X51412Y9326D01*
G01X51320Y9281D01*
G01X51226Y9189D01*
G01X51181Y9095D01*
G01X51135Y8958D01*
G01X51135Y8727D01*
G01X51181Y8587D01*
G01X51226Y8496D01*
G01X51320Y8404D01*
G01X51412Y8356D01*
G01X51597Y8356D01*
G01X51689Y8404D01*
G01X51780Y8496D01*
G01X51828Y8587D01*
G01X52133Y9326D02*
G01X52133Y8356D01*
G01X52778Y9326D02*
G01X52133Y8681D01*
G01X52362Y8912D02*
G01X52778Y8356D01*
G01X33086Y37035D02*
G01X33040Y37129D01*
G01X32946Y37221D01*
G01X32854Y37266D01*
G01X32669Y37266D01*
G01X32578Y37221D01*
G01X32484Y37129D01*
G01X32438Y37035D01*
G01X32392Y36898D01*
G01X32392Y36667D01*
G01X32438Y36527D01*
G01X32484Y36436D01*
G01X32578Y36344D01*
G01X32669Y36296D01*
G01X32854Y36296D01*
G01X32946Y36344D01*
G01X33040Y36436D01*
G01X33086Y36527D01*
G01X33086Y36667D01*
G01X32854Y36667D02*
G01X33086Y36667D01*
G01X33390Y37266D02*
G01X33390Y36296D01*
G01X33390Y37266D02*
G01X34036Y36296D01*
G01X34036Y37266D02*
G01X34036Y36296D01*
G01X34340Y37266D02*
G01X34340Y36296D01*
G01X34340Y37266D02*
G01X34665Y37266D01*
G01X34803Y37221D01*
G01X34894Y37129D01*
G01X34942Y37035D01*
G01X34988Y36898D01*
G01X34988Y36667D01*
G01X34942Y36527D01*
G01X34894Y36436D01*
G01X34803Y36344D01*
G01X34665Y36296D01*
G01X34340Y36296D01*
G01X30353Y42115D02*
G01X30353Y41145D01*
G01X30353Y42115D02*
G01X30675Y42115D01*
G01X30815Y42069D01*
G01X30906Y41978D01*
G01X30952Y41884D01*
G01X31000Y41747D01*
G01X31000Y41516D01*
G01X30952Y41376D01*
G01X30906Y41285D01*
G01X30815Y41193D01*
G01X30675Y41145D01*
G01X30353Y41145D01*
G01X31582Y42115D02*
G01X31442Y42069D01*
G01X31351Y41930D01*
G01X31305Y41701D01*
G01X31305Y41561D01*
G01X31351Y41330D01*
G01X31442Y41193D01*
G01X31582Y41145D01*
G01X31673Y41145D01*
G01X31813Y41193D01*
G01X31904Y41330D01*
G01X31950Y41561D01*
G01X31950Y41701D01*
G01X31904Y41930D01*
G01X31813Y42069D01*
G01X31673Y42115D01*
G01X31582Y42115D01*
G01X33086Y42301D02*
G01X32255Y40822D01*
G01X33390Y42115D02*
G01X33390Y41145D01*
G01X33390Y42115D02*
G01X33807Y42115D01*
G01X33947Y42069D01*
G01X33992Y42024D01*
G01X34038Y41930D01*
G01X34038Y41838D01*
G01X33992Y41747D01*
G01X33947Y41701D01*
G01X33807Y41653D01*
G01X33390Y41653D01*
G01X33715Y41653D02*
G01X34038Y41145D01*
G01X34343Y42115D02*
G01X34988Y41145D01*
G01X34988Y42115D02*
G01X34343Y41145D01*
G01X30629Y39761D02*
G01X30629Y38790D01*
G01X30629Y39761D02*
G01X31046Y39761D01*
G01X31183Y39715D01*
G01X31229Y39669D01*
G01X31277Y39575D01*
G01X31277Y39484D01*
G01X31229Y39392D01*
G01X31183Y39346D01*
G01X31046Y39298D01*
G01X30629Y39298D01*
G01X30952Y39298D02*
G01X31277Y38790D01*
G01X31582Y39761D02*
G01X31582Y38790D01*
G01X31582Y39761D02*
G01X32181Y39761D01*
G01X31582Y39298D02*
G01X31950Y39298D01*
G01X31582Y38790D02*
G01X32181Y38790D01*
G01X33131Y39623D02*
G01X33040Y39715D01*
G01X32903Y39761D01*
G01X32717Y39761D01*
G01X32578Y39715D01*
G01X32486Y39623D01*
G01X32486Y39529D01*
G01X32532Y39438D01*
G01X32578Y39392D01*
G01X32672Y39346D01*
G01X32948Y39253D01*
G01X33040Y39207D01*
G01X33086Y39161D01*
G01X33131Y39067D01*
G01X33131Y38930D01*
G01X33040Y38838D01*
G01X32903Y38790D01*
G01X32717Y38790D01*
G01X32578Y38838D01*
G01X32486Y38930D01*
G01X33436Y39761D02*
G01X33436Y38790D01*
G01X33436Y39761D02*
G01X34038Y39761D01*
G01X33436Y39298D02*
G01X33807Y39298D01*
G01X33436Y38790D02*
G01X34038Y38790D01*
G01X34665Y39761D02*
G01X34665Y38790D01*
G01X34343Y39761D02*
G01X34988Y39761D01*
G01X33390Y34726D02*
G01X33390Y33756D01*
G01X33390Y34726D02*
G01X33713Y34726D01*
G01X33853Y34681D01*
G01X33944Y34589D01*
G01X33990Y34495D01*
G01X34038Y34358D01*
G01X34038Y34127D01*
G01X33990Y33987D01*
G01X33944Y33896D01*
G01X33853Y33804D01*
G01X33713Y33756D01*
G01X33390Y33756D01*
G01X34389Y34495D02*
G01X34389Y34541D01*
G01X34434Y34635D01*
G01X34480Y34681D01*
G01X34571Y34726D01*
G01X34757Y34726D01*
G01X34851Y34681D01*
G01X34897Y34635D01*
G01X34942Y34541D01*
G01X34942Y34449D01*
G01X34897Y34358D01*
G01X34803Y34218D01*
G01X34343Y33756D01*
G01X34988Y33756D01*
G01X33390Y32186D02*
G01X33390Y31216D01*
G01X33390Y32186D02*
G01X33713Y32186D01*
G01X33853Y32141D01*
G01X33944Y32049D01*
G01X33990Y31955D01*
G01X34038Y31818D01*
G01X34038Y31587D01*
G01X33990Y31447D01*
G01X33944Y31356D01*
G01X33853Y31264D01*
G01X33713Y31216D01*
G01X33390Y31216D01*
G01X34434Y32186D02*
G01X34942Y32186D01*
G01X34665Y31818D01*
G01X34803Y31818D01*
G01X34897Y31772D01*
G01X34942Y31724D01*
G01X34988Y31587D01*
G01X34988Y31493D01*
G01X34942Y31356D01*
G01X34851Y31264D01*
G01X34711Y31216D01*
G01X34571Y31216D01*
G01X34434Y31264D01*
G01X34389Y31310D01*
G01X34343Y31401D01*
G01X33345Y29646D02*
G01X33345Y28676D01*
G01X33345Y29646D02*
G01X33667Y29646D01*
G01X33807Y29601D01*
G01X33898Y29509D01*
G01X33944Y29415D01*
G01X33992Y29278D01*
G01X33992Y29047D01*
G01X33944Y28907D01*
G01X33898Y28816D01*
G01X33807Y28724D01*
G01X33667Y28676D01*
G01X33345Y28676D01*
G01X34757Y29646D02*
G01X34297Y29001D01*
G01X34988Y29001D01*
G01X34757Y29646D02*
G01X34757Y28676D01*
G01X33390Y27360D02*
G01X33390Y26390D01*
G01X33390Y27360D02*
G01X33713Y27360D01*
G01X33853Y27315D01*
G01X33944Y27223D01*
G01X33990Y27129D01*
G01X34038Y26992D01*
G01X34038Y26761D01*
G01X33990Y26621D01*
G01X33944Y26530D01*
G01X33853Y26438D01*
G01X33713Y26390D01*
G01X33390Y26390D01*
G01X34897Y27360D02*
G01X34434Y27360D01*
G01X34389Y26946D01*
G01X34434Y26992D01*
G01X34571Y27038D01*
G01X34711Y27038D01*
G01X34851Y26992D01*
G01X34942Y26898D01*
G01X34988Y26761D01*
G01X34988Y26667D01*
G01X34942Y26530D01*
G01X34851Y26438D01*
G01X34711Y26390D01*
G01X34571Y26390D01*
G01X34434Y26438D01*
G01X34389Y26484D01*
G01X34343Y26575D01*
G01X33436Y24820D02*
G01X33436Y23850D01*
G01X33436Y24820D02*
G01X33759Y24820D01*
G01X33898Y24775D01*
G01X33990Y24683D01*
G01X34036Y24589D01*
G01X34084Y24452D01*
G01X34084Y24221D01*
G01X34036Y24081D01*
G01X33990Y23990D01*
G01X33898Y23898D01*
G01X33759Y23850D01*
G01X33436Y23850D01*
G01X34942Y24683D02*
G01X34897Y24775D01*
G01X34757Y24820D01*
G01X34665Y24820D01*
G01X34526Y24775D01*
G01X34434Y24635D01*
G01X34389Y24406D01*
G01X34389Y24175D01*
G01X34434Y23990D01*
G01X34526Y23898D01*
G01X34665Y23850D01*
G01X34711Y23850D01*
G01X34848Y23898D01*
G01X34942Y23990D01*
G01X34988Y24127D01*
G01X34988Y24175D01*
G01X34942Y24312D01*
G01X34848Y24406D01*
G01X34711Y24452D01*
G01X34665Y24452D01*
G01X34526Y24406D01*
G01X34434Y24312D01*
G01X34389Y24175D01*
G01X33390Y22026D02*
G01X33390Y21056D01*
G01X33390Y22026D02*
G01X33713Y22026D01*
G01X33853Y21981D01*
G01X33944Y21889D01*
G01X33990Y21795D01*
G01X34038Y21658D01*
G01X34038Y21427D01*
G01X33990Y21287D01*
G01X33944Y21196D01*
G01X33853Y21104D01*
G01X33713Y21056D01*
G01X33390Y21056D01*
G01X34988Y22026D02*
G01X34526Y21056D01*
G01X34343Y22026D02*
G01X34988Y22026D01*
G01X33390Y19740D02*
G01X33390Y18770D01*
G01X33390Y19740D02*
G01X33713Y19740D01*
G01X33853Y19695D01*
G01X33944Y19603D01*
G01X33990Y19509D01*
G01X34038Y19372D01*
G01X34038Y19141D01*
G01X33990Y19001D01*
G01X33944Y18910D01*
G01X33853Y18818D01*
G01X33713Y18770D01*
G01X33390Y18770D01*
G01X34571Y19740D02*
G01X34434Y19695D01*
G01X34389Y19603D01*
G01X34389Y19509D01*
G01X34434Y19418D01*
G01X34526Y19372D01*
G01X34711Y19326D01*
G01X34851Y19278D01*
G01X34942Y19187D01*
G01X34988Y19095D01*
G01X34988Y18955D01*
G01X34942Y18864D01*
G01X34897Y18818D01*
G01X34757Y18770D01*
G01X34571Y18770D01*
G01X34434Y18818D01*
G01X34389Y18864D01*
G01X34343Y18955D01*
G01X34343Y19095D01*
G01X34389Y19187D01*
G01X34480Y19278D01*
G01X34620Y19326D01*
G01X34803Y19372D01*
G01X34897Y19418D01*
G01X34942Y19509D01*
G01X34942Y19603D01*
G01X34897Y19695D01*
G01X34757Y19740D01*
G01X34571Y19740D01*
G01X33436Y17200D02*
G01X33436Y16230D01*
G01X33436Y17200D02*
G01X33759Y17200D01*
G01X33898Y17155D01*
G01X33990Y17063D01*
G01X34036Y16969D01*
G01X34084Y16832D01*
G01X34084Y16601D01*
G01X34036Y16461D01*
G01X33990Y16370D01*
G01X33898Y16278D01*
G01X33759Y16230D01*
G01X33436Y16230D01*
G01X34988Y16878D02*
G01X34942Y16738D01*
G01X34848Y16647D01*
G01X34711Y16601D01*
G01X34665Y16601D01*
G01X34526Y16647D01*
G01X34434Y16738D01*
G01X34389Y16878D01*
G01X34389Y16923D01*
G01X34434Y17063D01*
G01X34526Y17155D01*
G01X34665Y17200D01*
G01X34711Y17200D01*
G01X34848Y17155D01*
G01X34942Y17063D01*
G01X34988Y16878D01*
G01X34988Y16647D01*
G01X34942Y16415D01*
G01X34848Y16278D01*
G01X34711Y16230D01*
G01X34617Y16230D01*
G01X34480Y16278D01*
G01X34434Y16370D01*
G01X32854Y14406D02*
G01X32854Y13436D01*
G01X32854Y14406D02*
G01X33177Y14406D01*
G01X33317Y14361D01*
G01X33408Y14269D01*
G01X33454Y14175D01*
G01X33502Y14038D01*
G01X33502Y13807D01*
G01X33454Y13667D01*
G01X33408Y13576D01*
G01X33317Y13484D01*
G01X33177Y13436D01*
G01X32854Y13436D01*
G01X33807Y14221D02*
G01X33898Y14269D01*
G01X34036Y14406D01*
G01X34036Y13436D01*
G01X34620Y14406D02*
G01X34480Y14361D01*
G01X34389Y14221D01*
G01X34340Y13992D01*
G01X34340Y13853D01*
G01X34389Y13621D01*
G01X34480Y13484D01*
G01X34620Y13436D01*
G01X34711Y13436D01*
G01X34848Y13484D01*
G01X34942Y13621D01*
G01X34988Y13853D01*
G01X34988Y13992D01*
G01X34942Y14221D01*
G01X34848Y14361D01*
G01X34711Y14406D01*
G01X34620Y14406D01*
G01X38989Y11993D02*
G01X38989Y11023D01*
G01X38989Y11993D02*
G01X39311Y11993D01*
G01X39451Y11948D01*
G01X39542Y11856D01*
G01X39588Y11762D01*
G01X39636Y11625D01*
G01X39636Y11394D01*
G01X39588Y11254D01*
G01X39542Y11163D01*
G01X39451Y11071D01*
G01X39311Y11023D01*
G01X38989Y11023D01*
G01X39941Y11808D02*
G01X40032Y11856D01*
G01X40170Y11993D01*
G01X40170Y11023D01*
G01X40474Y11808D02*
G01X40568Y11856D01*
G01X40706Y11993D01*
G01X40706Y11023D01*
G01X41843Y12179D02*
G01X41010Y10700D01*
G01X42148Y11993D02*
G01X42148Y11023D01*
G01X42148Y11993D02*
G01X42517Y11023D01*
G01X42887Y11993D02*
G01X42517Y11023D01*
G01X42887Y11993D02*
G01X42887Y11023D01*
G01X43469Y11993D02*
G01X43375Y11948D01*
G01X43284Y11856D01*
G01X43238Y11762D01*
G01X43192Y11625D01*
G01X43192Y11394D01*
G01X43238Y11254D01*
G01X43284Y11163D01*
G01X43375Y11071D01*
G01X43469Y11023D01*
G01X43652Y11023D01*
G01X43746Y11071D01*
G01X43837Y11163D01*
G01X43883Y11254D01*
G01X43929Y11394D01*
G01X43929Y11625D01*
G01X43883Y11762D01*
G01X43837Y11856D01*
G01X43746Y11948D01*
G01X43652Y11993D01*
G01X43469Y11993D01*
G01X44881Y11856D02*
G01X44790Y11948D01*
G01X44650Y11993D01*
G01X44465Y11993D01*
G01X44328Y11948D01*
G01X44234Y11856D01*
G01X44234Y11762D01*
G01X44282Y11671D01*
G01X44328Y11625D01*
G01X44419Y11579D01*
G01X44696Y11485D01*
G01X44790Y11440D01*
G01X44836Y11394D01*
G01X44881Y11300D01*
G01X44881Y11163D01*
G01X44790Y11071D01*
G01X44650Y11023D01*
G01X44465Y11023D01*
G01X44328Y11071D01*
G01X44234Y11163D01*
G01X45186Y11993D02*
G01X45186Y11023D01*
G01X47970Y11485D02*
G01X48478Y11485D01*
G01X48201Y11117D01*
G01X48341Y11117D01*
G01X48432Y11071D01*
G01X48478Y11023D01*
G01X48526Y10886D01*
G01X48526Y10792D01*
G01X48478Y10655D01*
G01X48387Y10563D01*
G01X48247Y10515D01*
G01X48110Y10515D01*
G01X47970Y10563D01*
G01X47924Y10609D01*
G01X47879Y10700D01*
G01X48831Y11485D02*
G01X49199Y10515D01*
G01X49568Y11485D02*
G01X49199Y10515D01*
G01X49966Y11485D02*
G01X50474Y11485D01*
G01X50198Y11117D01*
G01X50335Y11117D01*
G01X50429Y11071D01*
G01X50474Y11023D01*
G01X50520Y10886D01*
G01X50520Y10792D01*
G01X50474Y10655D01*
G01X50380Y10563D01*
G01X50243Y10515D01*
G01X50104Y10515D01*
G01X49966Y10563D01*
G01X49921Y10609D01*
G01X49872Y10700D01*
G01X48247Y14279D02*
G01X47879Y13309D01*
G01X48247Y14279D02*
G01X48618Y13309D01*
G01X48018Y13634D02*
G01X48478Y13634D01*
G01X48922Y14279D02*
G01X48922Y13309D01*
G01X48922Y14279D02*
G01X49339Y14279D01*
G01X49476Y14234D01*
G01X49522Y14188D01*
G01X49568Y14094D01*
G01X49568Y14002D01*
G01X49522Y13911D01*
G01X49476Y13865D01*
G01X49339Y13817D01*
G01X48922Y13817D01*
G01X49245Y13817D02*
G01X49568Y13309D01*
G01X49872Y14279D02*
G01X49872Y13309D01*
G01X49872Y14279D02*
G01X50474Y14279D01*
G01X49872Y13817D02*
G01X50243Y13817D01*
G01X49872Y13309D02*
G01X50474Y13309D01*
G01X50779Y14279D02*
G01X50779Y13309D01*
G01X50779Y14279D02*
G01X51379Y14279D01*
G01X50779Y13817D02*
G01X51147Y13817D01*
G01X48247Y16565D02*
G01X47879Y15595D01*
G01X48247Y16565D02*
G01X48618Y15595D01*
G01X48018Y15920D02*
G01X48478Y15920D01*
G01X49199Y16565D02*
G01X49060Y16520D01*
G01X48968Y16380D01*
G01X48922Y16151D01*
G01X48922Y16012D01*
G01X48968Y15780D01*
G01X49060Y15643D01*
G01X49199Y15595D01*
G01X49291Y15595D01*
G01X49430Y15643D01*
G01X49522Y15780D01*
G01X49568Y16012D01*
G01X49568Y16151D01*
G01X49522Y16380D01*
G01X49430Y16520D01*
G01X49291Y16565D01*
G01X49199Y16565D01*
G01X48247Y19359D02*
G01X47879Y18389D01*
G01X48247Y19359D02*
G01X48618Y18389D01*
G01X48018Y18714D02*
G01X48478Y18714D01*
G01X48922Y19174D02*
G01X49014Y19222D01*
G01X49154Y19359D01*
G01X49154Y18389D01*
G01X48247Y21645D02*
G01X47879Y20675D01*
G01X48247Y21645D02*
G01X48618Y20675D01*
G01X48018Y21000D02*
G01X48478Y21000D01*
G01X48968Y21414D02*
G01X48968Y21460D01*
G01X49014Y21554D01*
G01X49060Y21600D01*
G01X49154Y21645D01*
G01X49339Y21645D01*
G01X49430Y21600D01*
G01X49476Y21554D01*
G01X49522Y21460D01*
G01X49522Y21368D01*
G01X49476Y21277D01*
G01X49385Y21137D01*
G01X48922Y20675D01*
G01X49568Y20675D01*
G01X48247Y24439D02*
G01X47879Y23469D01*
G01X48247Y24439D02*
G01X48618Y23469D01*
G01X48018Y23794D02*
G01X48478Y23794D01*
G01X49014Y24439D02*
G01X49522Y24439D01*
G01X49245Y24071D01*
G01X49385Y24071D01*
G01X49476Y24025D01*
G01X49522Y23977D01*
G01X49568Y23840D01*
G01X49568Y23746D01*
G01X49522Y23609D01*
G01X49430Y23517D01*
G01X49291Y23469D01*
G01X49154Y23469D01*
G01X49014Y23517D01*
G01X48968Y23563D01*
G01X48922Y23654D01*
G01X48247Y26979D02*
G01X47879Y26009D01*
G01X48247Y26979D02*
G01X48618Y26009D01*
G01X48018Y26334D02*
G01X48478Y26334D01*
G01X49385Y26979D02*
G01X48922Y26334D01*
G01X49616Y26334D01*
G01X49385Y26979D02*
G01X49385Y26009D01*
G01X48247Y29519D02*
G01X47879Y28549D01*
G01X48247Y29519D02*
G01X48618Y28549D01*
G01X48018Y28874D02*
G01X48478Y28874D01*
G01X49476Y29519D02*
G01X49014Y29519D01*
G01X48968Y29105D01*
G01X49014Y29151D01*
G01X49154Y29197D01*
G01X49291Y29197D01*
G01X49430Y29151D01*
G01X49522Y29057D01*
G01X49568Y28920D01*
G01X49568Y28826D01*
G01X49522Y28689D01*
G01X49430Y28597D01*
G01X49291Y28549D01*
G01X49154Y28549D01*
G01X49014Y28597D01*
G01X48968Y28643D01*
G01X48922Y28734D01*
G01X48247Y31805D02*
G01X47879Y30835D01*
G01X48247Y31805D02*
G01X48618Y30835D01*
G01X48018Y31160D02*
G01X48478Y31160D01*
G01X49476Y31668D02*
G01X49430Y31760D01*
G01X49291Y31805D01*
G01X49199Y31805D01*
G01X49060Y31760D01*
G01X48968Y31620D01*
G01X48922Y31391D01*
G01X48922Y31160D01*
G01X48968Y30975D01*
G01X49060Y30883D01*
G01X49199Y30835D01*
G01X49245Y30835D01*
G01X49385Y30883D01*
G01X49476Y30975D01*
G01X49522Y31112D01*
G01X49522Y31160D01*
G01X49476Y31297D01*
G01X49385Y31391D01*
G01X49245Y31437D01*
G01X49199Y31437D01*
G01X49060Y31391D01*
G01X48968Y31297D01*
G01X48922Y31160D01*
G01X48247Y34599D02*
G01X47879Y33629D01*
G01X48247Y34599D02*
G01X48618Y33629D01*
G01X48018Y33954D02*
G01X48478Y33954D01*
G01X49568Y34599D02*
G01X49108Y33629D01*
G01X48922Y34599D02*
G01X49568Y34599D01*
G01X47879Y39679D02*
G01X47879Y38709D01*
G01X47879Y39679D02*
G01X48295Y39679D01*
G01X48432Y39634D01*
G01X48478Y39588D01*
G01X48526Y39494D01*
G01X48526Y39402D01*
G01X48478Y39311D01*
G01X48432Y39265D01*
G01X48295Y39217D01*
G01X47879Y39217D01*
G01X48201Y39217D02*
G01X48526Y38709D01*
G01X48831Y39679D02*
G01X48831Y38709D01*
G01X48831Y39679D02*
G01X49430Y39679D01*
G01X48831Y39217D02*
G01X49199Y39217D01*
G01X48831Y38709D02*
G01X49430Y38709D01*
G01X50380Y39542D02*
G01X50289Y39634D01*
G01X50152Y39679D01*
G01X49966Y39679D01*
G01X49827Y39634D01*
G01X49735Y39542D01*
G01X49735Y39448D01*
G01X49781Y39357D01*
G01X49827Y39311D01*
G01X49921Y39265D01*
G01X50198Y39171D01*
G01X50289Y39126D01*
G01X50335Y39080D01*
G01X50380Y38986D01*
G01X50380Y38849D01*
G01X50289Y38757D01*
G01X50152Y38709D01*
G01X49966Y38709D01*
G01X49827Y38757D01*
G01X49735Y38849D01*
G01X50685Y39679D02*
G01X50685Y38709D01*
G01X50685Y39679D02*
G01X51287Y39679D01*
G01X50685Y39217D02*
G01X51056Y39217D01*
G01X50685Y38709D02*
G01X51287Y38709D01*
G01X51915Y39679D02*
G01X51915Y38709D01*
G01X51592Y39679D02*
G01X52237Y39679D01*
G54D17*
G01X77343Y79014D02*
G01X77343Y77924D01*
G01X77343Y79014D02*
G01X77810Y79014D01*
G01X77965Y78963D01*
G01X78018Y78910D01*
G01X78069Y78805D01*
G01X78069Y78701D01*
G01X78018Y78597D01*
G01X77965Y78546D01*
G01X77810Y78496D01*
G01X77343Y78496D01*
G01X77706Y78496D02*
G01X78069Y77924D01*
G01X78933Y79014D02*
G01X78412Y78287D01*
G01X79192Y78287D01*
G01X78933Y79014D02*
G01X78933Y77924D01*
G01X60579Y78887D02*
G01X60579Y77797D01*
G01X60579Y78887D02*
G01X61046Y78887D01*
G01X61201Y78836D01*
G01X61254Y78783D01*
G01X61305Y78678D01*
G01X61305Y78574D01*
G01X61254Y78470D01*
G01X61201Y78419D01*
G01X61046Y78369D01*
G01X60579Y78369D01*
G01X60942Y78369D02*
G01X61305Y77797D01*
G01X61752Y78887D02*
G01X62323Y78887D01*
G01X62014Y78470D01*
G01X62169Y78470D01*
G01X62273Y78419D01*
G01X62323Y78369D01*
G01X62377Y78211D01*
G01X62377Y78107D01*
G01X62323Y77952D01*
G01X62219Y77848D01*
G01X62064Y77797D01*
G01X61909Y77797D01*
G01X61752Y77848D01*
G01X61701Y77899D01*
G01X61648Y78003D01*
G01X25781Y79014D02*
G01X25781Y77924D01*
G01X25781Y79014D02*
G01X26248Y79014D01*
G01X26403Y78963D01*
G01X26456Y78910D01*
G01X26507Y78805D01*
G01X26507Y78701D01*
G01X26456Y78597D01*
G01X26403Y78546D01*
G01X26248Y78496D01*
G01X25781Y78496D01*
G01X26144Y78496D02*
G01X26507Y77924D01*
G01X26903Y78755D02*
G01X26903Y78805D01*
G01X26954Y78910D01*
G01X27007Y78963D01*
G01X27111Y79014D01*
G01X27317Y79014D01*
G01X27421Y78963D01*
G01X27475Y78910D01*
G01X27525Y78805D01*
G01X27525Y78701D01*
G01X27475Y78597D01*
G01X27371Y78442D01*
G01X26850Y77924D01*
G01X27579Y77924D01*
G01X10668Y78887D02*
G01X10668Y77797D01*
G01X10668Y78887D02*
G01X11135Y78887D01*
G01X11290Y78836D01*
G01X11343Y78783D01*
G01X11394Y78678D01*
G01X11394Y78574D01*
G01X11343Y78470D01*
G01X11290Y78419D01*
G01X11135Y78369D01*
G01X10668Y78369D01*
G01X11031Y78369D02*
G01X11394Y77797D01*
G01X11737Y78678D02*
G01X11841Y78732D01*
G01X11998Y78887D01*
G01X11998Y77797D01*
M00*
M02*
