G04 Layer: BottomSilkLayer*
G04 EasyEDA v6.3.53, 2020-06-28T18:38:07+02:00*
G04 af82a4ba73104de48942a1140a1abb13,10*
G04 Gerber Generator version 0.2*
G04 Scale: 100 percent, Rotated: No, Reflected: No *
G04 Dimensions in millimeters *
G04 leading zeros omitted , absolute positions ,3 integer and 3 decimal *
%FSLAX33Y33*%
%MOMM*%
G90*
G71D02*


%LPD*%

%LPD*%
G36*
G01X78057Y82747D02*
G01X77904Y82747D01*
G01X77833Y82745D01*
G01X77765Y82744D01*
G01X77702Y82741D01*
G01X77641Y82737D01*
G01X77584Y82732D01*
G01X77528Y82726D01*
G01X77474Y82719D01*
G01X77421Y82710D01*
G01X77368Y82700D01*
G01X77316Y82689D01*
G01X77262Y82676D01*
G01X77207Y82661D01*
G01X77151Y82645D01*
G01X77093Y82627D01*
G01X77032Y82607D01*
G01X76974Y82587D01*
G01X76917Y82566D01*
G01X76861Y82545D01*
G01X76806Y82523D01*
G01X76700Y82477D01*
G01X76598Y82427D01*
G01X76548Y82401D01*
G01X76499Y82374D01*
G01X76450Y82346D01*
G01X76403Y82317D01*
G01X76355Y82287D01*
G01X76309Y82255D01*
G01X76262Y82223D01*
G01X76217Y82189D01*
G01X76171Y82155D01*
G01X76081Y82081D01*
G01X76036Y82042D01*
G01X75991Y82002D01*
G01X75946Y81960D01*
G01X75901Y81917D01*
G01X75856Y81873D01*
G01X75809Y81825D01*
G01X75765Y81778D01*
G01X75721Y81730D01*
G01X75679Y81682D01*
G01X75638Y81634D01*
G01X75560Y81536D01*
G01X75488Y81436D01*
G01X75420Y81334D01*
G01X75388Y81282D01*
G01X75358Y81230D01*
G01X75328Y81177D01*
G01X75272Y81069D01*
G01X75246Y81014D01*
G01X75221Y80958D01*
G01X75197Y80901D01*
G01X75174Y80844D01*
G01X75153Y80786D01*
G01X75132Y80726D01*
G01X75112Y80666D01*
G01X75093Y80605D01*
G01X75075Y80543D01*
G01X75059Y80480D01*
G01X75043Y80416D01*
G01X75028Y80351D01*
G01X75018Y80300D01*
G01X75010Y80248D01*
G01X75003Y80191D01*
G01X74998Y80128D01*
G01X74995Y80055D01*
G01X74992Y79969D01*
G01X74991Y79867D01*
G01X74991Y79574D01*
G01X74992Y79505D01*
G01X74994Y79446D01*
G01X74997Y79393D01*
G01X75000Y79347D01*
G01X75004Y79304D01*
G01X75009Y79264D01*
G01X75015Y79224D01*
G01X75023Y79183D01*
G01X75033Y79139D01*
G01X75044Y79091D01*
G01X75060Y79030D01*
G01X75076Y78970D01*
G01X75093Y78910D01*
G01X75111Y78851D01*
G01X75151Y78735D01*
G01X75173Y78677D01*
G01X75219Y78565D01*
G01X75244Y78509D01*
G01X75269Y78455D01*
G01X75296Y78401D01*
G01X75324Y78347D01*
G01X75352Y78294D01*
G01X75382Y78243D01*
G01X75412Y78191D01*
G01X75444Y78140D01*
G01X75476Y78091D01*
G01X75509Y78041D01*
G01X75543Y77993D01*
G01X75578Y77945D01*
G01X75614Y77899D01*
G01X75651Y77852D01*
G01X75688Y77807D01*
G01X75727Y77762D01*
G01X75807Y77676D01*
G01X75848Y77633D01*
G01X75890Y77592D01*
G01X75932Y77552D01*
G01X75975Y77512D01*
G01X76020Y77473D01*
G01X76065Y77435D01*
G01X76111Y77399D01*
G01X76157Y77362D01*
G01X76204Y77327D01*
G01X76252Y77293D01*
G01X76350Y77227D01*
G01X76400Y77196D01*
G01X76451Y77165D01*
G01X76502Y77135D01*
G01X76554Y77107D01*
G01X76607Y77079D01*
G01X76660Y77052D01*
G01X76714Y77026D01*
G01X76824Y76978D01*
G01X76936Y76934D01*
G01X77050Y76894D01*
G01X77109Y76875D01*
G01X77167Y76858D01*
G01X77226Y76842D01*
G01X77286Y76827D01*
G01X77346Y76813D01*
G01X77407Y76800D01*
G01X77468Y76788D01*
G01X77529Y76777D01*
G01X77581Y76770D01*
G01X77638Y76764D01*
G01X77700Y76760D01*
G01X77766Y76757D01*
G01X77836Y76755D01*
G01X77908Y76754D01*
G01X77983Y76754D01*
G01X78058Y76756D01*
G01X78132Y76758D01*
G01X78207Y76762D01*
G01X78279Y76767D01*
G01X78349Y76772D01*
G01X78416Y76779D01*
G01X78479Y76787D01*
G01X78537Y76796D01*
G01X78589Y76806D01*
G01X78707Y76834D01*
G01X78823Y76866D01*
G01X78881Y76884D01*
G01X78938Y76903D01*
G01X78995Y76923D01*
G01X79051Y76945D01*
G01X79107Y76966D01*
G01X79217Y77014D01*
G01X79271Y77039D01*
G01X79324Y77065D01*
G01X79377Y77092D01*
G01X79481Y77150D01*
G01X79532Y77180D01*
G01X79583Y77211D01*
G01X79633Y77243D01*
G01X79682Y77276D01*
G01X79730Y77310D01*
G01X79778Y77345D01*
G01X79825Y77380D01*
G01X79917Y77454D01*
G01X79962Y77492D01*
G01X80006Y77531D01*
G01X80049Y77571D01*
G01X80133Y77653D01*
G01X80174Y77695D01*
G01X80214Y77739D01*
G01X80253Y77782D01*
G01X80329Y77872D01*
G01X80365Y77918D01*
G01X80401Y77965D01*
G01X80435Y78012D01*
G01X80469Y78060D01*
G01X80502Y78108D01*
G01X80534Y78158D01*
G01X80594Y78258D01*
G01X80623Y78310D01*
G01X80651Y78361D01*
G01X80678Y78414D01*
G01X80703Y78467D01*
G01X80727Y78520D01*
G01X80751Y78575D01*
G01X80774Y78630D01*
G01X80795Y78684D01*
G01X80815Y78740D01*
G01X80839Y78810D01*
G01X80860Y78874D01*
G01X80879Y78934D01*
G01X80896Y78991D01*
G01X80911Y79046D01*
G01X80923Y79099D01*
G01X80934Y79151D01*
G01X80943Y79203D01*
G01X80950Y79257D01*
G01X80956Y79313D01*
G01X80961Y79372D01*
G01X80965Y79435D01*
G01X80967Y79503D01*
G01X80969Y79578D01*
G01X80970Y79658D01*
G01X80970Y79930D01*
G01X80969Y80002D01*
G01X80967Y80064D01*
G01X80965Y80118D01*
G01X80962Y80166D01*
G01X80958Y80209D01*
G01X80952Y80250D01*
G01X80946Y80290D01*
G01X80938Y80332D01*
G01X80928Y80377D01*
G01X80916Y80426D01*
G01X80902Y80485D01*
G01X80885Y80544D01*
G01X80869Y80603D01*
G01X80851Y80661D01*
G01X80831Y80718D01*
G01X80811Y80774D01*
G01X80790Y80831D01*
G01X80768Y80886D01*
G01X80745Y80942D01*
G01X80721Y80996D01*
G01X80695Y81050D01*
G01X80669Y81103D01*
G01X80642Y81156D01*
G01X80614Y81208D01*
G01X80585Y81259D01*
G01X80555Y81310D01*
G01X80524Y81360D01*
G01X80492Y81409D01*
G01X80459Y81458D01*
G01X80391Y81554D01*
G01X80355Y81600D01*
G01X80318Y81646D01*
G01X80281Y81691D01*
G01X80243Y81736D01*
G01X80204Y81779D01*
G01X80164Y81822D01*
G01X80124Y81864D01*
G01X80083Y81905D01*
G01X79997Y81985D01*
G01X79954Y82024D01*
G01X79909Y82062D01*
G01X79864Y82099D01*
G01X79817Y82135D01*
G01X79771Y82170D01*
G01X79723Y82205D01*
G01X79675Y82238D01*
G01X79626Y82271D01*
G01X79526Y82333D01*
G01X79475Y82363D01*
G01X79423Y82392D01*
G01X79370Y82420D01*
G01X79318Y82447D01*
G01X79264Y82473D01*
G01X79210Y82498D01*
G01X79155Y82521D01*
G01X79099Y82544D01*
G01X79043Y82566D01*
G01X78986Y82587D01*
G01X78929Y82607D01*
G01X78868Y82627D01*
G01X78810Y82645D01*
G01X78754Y82661D01*
G01X78699Y82676D01*
G01X78646Y82689D01*
G01X78593Y82700D01*
G01X78540Y82710D01*
G01X78487Y82719D01*
G01X78433Y82726D01*
G01X78377Y82732D01*
G01X78320Y82737D01*
G01X78259Y82741D01*
G01X78195Y82744D01*
G01X78128Y82745D01*
G01X78057Y82747D01*
G37*

%LPC*%
G36*
G01X79970Y79439D02*
G01X79928Y79444D01*
G01X79883Y79440D01*
G01X79831Y79428D01*
G01X79770Y79407D01*
G01X79700Y79376D01*
G01X79617Y79336D01*
G01X79551Y79304D01*
G01X79486Y79274D01*
G01X79421Y79245D01*
G01X79357Y79218D01*
G01X79292Y79192D01*
G01X79226Y79168D01*
G01X79159Y79145D01*
G01X79091Y79122D01*
G01X79021Y79102D01*
G01X78948Y79081D01*
G01X78874Y79061D01*
G01X78796Y79042D01*
G01X78731Y79027D01*
G01X78669Y79013D01*
G01X78609Y79000D01*
G01X78552Y78988D01*
G01X78495Y78977D01*
G01X78440Y78967D01*
G01X78385Y78959D01*
G01X78331Y78951D01*
G01X78276Y78944D01*
G01X78221Y78938D01*
G01X78164Y78932D01*
G01X78107Y78928D01*
G01X78047Y78924D01*
G01X77985Y78921D01*
G01X77920Y78918D01*
G01X77851Y78916D01*
G01X77779Y78915D01*
G01X77703Y78914D01*
G01X77623Y78913D01*
G01X77454Y78913D01*
G01X77377Y78914D01*
G01X77304Y78915D01*
G01X77236Y78916D01*
G01X77172Y78918D01*
G01X77112Y78920D01*
G01X77055Y78923D01*
G01X77001Y78926D01*
G01X76949Y78930D01*
G01X76899Y78935D01*
G01X76849Y78941D01*
G01X76801Y78947D01*
G01X76752Y78954D01*
G01X76703Y78962D01*
G01X76654Y78972D01*
G01X76603Y78982D01*
G01X76550Y78993D01*
G01X76495Y79006D01*
G01X76437Y79020D01*
G01X76375Y79034D01*
G01X76154Y79089D01*
G01X76076Y79051D01*
G01X76024Y79018D01*
G01X75980Y78978D01*
G01X75947Y78931D01*
G01X75923Y78880D01*
G01X75910Y78824D01*
G01X75908Y78767D01*
G01X75917Y78708D01*
G01X75939Y78649D01*
G01X75956Y78617D01*
G01X75975Y78590D01*
G01X76000Y78567D01*
G01X76031Y78546D01*
G01X76070Y78527D01*
G01X76119Y78508D01*
G01X76180Y78489D01*
G01X76254Y78469D01*
G01X76307Y78455D01*
G01X76362Y78443D01*
G01X76417Y78430D01*
G01X76474Y78418D01*
G01X76532Y78408D01*
G01X76591Y78397D01*
G01X76651Y78387D01*
G01X76711Y78378D01*
G01X76773Y78370D01*
G01X76836Y78362D01*
G01X76962Y78348D01*
G01X77091Y78337D01*
G01X77222Y78329D01*
G01X77354Y78323D01*
G01X77420Y78322D01*
G01X77487Y78321D01*
G01X77553Y78320D01*
G01X77685Y78322D01*
G01X77817Y78326D01*
G01X77883Y78329D01*
G01X77948Y78333D01*
G01X78013Y78338D01*
G01X78145Y78350D01*
G01X78210Y78357D01*
G01X78274Y78364D01*
G01X78401Y78380D01*
G01X78464Y78389D01*
G01X78526Y78399D01*
G01X78587Y78409D01*
G01X78648Y78420D01*
G01X78768Y78443D01*
G01X78886Y78469D01*
G01X78944Y78483D01*
G01X79001Y78497D01*
G01X79058Y78512D01*
G01X79114Y78528D01*
G01X79170Y78543D01*
G01X79280Y78577D01*
G01X79388Y78613D01*
G01X79441Y78633D01*
G01X79493Y78652D01*
G01X79546Y78672D01*
G01X79648Y78714D01*
G01X79749Y78759D01*
G01X79798Y78783D01*
G01X79847Y78806D01*
G01X79935Y78851D01*
G01X80006Y78891D01*
G01X80061Y78927D01*
G01X80102Y78962D01*
G01X80132Y78998D01*
G01X80152Y79037D01*
G01X80164Y79080D01*
G01X80171Y79129D01*
G01X80170Y79219D01*
G01X80149Y79295D01*
G01X80109Y79357D01*
G01X80048Y79405D01*
G01X80009Y79426D01*
G01X79970Y79439D01*
G37*
G36*
G01X79575Y80369D02*
G01X79533Y80371D01*
G01X79485Y80362D01*
G01X79429Y80343D01*
G01X79362Y80313D01*
G01X79283Y80272D01*
G01X79181Y80220D01*
G01X79079Y80172D01*
G01X78977Y80128D01*
G01X78924Y80107D01*
G01X78872Y80087D01*
G01X78764Y80049D01*
G01X78709Y80031D01*
G01X78652Y80014D01*
G01X78594Y79998D01*
G01X78534Y79981D01*
G01X78473Y79966D01*
G01X78411Y79951D01*
G01X78347Y79937D01*
G01X78280Y79922D01*
G01X78212Y79908D01*
G01X78142Y79895D01*
G01X78105Y79888D01*
G01X78067Y79883D01*
G01X78027Y79878D01*
G01X77986Y79874D01*
G01X77941Y79870D01*
G01X77893Y79867D01*
G01X77840Y79864D01*
G01X77782Y79862D01*
G01X77719Y79861D01*
G01X77649Y79859D01*
G01X77572Y79859D01*
G01X77487Y79858D01*
G01X77401Y79858D01*
G01X77322Y79859D01*
G01X77250Y79860D01*
G01X77184Y79862D01*
G01X77124Y79864D01*
G01X77067Y79867D01*
G01X77013Y79870D01*
G01X76962Y79875D01*
G01X76912Y79881D01*
G01X76863Y79888D01*
G01X76813Y79897D01*
G01X76762Y79906D01*
G01X76709Y79917D01*
G01X76652Y79930D01*
G01X76592Y79944D01*
G01X76526Y79961D01*
G01X76419Y79986D01*
G01X76351Y79997D01*
G01X76304Y79995D01*
G01X76262Y79981D01*
G01X76191Y79940D01*
G01X76143Y79887D01*
G01X76117Y79820D01*
G01X76113Y79741D01*
G01X76120Y79696D01*
G01X76132Y79657D01*
G01X76150Y79623D01*
G01X76174Y79593D01*
G01X76206Y79567D01*
G01X76245Y79545D01*
G01X76294Y79524D01*
G01X76353Y79504D01*
G01X76388Y79495D01*
G01X76432Y79484D01*
G01X76482Y79472D01*
G01X76537Y79460D01*
G01X76596Y79447D01*
G01X76657Y79435D01*
G01X76719Y79423D01*
G01X76780Y79411D01*
G01X76840Y79401D01*
G01X76896Y79392D01*
G01X76948Y79383D01*
G01X76994Y79377D01*
G01X77025Y79374D01*
G01X77066Y79372D01*
G01X77114Y79371D01*
G01X77171Y79370D01*
G01X77233Y79369D01*
G01X77301Y79370D01*
G01X77373Y79370D01*
G01X77448Y79372D01*
G01X77525Y79373D01*
G01X77604Y79375D01*
G01X77760Y79381D01*
G01X77836Y79384D01*
G01X77908Y79388D01*
G01X77976Y79392D01*
G01X78040Y79396D01*
G01X78097Y79400D01*
G01X78148Y79404D01*
G01X78189Y79409D01*
G01X78222Y79414D01*
G01X78291Y79427D01*
G01X78361Y79440D01*
G01X78499Y79470D01*
G01X78568Y79487D01*
G01X78635Y79504D01*
G01X78702Y79522D01*
G01X78767Y79541D01*
G01X78830Y79560D01*
G01X78892Y79580D01*
G01X78951Y79600D01*
G01X79007Y79620D01*
G01X79075Y79647D01*
G01X79145Y79675D01*
G01X79215Y79705D01*
G01X79284Y79737D01*
G01X79352Y79768D01*
G01X79417Y79800D01*
G01X79478Y79832D01*
G01X79534Y79862D01*
G01X79583Y79890D01*
G01X79626Y79917D01*
G01X79661Y79940D01*
G01X79685Y79961D01*
G01X79721Y79998D01*
G01X79741Y80031D01*
G01X79750Y80071D01*
G01X79752Y80129D01*
G01X79750Y80187D01*
G01X79741Y80228D01*
G01X79720Y80263D01*
G01X79684Y80303D01*
G01X79648Y80335D01*
G01X79612Y80357D01*
G01X79575Y80369D01*
G37*
G36*
G01X79245Y81168D02*
G01X79202Y81177D01*
G01X79174Y81168D01*
G01X79116Y81142D01*
G01X79038Y81105D01*
G01X78946Y81060D01*
G01X78883Y81028D01*
G01X78753Y80970D01*
G01X78687Y80943D01*
G01X78551Y80893D01*
G01X78482Y80870D01*
G01X78413Y80850D01*
G01X78343Y80830D01*
G01X78273Y80811D01*
G01X78203Y80795D01*
G01X78131Y80780D01*
G01X78086Y80772D01*
G01X78034Y80765D01*
G01X77977Y80759D01*
G01X77916Y80754D01*
G01X77850Y80749D01*
G01X77780Y80745D01*
G01X77709Y80743D01*
G01X77635Y80741D01*
G01X77482Y80741D01*
G01X77404Y80742D01*
G01X77328Y80744D01*
G01X77252Y80747D01*
G01X77177Y80751D01*
G01X77104Y80756D01*
G01X77034Y80761D01*
G01X76967Y80767D01*
G01X76905Y80775D01*
G01X76846Y80783D01*
G01X76793Y80792D01*
G01X76653Y80817D01*
G01X76546Y80836D01*
G01X76467Y80847D01*
G01X76410Y80851D01*
G01X76369Y80848D01*
G01X76339Y80837D01*
G01X76313Y80820D01*
G01X76288Y80796D01*
G01X76254Y80759D01*
G01X76236Y80728D01*
G01X76231Y80694D01*
G01X76235Y80647D01*
G01X76244Y80603D01*
G01X76258Y80567D01*
G01X76279Y80536D01*
G01X76311Y80511D01*
G01X76354Y80490D01*
G01X76411Y80471D01*
G01X76483Y80453D01*
G01X76574Y80435D01*
G01X76651Y80421D01*
G01X76726Y80408D01*
G01X76798Y80396D01*
G01X76869Y80386D01*
G01X76938Y80376D01*
G01X77005Y80367D01*
G01X77071Y80360D01*
G01X77135Y80353D01*
G01X77198Y80348D01*
G01X77260Y80343D01*
G01X77321Y80340D01*
G01X77441Y80336D01*
G01X77499Y80335D01*
G01X77558Y80335D01*
G01X77616Y80337D01*
G01X77674Y80340D01*
G01X77733Y80343D01*
G01X77791Y80347D01*
G01X77849Y80352D01*
G01X77918Y80359D01*
G01X77984Y80366D01*
G01X78049Y80375D01*
G01X78112Y80384D01*
G01X78175Y80394D01*
G01X78237Y80406D01*
G01X78297Y80418D01*
G01X78357Y80431D01*
G01X78416Y80445D01*
G01X78474Y80460D01*
G01X78532Y80477D01*
G01X78589Y80494D01*
G01X78646Y80512D01*
G01X78758Y80552D01*
G01X78815Y80574D01*
G01X78871Y80597D01*
G01X78927Y80621D01*
G01X78983Y80647D01*
G01X79040Y80673D01*
G01X79116Y80712D01*
G01X79182Y80747D01*
G01X79239Y80782D01*
G01X79286Y80814D01*
G01X79324Y80845D01*
G01X79353Y80876D01*
G01X79373Y80906D01*
G01X79386Y80937D01*
G01X79390Y80969D01*
G01X79387Y81002D01*
G01X79378Y81037D01*
G01X79361Y81073D01*
G01X79332Y81112D01*
G01X79292Y81145D01*
G01X79245Y81168D01*
G37*

%LPD*%
G36*
G01X13578Y81390D02*
G01X13533Y81394D01*
G01X13467Y81387D01*
G01X13412Y81366D01*
G01X13369Y81330D01*
G01X13334Y81280D01*
G01X13318Y81238D01*
G01X13311Y81195D01*
G01X13314Y81152D01*
G01X13326Y81110D01*
G01X13348Y81067D01*
G01X13379Y81025D01*
G01X13420Y80984D01*
G01X13470Y80944D01*
G01X13511Y80912D01*
G01X13551Y80878D01*
G01X13592Y80840D01*
G01X13632Y80801D01*
G01X13671Y80761D01*
G01X13708Y80719D01*
G01X13744Y80676D01*
G01X13778Y80633D01*
G01X13809Y80589D01*
G01X13837Y80547D01*
G01X13862Y80505D01*
G01X13884Y80464D01*
G01X13908Y80412D01*
G01X13929Y80360D01*
G01X13947Y80308D01*
G01X13962Y80255D01*
G01X13974Y80202D01*
G01X13984Y80150D01*
G01X13990Y80097D01*
G01X13994Y80044D01*
G01X13994Y79992D01*
G01X13992Y79940D01*
G01X13988Y79887D01*
G01X13980Y79836D01*
G01X13970Y79784D01*
G01X13957Y79733D01*
G01X13941Y79683D01*
G01X13922Y79632D01*
G01X13901Y79583D01*
G01X13877Y79534D01*
G01X13850Y79485D01*
G01X13821Y79438D01*
G01X13789Y79391D01*
G01X13754Y79344D01*
G01X13717Y79299D01*
G01X13676Y79255D01*
G01X13634Y79211D01*
G01X13589Y79169D01*
G01X13541Y79127D01*
G01X13491Y79087D01*
G01X13442Y79047D01*
G01X13397Y79005D01*
G01X13361Y78965D01*
G01X13340Y78934D01*
G01X13319Y78868D01*
G01X13322Y78799D01*
G01X13348Y78732D01*
G01X13396Y78673D01*
G01X13438Y78641D01*
G01X13483Y78622D01*
G01X13531Y78616D01*
G01X13584Y78623D01*
G01X13642Y78643D01*
G01X13706Y78677D01*
G01X13777Y78724D01*
G01X13855Y78786D01*
G01X13902Y78827D01*
G01X13948Y78870D01*
G01X13993Y78917D01*
G01X14038Y78966D01*
G01X14081Y79017D01*
G01X14122Y79070D01*
G01X14162Y79124D01*
G01X14200Y79180D01*
G01X14235Y79237D01*
G01X14269Y79294D01*
G01X14299Y79351D01*
G01X14328Y79408D01*
G01X14353Y79465D01*
G01X14375Y79522D01*
G01X14394Y79577D01*
G01X14409Y79631D01*
G01X14422Y79687D01*
G01X14433Y79743D01*
G01X14441Y79800D01*
G01X14448Y79855D01*
G01X14452Y79911D01*
G01X14455Y79968D01*
G01X14455Y80023D01*
G01X14453Y80079D01*
G01X14449Y80134D01*
G01X14443Y80190D01*
G01X14435Y80245D01*
G01X14425Y80299D01*
G01X14413Y80353D01*
G01X14399Y80407D01*
G01X14383Y80460D01*
G01X14364Y80513D01*
G01X14344Y80566D01*
G01X14322Y80617D01*
G01X14298Y80668D01*
G01X14272Y80719D01*
G01X14244Y80768D01*
G01X14214Y80817D01*
G01X14183Y80865D01*
G01X14149Y80913D01*
G01X14114Y80959D01*
G01X14076Y81005D01*
G01X14037Y81049D01*
G01X13996Y81092D01*
G01X13922Y81167D01*
G01X13853Y81229D01*
G01X13790Y81281D01*
G01X13731Y81323D01*
G01X13677Y81355D01*
G01X13626Y81377D01*
G01X13578Y81390D01*
G37*

%LPD*%
G36*
G01X14165Y82288D02*
G01X14123Y82294D01*
G01X14087Y82293D01*
G01X14008Y82268D01*
G01X13948Y82220D01*
G01X13909Y82152D01*
G01X13895Y82067D01*
G01X13898Y82028D01*
G01X13905Y81994D01*
G01X13920Y81962D01*
G01X13943Y81931D01*
G01X13975Y81900D01*
G01X14018Y81867D01*
G01X14073Y81831D01*
G01X14141Y81789D01*
G01X14196Y81757D01*
G01X14248Y81722D01*
G01X14300Y81685D01*
G01X14351Y81647D01*
G01X14401Y81606D01*
G01X14449Y81564D01*
G01X14496Y81520D01*
G01X14542Y81475D01*
G01X14586Y81428D01*
G01X14629Y81379D01*
G01X14671Y81330D01*
G01X14711Y81278D01*
G01X14750Y81225D01*
G01X14787Y81172D01*
G01X14823Y81117D01*
G01X14857Y81061D01*
G01X14889Y81004D01*
G01X14920Y80946D01*
G01X14949Y80886D01*
G01X14976Y80826D01*
G01X15001Y80766D01*
G01X15025Y80704D01*
G01X15046Y80642D01*
G01X15066Y80579D01*
G01X15084Y80515D01*
G01X15099Y80451D01*
G01X15113Y80386D01*
G01X15124Y80322D01*
G01X15132Y80265D01*
G01X15137Y80201D01*
G01X15140Y80132D01*
G01X15141Y80059D01*
G01X15140Y79983D01*
G01X15138Y79906D01*
G01X15133Y79830D01*
G01X15127Y79754D01*
G01X15119Y79682D01*
G01X15110Y79615D01*
G01X15099Y79553D01*
G01X15086Y79498D01*
G01X15068Y79434D01*
G01X15048Y79370D01*
G01X15027Y79308D01*
G01X15003Y79246D01*
G01X14978Y79186D01*
G01X14951Y79126D01*
G01X14923Y79068D01*
G01X14892Y79011D01*
G01X14860Y78954D01*
G01X14825Y78899D01*
G01X14789Y78845D01*
G01X14751Y78792D01*
G01X14712Y78740D01*
G01X14671Y78689D01*
G01X14628Y78639D01*
G01X14583Y78591D01*
G01X14536Y78543D01*
G01X14488Y78496D01*
G01X14438Y78450D01*
G01X14387Y78406D01*
G01X14333Y78363D01*
G01X14278Y78321D01*
G01X14221Y78280D01*
G01X14163Y78240D01*
G01X14073Y78179D01*
G01X13996Y78123D01*
G01X13942Y78079D01*
G01X13916Y78053D01*
G01X13908Y78031D01*
G01X13901Y78002D01*
G01X13897Y77968D01*
G01X13895Y77934D01*
G01X13908Y77865D01*
G01X13941Y77800D01*
G01X13988Y77750D01*
G01X14042Y77724D01*
G01X14097Y77716D01*
G01X14140Y77717D01*
G01X14187Y77730D01*
G01X14251Y77759D01*
G01X14297Y77781D01*
G01X14343Y77807D01*
G01X14391Y77836D01*
G01X14441Y77867D01*
G01X14491Y77901D01*
G01X14542Y77938D01*
G01X14593Y77977D01*
G01X14645Y78017D01*
G01X14696Y78060D01*
G01X14747Y78104D01*
G01X14797Y78149D01*
G01X14846Y78195D01*
G01X14894Y78242D01*
G01X14940Y78289D01*
G01X14984Y78337D01*
G01X15027Y78384D01*
G01X15066Y78431D01*
G01X15104Y78478D01*
G01X15138Y78524D01*
G01X15169Y78570D01*
G01X15201Y78619D01*
G01X15232Y78669D01*
G01X15262Y78720D01*
G01X15291Y78771D01*
G01X15319Y78824D01*
G01X15346Y78877D01*
G01X15372Y78930D01*
G01X15396Y78984D01*
G01X15419Y79038D01*
G01X15441Y79093D01*
G01X15463Y79149D01*
G01X15482Y79204D01*
G01X15501Y79260D01*
G01X15518Y79316D01*
G01X15534Y79373D01*
G01X15549Y79430D01*
G01X15560Y79476D01*
G01X15569Y79529D01*
G01X15577Y79587D01*
G01X15584Y79648D01*
G01X15591Y79713D01*
G01X15596Y79781D01*
G01X15600Y79850D01*
G01X15602Y79920D01*
G01X15604Y79991D01*
G01X15604Y80060D01*
G01X15603Y80129D01*
G01X15601Y80195D01*
G01X15598Y80258D01*
G01X15593Y80318D01*
G01X15586Y80373D01*
G01X15579Y80422D01*
G01X15567Y80485D01*
G01X15554Y80547D01*
G01X15539Y80609D01*
G01X15523Y80670D01*
G01X15505Y80731D01*
G01X15486Y80792D01*
G01X15466Y80852D01*
G01X15444Y80911D01*
G01X15396Y81027D01*
G01X15370Y81084D01*
G01X15342Y81141D01*
G01X15314Y81197D01*
G01X15284Y81252D01*
G01X15220Y81360D01*
G01X15186Y81412D01*
G01X15151Y81464D01*
G01X15115Y81515D01*
G01X15077Y81565D01*
G01X15038Y81614D01*
G01X14998Y81662D01*
G01X14958Y81709D01*
G01X14915Y81755D01*
G01X14872Y81800D01*
G01X14828Y81843D01*
G01X14782Y81886D01*
G01X14736Y81928D01*
G01X14688Y81968D01*
G01X14640Y82007D01*
G01X14590Y82045D01*
G01X14540Y82082D01*
G01X14459Y82138D01*
G01X14386Y82185D01*
G01X14321Y82223D01*
G01X14263Y82252D01*
G01X14211Y82274D01*
G01X14165Y82288D01*
G37*

%LPD*%
G36*
G01X12388Y82763D02*
G01X12371Y82763D01*
G01X12355Y82762D01*
G01X12338Y82760D01*
G01X12322Y82756D01*
G01X12305Y82750D01*
G01X12287Y82742D01*
G01X12268Y82731D01*
G01X12246Y82716D01*
G01X12224Y82699D01*
G01X12198Y82677D01*
G01X12169Y82651D01*
G01X12137Y82621D01*
G01X12101Y82585D01*
G01X12061Y82544D01*
G01X12016Y82497D01*
G01X11966Y82444D01*
G01X11912Y82384D01*
G01X11851Y82317D01*
G01X11785Y82243D01*
G01X11711Y82161D01*
G01X11543Y81972D01*
G01X11448Y81865D01*
G01X11345Y81747D01*
G01X11279Y81674D01*
G01X11216Y81602D01*
G01X11155Y81534D01*
G01X11096Y81470D01*
G01X11041Y81410D01*
G01X10991Y81356D01*
G01X10946Y81308D01*
G01X10906Y81266D01*
G01X10845Y81205D01*
G01X10826Y81187D01*
G01X10815Y81179D01*
G01X10796Y81172D01*
G01X10764Y81167D01*
G01X10719Y81163D01*
G01X10660Y81159D01*
G01X10585Y81156D01*
G01X10493Y81154D01*
G01X10383Y81153D01*
G01X9744Y81153D01*
G01X9607Y81016D01*
G01X9607Y78994D01*
G01X9744Y78857D01*
G01X10825Y78856D01*
G01X11228Y78401D01*
G01X11315Y78302D01*
G01X11397Y78209D01*
G01X11475Y78122D01*
G01X11547Y78039D01*
G01X11616Y77962D01*
G01X11680Y77890D01*
G01X11740Y77822D01*
G01X11797Y77760D01*
G01X11849Y77702D01*
G01X11897Y77648D01*
G01X11943Y77599D01*
G01X11984Y77554D01*
G01X12022Y77513D01*
G01X12056Y77475D01*
G01X12088Y77442D01*
G01X12116Y77412D01*
G01X12142Y77386D01*
G01X12165Y77362D01*
G01X12185Y77342D01*
G01X12203Y77326D01*
G01X12218Y77311D01*
G01X12232Y77300D01*
G01X12242Y77292D01*
G01X12251Y77285D01*
G01X12294Y77265D01*
G01X12339Y77253D01*
G01X12385Y77251D01*
G01X12430Y77256D01*
G01X12473Y77269D01*
G01X12512Y77290D01*
G01X12545Y77318D01*
G01X12571Y77353D01*
G01X12573Y77357D01*
G01X12575Y77363D01*
G01X12576Y77371D01*
G01X12578Y77382D01*
G01X12579Y77396D01*
G01X12580Y77412D01*
G01X12582Y77431D01*
G01X12583Y77453D01*
G01X12584Y77478D01*
G01X12585Y77506D01*
G01X12586Y77537D01*
G01X12587Y77572D01*
G01X12588Y77610D01*
G01X12589Y77652D01*
G01X12590Y77697D01*
G01X12591Y77746D01*
G01X12592Y77799D01*
G01X12593Y77856D01*
G01X12594Y77917D01*
G01X12594Y77983D01*
G01X12595Y78053D01*
G01X12596Y78127D01*
G01X12596Y78206D01*
G01X12597Y78290D01*
G01X12598Y78378D01*
G01X12598Y78472D01*
G01X12599Y78570D01*
G01X12599Y78674D01*
G01X12600Y78783D01*
G01X12600Y78897D01*
G01X12601Y79017D01*
G01X12601Y79143D01*
G01X12602Y79274D01*
G01X12602Y79411D01*
G01X12603Y79554D01*
G01X12603Y79798D01*
G01X12604Y79893D01*
G01X12604Y80080D01*
G01X12605Y80172D01*
G01X12605Y81200D01*
G01X12604Y81276D01*
G01X12604Y81422D01*
G01X12603Y81492D01*
G01X12603Y81689D01*
G01X12602Y81750D01*
G01X12602Y81864D01*
G01X12601Y81917D01*
G01X12601Y82015D01*
G01X12600Y82060D01*
G01X12600Y82102D01*
G01X12599Y82140D01*
G01X12599Y82176D01*
G01X12598Y82208D01*
G01X12598Y82237D01*
G01X12597Y82262D01*
G01X12597Y82284D01*
G01X12596Y82302D01*
G01X12596Y82317D01*
G01X12591Y82419D01*
G01X12587Y82496D01*
G01X12582Y82553D01*
G01X12577Y82595D01*
G01X12568Y82626D01*
G01X12557Y82650D01*
G01X12542Y82672D01*
G01X12522Y82695D01*
G01X12489Y82729D01*
G01X12459Y82749D01*
G01X12427Y82760D01*
G01X12388Y82763D01*
G37*

%LPD*%
G36*
G01X62297Y80751D02*
G01X62241Y80751D01*
G01X62185Y80747D01*
G01X62130Y80741D01*
G01X62076Y80732D01*
G01X62023Y80719D01*
G01X61970Y80703D01*
G01X61918Y80684D01*
G01X61868Y80663D01*
G01X61819Y80639D01*
G01X61771Y80612D01*
G01X61725Y80583D01*
G01X61680Y80551D01*
G01X61637Y80517D01*
G01X61596Y80481D01*
G01X61556Y80442D01*
G01X61519Y80402D01*
G01X61484Y80359D01*
G01X61451Y80314D01*
G01X61420Y80267D01*
G01X61392Y80219D01*
G01X61367Y80169D01*
G01X61344Y80117D01*
G01X61324Y80064D01*
G01X61307Y80009D01*
G01X61294Y79953D01*
G01X61283Y79896D01*
G01X61276Y79834D01*
G01X61273Y79771D01*
G01X61274Y79709D01*
G01X61279Y79647D01*
G01X61288Y79585D01*
G01X61301Y79525D01*
G01X61319Y79465D01*
G01X61339Y79406D01*
G01X61363Y79348D01*
G01X61391Y79293D01*
G01X61422Y79239D01*
G01X61456Y79186D01*
G01X61493Y79137D01*
G01X61534Y79089D01*
G01X61577Y79044D01*
G01X61623Y79001D01*
G01X61672Y78962D01*
G01X61724Y78926D01*
G01X61777Y78893D01*
G01X61833Y78864D01*
G01X61898Y78836D01*
G01X61964Y78810D01*
G01X62023Y78789D01*
G01X62069Y78777D01*
G01X62129Y78767D01*
G01X62189Y78761D01*
G01X62248Y78758D01*
G01X62306Y78759D01*
G01X62364Y78763D01*
G01X62421Y78771D01*
G01X62477Y78782D01*
G01X62533Y78796D01*
G01X62587Y78813D01*
G01X62639Y78833D01*
G01X62691Y78856D01*
G01X62742Y78882D01*
G01X62790Y78911D01*
G01X62837Y78942D01*
G01X62882Y78976D01*
G01X62925Y79013D01*
G01X62966Y79051D01*
G01X63005Y79092D01*
G01X63042Y79136D01*
G01X63076Y79182D01*
G01X63108Y79230D01*
G01X63137Y79279D01*
G01X63164Y79331D01*
G01X63187Y79384D01*
G01X63208Y79439D01*
G01X63226Y79496D01*
G01X63240Y79555D01*
G01X63251Y79615D01*
G01X63258Y79672D01*
G01X63261Y79728D01*
G01X63262Y79785D01*
G01X63258Y79840D01*
G01X63252Y79895D01*
G01X63242Y79949D01*
G01X63230Y80003D01*
G01X63215Y80056D01*
G01X63196Y80107D01*
G01X63175Y80158D01*
G01X63151Y80207D01*
G01X63125Y80255D01*
G01X63096Y80301D01*
G01X63064Y80346D01*
G01X63030Y80388D01*
G01X62994Y80429D01*
G01X62955Y80469D01*
G01X62915Y80506D01*
G01X62872Y80541D01*
G01X62827Y80574D01*
G01X62781Y80604D01*
G01X62732Y80632D01*
G01X62683Y80657D01*
G01X62631Y80679D01*
G01X62578Y80699D01*
G01X62523Y80716D01*
G01X62467Y80730D01*
G01X62409Y80740D01*
G01X62353Y80747D01*
G01X62297Y80751D01*
G37*

%LPD*%
G36*
G01X62283Y82755D02*
G01X62207Y82755D01*
G01X62145Y82754D01*
G01X62104Y82751D01*
G01X62088Y82745D01*
G01X62091Y82740D01*
G01X62097Y82728D01*
G01X62109Y82708D01*
G01X62124Y82682D01*
G01X62143Y82648D01*
G01X62166Y82609D01*
G01X62193Y82564D01*
G01X62223Y82512D01*
G01X62256Y82455D01*
G01X62292Y82393D01*
G01X62331Y82327D01*
G01X62373Y82256D01*
G01X62417Y82180D01*
G01X62464Y82101D01*
G01X62512Y82018D01*
G01X62563Y81932D01*
G01X62616Y81843D01*
G01X62670Y81752D01*
G01X62725Y81658D01*
G01X62782Y81562D01*
G01X62876Y81402D01*
G01X62968Y81246D01*
G01X63012Y81170D01*
G01X63056Y81096D01*
G01X63098Y81023D01*
G01X63139Y80953D01*
G01X63178Y80885D01*
G01X63217Y80819D01*
G01X63253Y80755D01*
G01X63288Y80694D01*
G01X63321Y80637D01*
G01X63352Y80582D01*
G01X63381Y80531D01*
G01X63407Y80484D01*
G01X63432Y80440D01*
G01X63454Y80400D01*
G01X63473Y80364D01*
G01X63490Y80333D01*
G01X63505Y80307D01*
G01X63516Y80285D01*
G01X63524Y80268D01*
G01X63529Y80256D01*
G01X63551Y80198D01*
G01X63571Y80139D01*
G01X63587Y80079D01*
G01X63600Y80020D01*
G01X63611Y79960D01*
G01X63618Y79899D01*
G01X63623Y79838D01*
G01X63625Y79777D01*
G01X63624Y79716D01*
G01X63621Y79654D01*
G01X63614Y79593D01*
G01X63605Y79532D01*
G01X63593Y79472D01*
G01X63579Y79412D01*
G01X63561Y79353D01*
G01X63542Y79294D01*
G01X63519Y79235D01*
G01X63494Y79178D01*
G01X63466Y79121D01*
G01X63435Y79065D01*
G01X63402Y79010D01*
G01X63366Y78957D01*
G01X63328Y78904D01*
G01X63287Y78853D01*
G01X63205Y78755D01*
G01X65100Y78755D01*
G01X65153Y78950D01*
G01X65173Y79026D01*
G01X65191Y79095D01*
G01X65206Y79158D01*
G01X65219Y79218D01*
G01X65229Y79276D01*
G01X65237Y79333D01*
G01X65244Y79391D01*
G01X65249Y79451D01*
G01X65253Y79515D01*
G01X65255Y79584D01*
G01X65256Y79660D01*
G01X65257Y79745D01*
G01X65256Y79818D01*
G01X65255Y79886D01*
G01X65253Y79951D01*
G01X65250Y80013D01*
G01X65246Y80073D01*
G01X65241Y80130D01*
G01X65234Y80186D01*
G01X65227Y80240D01*
G01X65218Y80295D01*
G01X65207Y80349D01*
G01X65195Y80403D01*
G01X65181Y80458D01*
G01X65166Y80515D01*
G01X65149Y80573D01*
G01X65130Y80634D01*
G01X65109Y80697D01*
G01X65089Y80756D01*
G01X65069Y80813D01*
G01X65047Y80869D01*
G01X65026Y80923D01*
G01X65003Y80977D01*
G01X64979Y81029D01*
G01X64955Y81080D01*
G01X64930Y81131D01*
G01X64904Y81181D01*
G01X64877Y81230D01*
G01X64849Y81278D01*
G01X64789Y81372D01*
G01X64758Y81419D01*
G01X64725Y81465D01*
G01X64691Y81511D01*
G01X64656Y81557D01*
G01X64620Y81602D01*
G01X64582Y81647D01*
G01X64542Y81693D01*
G01X64502Y81738D01*
G01X64459Y81784D01*
G01X64415Y81830D01*
G01X64370Y81876D01*
G01X64320Y81925D01*
G01X64271Y81971D01*
G01X64224Y82015D01*
G01X64177Y82057D01*
G01X64131Y82097D01*
G01X64085Y82134D01*
G01X64040Y82170D01*
G01X63994Y82205D01*
G01X63948Y82238D01*
G01X63854Y82300D01*
G01X63805Y82330D01*
G01X63755Y82359D01*
G01X63704Y82387D01*
G01X63651Y82415D01*
G01X63597Y82443D01*
G01X63537Y82471D01*
G01X63478Y82498D01*
G01X63419Y82524D01*
G01X63359Y82548D01*
G01X63299Y82571D01*
G01X63239Y82593D01*
G01X63179Y82612D01*
G01X63118Y82631D01*
G01X63057Y82648D01*
G01X62995Y82665D01*
G01X62933Y82679D01*
G01X62870Y82693D01*
G01X62806Y82705D01*
G01X62741Y82716D01*
G01X62676Y82726D01*
G01X62609Y82735D01*
G01X62536Y82742D01*
G01X62454Y82747D01*
G01X62367Y82752D01*
G01X62283Y82755D01*
G37*

%LPD*%
G36*
G01X61691Y82681D02*
G01X61669Y82684D01*
G01X61621Y82678D01*
G01X61555Y82665D01*
G01X61476Y82646D01*
G01X61418Y82630D01*
G01X61361Y82613D01*
G01X61303Y82594D01*
G01X61247Y82575D01*
G01X61192Y82554D01*
G01X61136Y82533D01*
G01X61082Y82510D01*
G01X61028Y82486D01*
G01X60975Y82462D01*
G01X60922Y82436D01*
G01X60870Y82410D01*
G01X60819Y82382D01*
G01X60768Y82353D01*
G01X60718Y82324D01*
G01X60620Y82262D01*
G01X60572Y82229D01*
G01X60525Y82196D01*
G01X60479Y82162D01*
G01X60433Y82127D01*
G01X60388Y82092D01*
G01X60344Y82055D01*
G01X60258Y81979D01*
G01X60216Y81940D01*
G01X60175Y81901D01*
G01X60095Y81819D01*
G01X60056Y81777D01*
G01X60019Y81735D01*
G01X59945Y81647D01*
G01X59875Y81557D01*
G01X59841Y81511D01*
G01X59809Y81465D01*
G01X59777Y81418D01*
G01X59746Y81370D01*
G01X59686Y81272D01*
G01X59659Y81223D01*
G01X59631Y81173D01*
G01X59605Y81122D01*
G01X59579Y81072D01*
G01X59554Y81020D01*
G01X59508Y80916D01*
G01X59486Y80863D01*
G01X59466Y80809D01*
G01X59446Y80756D01*
G01X59427Y80702D01*
G01X59410Y80647D01*
G01X59393Y80593D01*
G01X59378Y80537D01*
G01X59363Y80482D01*
G01X59337Y80370D01*
G01X59326Y80314D01*
G01X59315Y80257D01*
G01X59306Y80200D01*
G01X59298Y80142D01*
G01X59291Y80085D01*
G01X59285Y80028D01*
G01X59280Y79970D01*
G01X59276Y79912D01*
G01X59273Y79853D01*
G01X59272Y79795D01*
G01X59272Y79678D01*
G01X59274Y79619D01*
G01X59282Y79501D01*
G01X59294Y79383D01*
G01X59302Y79324D01*
G01X59322Y79206D01*
G01X59334Y79147D01*
G01X59347Y79088D01*
G01X59361Y79028D01*
G01X59384Y78943D01*
G01X59409Y78854D01*
G01X59434Y78772D01*
G01X59456Y78708D01*
G01X59481Y78648D01*
G01X59512Y78577D01*
G01X59547Y78501D01*
G01X59584Y78424D01*
G01X59621Y78350D01*
G01X59657Y78283D01*
G01X59688Y78228D01*
G01X59713Y78189D01*
G01X59730Y78168D01*
G01X59746Y78154D01*
G01X59760Y78147D01*
G01X59770Y78149D01*
G01X59777Y78159D01*
G01X59791Y78181D01*
G01X59811Y78214D01*
G01X59836Y78257D01*
G01X59866Y78308D01*
G01X59900Y78365D01*
G01X59936Y78428D01*
G01X59974Y78495D01*
G01X60029Y78592D01*
G01X60083Y78687D01*
G01X60137Y78780D01*
G01X60189Y78871D01*
G01X60240Y78960D01*
G01X60290Y79048D01*
G01X60339Y79134D01*
G01X60387Y79217D01*
G01X60434Y79298D01*
G01X60479Y79377D01*
G01X60524Y79455D01*
G01X60567Y79529D01*
G01X60609Y79602D01*
G01X60650Y79673D01*
G01X60689Y79741D01*
G01X60727Y79806D01*
G01X60764Y79870D01*
G01X60799Y79931D01*
G01X60834Y79989D01*
G01X60866Y80045D01*
G01X60897Y80098D01*
G01X60927Y80149D01*
G01X60955Y80197D01*
G01X60982Y80243D01*
G01X61007Y80285D01*
G01X61031Y80325D01*
G01X61053Y80362D01*
G01X61074Y80397D01*
G01X61093Y80428D01*
G01X61110Y80457D01*
G01X61126Y80483D01*
G01X61140Y80505D01*
G01X61153Y80525D01*
G01X61163Y80541D01*
G01X61172Y80555D01*
G01X61179Y80565D01*
G01X61218Y80616D01*
G01X61258Y80665D01*
G01X61301Y80712D01*
G01X61346Y80757D01*
G01X61393Y80798D01*
G01X61441Y80838D01*
G01X61491Y80875D01*
G01X61544Y80910D01*
G01X61597Y80942D01*
G01X61652Y80971D01*
G01X61708Y80998D01*
G01X61766Y81022D01*
G01X61824Y81044D01*
G01X61884Y81063D01*
G01X61945Y81079D01*
G01X62006Y81092D01*
G01X62068Y81103D01*
G01X62131Y81111D01*
G01X62194Y81115D01*
G01X62258Y81117D01*
G01X62322Y81116D01*
G01X62387Y81111D01*
G01X62452Y81104D01*
G01X62517Y81093D01*
G01X62562Y81086D01*
G01X62600Y81080D01*
G01X62627Y81078D01*
G01X62638Y81079D01*
G01X62625Y81107D01*
G01X62586Y81177D01*
G01X62526Y81280D01*
G01X62453Y81405D01*
G01X62432Y81440D01*
G01X62409Y81479D01*
G01X62384Y81521D01*
G01X62357Y81566D01*
G01X62329Y81614D01*
G01X62299Y81664D01*
G01X62268Y81716D01*
G01X62237Y81769D01*
G01X62205Y81823D01*
G01X62173Y81878D01*
G01X62140Y81932D01*
G01X62108Y81987D01*
G01X62076Y82041D01*
G01X62045Y82094D01*
G01X62015Y82145D01*
G01X61985Y82194D01*
G01X61929Y82289D01*
G01X61876Y82378D01*
G01X61828Y82459D01*
G01X61784Y82531D01*
G01X61748Y82591D01*
G01X61719Y82637D01*
G01X61700Y82668D01*
G01X61691Y82681D01*
G37*

%LPD*%
G36*
G01X60945Y79420D02*
G01X60939Y79431D01*
G01X60929Y79419D01*
G01X60906Y79383D01*
G01X60873Y79329D01*
G01X60833Y79261D01*
G01X60821Y79240D01*
G01X60806Y79212D01*
G01X60787Y79180D01*
G01X60765Y79142D01*
G01X60741Y79099D01*
G01X60714Y79052D01*
G01X60685Y79002D01*
G01X60654Y78948D01*
G01X60621Y78891D01*
G01X60586Y78831D01*
G01X60551Y78769D01*
G01X60514Y78705D01*
G01X60477Y78640D01*
G01X60439Y78575D01*
G01X60363Y78442D01*
G01X59992Y77799D01*
G01X60125Y77663D01*
G01X60174Y77615D01*
G01X60222Y77568D01*
G01X60270Y77523D01*
G01X60317Y77481D01*
G01X60365Y77440D01*
G01X60412Y77401D01*
G01X60460Y77363D01*
G01X60507Y77327D01*
G01X60605Y77259D01*
G01X60655Y77227D01*
G01X60706Y77195D01*
G01X60758Y77164D01*
G01X60812Y77134D01*
G01X60924Y77076D01*
G01X60985Y77046D01*
G01X61046Y77018D01*
G01X61107Y76991D01*
G01X61168Y76966D01*
G01X61290Y76920D01*
G01X61351Y76899D01*
G01X61412Y76880D01*
G01X61473Y76862D01*
G01X61534Y76846D01*
G01X61596Y76831D01*
G01X61657Y76818D01*
G01X61720Y76805D01*
G01X61782Y76795D01*
G01X61908Y76777D01*
G01X61970Y76771D01*
G01X62031Y76766D01*
G01X62093Y76762D01*
G01X62155Y76760D01*
G01X62218Y76758D01*
G01X62280Y76758D01*
G01X62343Y76759D01*
G01X62405Y76762D01*
G01X62468Y76766D01*
G01X62530Y76770D01*
G01X62593Y76776D01*
G01X62655Y76784D01*
G01X62716Y76793D01*
G01X62778Y76803D01*
G01X62838Y76814D01*
G01X62899Y76826D01*
G01X62961Y76840D01*
G01X63024Y76856D01*
G01X63086Y76873D01*
G01X63148Y76892D01*
G01X63272Y76934D01*
G01X63333Y76957D01*
G01X63394Y76981D01*
G01X63454Y77007D01*
G01X63514Y77034D01*
G01X63574Y77062D01*
G01X63633Y77091D01*
G01X63691Y77122D01*
G01X63748Y77154D01*
G01X63805Y77187D01*
G01X63862Y77221D01*
G01X63917Y77256D01*
G01X64025Y77330D01*
G01X64078Y77368D01*
G01X64130Y77407D01*
G01X64230Y77489D01*
G01X64279Y77531D01*
G01X64326Y77574D01*
G01X64372Y77618D01*
G01X64417Y77662D01*
G01X64461Y77708D01*
G01X64503Y77754D01*
G01X64544Y77801D01*
G01X64584Y77848D01*
G01X64622Y77897D01*
G01X64662Y77951D01*
G01X64709Y78020D01*
G01X64760Y78095D01*
G01X64810Y78173D01*
G01X64856Y78246D01*
G01X64893Y78309D01*
G01X64919Y78354D01*
G01X64929Y78377D01*
G01X64925Y78378D01*
G01X64915Y78379D01*
G01X64899Y78381D01*
G01X64876Y78382D01*
G01X64847Y78383D01*
G01X64813Y78384D01*
G01X64773Y78385D01*
G01X64728Y78386D01*
G01X64678Y78387D01*
G01X64622Y78388D01*
G01X64562Y78389D01*
G01X64498Y78390D01*
G01X64430Y78391D01*
G01X64358Y78392D01*
G01X64281Y78393D01*
G01X64202Y78394D01*
G01X64118Y78395D01*
G01X64032Y78396D01*
G01X63943Y78397D01*
G01X63852Y78397D01*
G01X63758Y78398D01*
G01X63662Y78399D01*
G01X63564Y78399D01*
G01X63463Y78400D01*
G01X63304Y78401D01*
G01X63157Y78402D01*
G01X63020Y78402D01*
G01X62895Y78403D01*
G01X62780Y78404D01*
G01X62674Y78405D01*
G01X62577Y78406D01*
G01X62490Y78406D01*
G01X62410Y78408D01*
G01X62339Y78409D01*
G01X62274Y78410D01*
G01X62216Y78411D01*
G01X62165Y78413D01*
G01X62120Y78414D01*
G01X62080Y78416D01*
G01X62045Y78418D01*
G01X62014Y78420D01*
G01X61987Y78422D01*
G01X61963Y78425D01*
G01X61943Y78428D01*
G01X61925Y78431D01*
G01X61908Y78434D01*
G01X61894Y78438D01*
G01X61881Y78441D01*
G01X61820Y78461D01*
G01X61761Y78483D01*
G01X61703Y78509D01*
G01X61646Y78538D01*
G01X61590Y78569D01*
G01X61536Y78603D01*
G01X61483Y78640D01*
G01X61432Y78679D01*
G01X61383Y78721D01*
G01X61335Y78765D01*
G01X61290Y78811D01*
G01X61247Y78859D01*
G01X61205Y78910D01*
G01X61166Y78961D01*
G01X61130Y79016D01*
G01X61096Y79071D01*
G01X61064Y79128D01*
G01X61035Y79187D01*
G01X61009Y79247D01*
G01X60985Y79309D01*
G01X60969Y79355D01*
G01X60955Y79393D01*
G01X60945Y79420D01*
G37*

%LPD*%
G36*
G01X28453Y81935D02*
G01X27733Y81935D01*
G01X27643Y81934D01*
G01X27294Y81934D01*
G01X27208Y81933D01*
G01X27042Y81933D01*
G01X26961Y81932D01*
G01X26881Y81932D01*
G01X26803Y81931D01*
G01X26726Y81931D01*
G01X26652Y81930D01*
G01X26580Y81930D01*
G01X26509Y81929D01*
G01X26441Y81929D01*
G01X26375Y81928D01*
G01X26311Y81927D01*
G01X26250Y81927D01*
G01X26192Y81926D01*
G01X26137Y81925D01*
G01X26084Y81924D01*
G01X26035Y81923D01*
G01X25988Y81922D01*
G01X25945Y81921D01*
G01X25905Y81920D01*
G01X25869Y81919D01*
G01X25836Y81918D01*
G01X25807Y81917D01*
G01X25782Y81916D01*
G01X25761Y81915D01*
G01X25744Y81914D01*
G01X25731Y81913D01*
G01X25722Y81912D01*
G01X25661Y81898D01*
G01X25603Y81880D01*
G01X25546Y81857D01*
G01X25492Y81831D01*
G01X25441Y81801D01*
G01X25393Y81766D01*
G01X25347Y81727D01*
G01X25305Y81684D01*
G01X25265Y81638D01*
G01X25229Y81588D01*
G01X25196Y81535D01*
G01X25166Y81477D01*
G01X25103Y81344D01*
G01X25103Y79123D01*
G01X25166Y78990D01*
G01X25195Y78935D01*
G01X25227Y78883D01*
G01X25263Y78833D01*
G01X25303Y78788D01*
G01X25346Y78745D01*
G01X25392Y78706D01*
G01X25440Y78670D01*
G01X25491Y78639D01*
G01X25544Y78611D01*
G01X25599Y78588D01*
G01X25656Y78570D01*
G01X25713Y78555D01*
G01X25721Y78554D01*
G01X25733Y78553D01*
G01X25748Y78552D01*
G01X25769Y78552D01*
G01X25793Y78551D01*
G01X25821Y78550D01*
G01X25853Y78549D01*
G01X25889Y78548D01*
G01X25928Y78547D01*
G01X25970Y78547D01*
G01X26016Y78546D01*
G01X26065Y78545D01*
G01X26118Y78545D01*
G01X26173Y78544D01*
G01X26231Y78543D01*
G01X26292Y78543D01*
G01X26356Y78542D01*
G01X26422Y78542D01*
G01X26490Y78541D01*
G01X26560Y78541D01*
G01X26633Y78540D01*
G01X26708Y78540D01*
G01X26784Y78539D01*
G01X26863Y78539D01*
G01X26943Y78538D01*
G01X27108Y78538D01*
G01X27192Y78537D01*
G01X27541Y78537D01*
G01X27630Y78536D01*
G01X28800Y78536D01*
G01X28886Y78537D01*
G01X29139Y78537D01*
G01X29221Y78538D01*
G01X29380Y78538D01*
G01X29457Y78539D01*
G01X29532Y78539D01*
G01X29604Y78540D01*
G01X29743Y78540D01*
G01X29809Y78541D01*
G01X29873Y78541D01*
G01X29934Y78542D01*
G01X29992Y78543D01*
G01X30047Y78543D01*
G01X30100Y78544D01*
G01X30149Y78545D01*
G01X30195Y78545D01*
G01X30238Y78546D01*
G01X30277Y78547D01*
G01X30313Y78547D01*
G01X30345Y78548D01*
G01X30373Y78549D01*
G01X30398Y78550D01*
G01X30418Y78551D01*
G01X30434Y78552D01*
G01X30446Y78553D01*
G01X30454Y78554D01*
G01X30517Y78568D01*
G01X30577Y78587D01*
G01X30634Y78609D01*
G01X30690Y78636D01*
G01X30742Y78667D01*
G01X30791Y78702D01*
G01X30837Y78740D01*
G01X30880Y78783D01*
G01X30920Y78829D01*
G01X30957Y78879D01*
G01X30990Y78932D01*
G01X31019Y78990D01*
G01X31082Y79123D01*
G01X31082Y81344D01*
G01X31019Y81477D01*
G01X30990Y81535D01*
G01X30957Y81588D01*
G01X30920Y81638D01*
G01X30881Y81684D01*
G01X30838Y81727D01*
G01X30792Y81766D01*
G01X30744Y81801D01*
G01X30693Y81831D01*
G01X30639Y81857D01*
G01X30583Y81880D01*
G01X30524Y81898D01*
G01X30463Y81912D01*
G01X30455Y81913D01*
G01X30441Y81914D01*
G01X30424Y81915D01*
G01X30403Y81916D01*
G01X30378Y81917D01*
G01X30349Y81918D01*
G01X30316Y81919D01*
G01X30280Y81920D01*
G01X30240Y81921D01*
G01X30197Y81922D01*
G01X30150Y81923D01*
G01X30101Y81924D01*
G01X30048Y81925D01*
G01X29993Y81926D01*
G01X29934Y81927D01*
G01X29873Y81927D01*
G01X29810Y81928D01*
G01X29744Y81929D01*
G01X29676Y81929D01*
G01X29606Y81930D01*
G01X29533Y81930D01*
G01X29458Y81931D01*
G01X29382Y81931D01*
G01X29304Y81932D01*
G01X29224Y81932D01*
G01X29143Y81933D01*
G01X28976Y81933D01*
G01X28891Y81934D01*
G01X28542Y81934D01*
G01X28453Y81935D01*
G37*

%LPC*%
G36*
G01X30423Y81663D02*
G01X25763Y81663D01*
G01X25646Y81606D01*
G01X25596Y81578D01*
G01X25549Y81545D01*
G01X25507Y81506D01*
G01X25469Y81464D01*
G01X25436Y81419D01*
G01X25409Y81369D01*
G01X25387Y81317D01*
G01X25372Y81264D01*
G01X25369Y81248D01*
G01X25367Y81225D01*
G01X25364Y81196D01*
G01X25362Y81159D01*
G01X25361Y81116D01*
G01X25359Y81066D01*
G01X25358Y81009D01*
G01X25357Y80945D01*
G01X25356Y80874D01*
G01X25355Y80796D01*
G01X25355Y80296D01*
G01X25356Y80173D01*
G01X25362Y79184D01*
G01X25425Y79074D01*
G01X25453Y79028D01*
G01X25486Y78986D01*
G01X25521Y78948D01*
G01X25561Y78914D01*
G01X25602Y78885D01*
G01X25647Y78859D01*
G01X25695Y78838D01*
G01X25746Y78822D01*
G01X25754Y78821D01*
G01X25763Y78819D01*
G01X25774Y78817D01*
G01X25788Y78816D01*
G01X25804Y78815D01*
G01X25822Y78813D01*
G01X25843Y78811D01*
G01X25867Y78810D01*
G01X25894Y78809D01*
G01X25923Y78808D01*
G01X25956Y78807D01*
G01X25992Y78806D01*
G01X26031Y78805D01*
G01X26074Y78805D01*
G01X26120Y78804D01*
G01X26170Y78803D01*
G01X26223Y78802D01*
G01X26281Y78802D01*
G01X26342Y78801D01*
G01X26408Y78801D01*
G01X26478Y78800D01*
G01X26716Y78800D01*
G01X26805Y78799D01*
G01X27839Y78799D01*
G01X27983Y78800D01*
G01X28133Y78800D01*
G01X30423Y78804D01*
G01X30540Y78861D01*
G01X30584Y78886D01*
G01X30626Y78915D01*
G01X30665Y78948D01*
G01X30700Y78984D01*
G01X30732Y79024D01*
G01X30761Y79066D01*
G01X30786Y79112D01*
G01X30806Y79160D01*
G01X30809Y79172D01*
G01X30812Y79189D01*
G01X30814Y79214D01*
G01X30817Y79245D01*
G01X30819Y79283D01*
G01X30821Y79329D01*
G01X30822Y79382D01*
G01X30824Y79442D01*
G01X30825Y79511D01*
G01X30826Y79588D01*
G01X30827Y79673D01*
G01X30828Y79767D01*
G01X30829Y79870D01*
G01X30829Y79981D01*
G01X30830Y80103D01*
G01X30830Y80364D01*
G01X30829Y80486D01*
G01X30829Y80598D01*
G01X30828Y80700D01*
G01X30827Y80794D01*
G01X30826Y80880D01*
G01X30825Y80956D01*
G01X30824Y81025D01*
G01X30822Y81085D01*
G01X30821Y81138D01*
G01X30819Y81184D01*
G01X30817Y81222D01*
G01X30814Y81253D01*
G01X30812Y81278D01*
G01X30809Y81296D01*
G01X30806Y81307D01*
G01X30786Y81355D01*
G01X30761Y81401D01*
G01X30732Y81443D01*
G01X30700Y81484D01*
G01X30665Y81520D01*
G01X30626Y81553D01*
G01X30584Y81582D01*
G01X30540Y81606D01*
G01X30423Y81663D01*
G37*

%LPD*%
G36*
G01X27703Y81153D02*
G01X27575Y81153D01*
G01X27508Y81152D01*
G01X27472Y81148D01*
G01X27458Y81137D01*
G01X27461Y81119D01*
G01X27469Y81103D01*
G01X27485Y81073D01*
G01X27510Y81028D01*
G01X27541Y80973D01*
G01X27578Y80906D01*
G01X27620Y80833D01*
G01X27666Y80754D01*
G01X27762Y80586D01*
G01X27806Y80507D01*
G01X27847Y80435D01*
G01X27883Y80371D01*
G01X27912Y80318D01*
G01X27934Y80276D01*
G01X27948Y80248D01*
G01X27953Y80235D01*
G01X27948Y80223D01*
G01X27934Y80194D01*
G01X27912Y80153D01*
G01X27883Y80099D01*
G01X27847Y80035D01*
G01X27806Y79962D01*
G01X27762Y79883D01*
G01X27666Y79715D01*
G01X27620Y79635D01*
G01X27578Y79561D01*
G01X27541Y79495D01*
G01X27510Y79439D01*
G01X27486Y79395D01*
G01X27469Y79364D01*
G01X27462Y79348D01*
G01X27458Y79330D01*
G01X27472Y79319D01*
G01X27508Y79315D01*
G01X27575Y79314D01*
G01X27703Y79315D01*
G01X27851Y79579D01*
G01X27882Y79634D01*
G01X27913Y79688D01*
G01X27942Y79740D01*
G01X27970Y79788D01*
G01X27995Y79833D01*
G01X28017Y79870D01*
G01X28035Y79900D01*
G01X28048Y79921D01*
G01X28096Y79998D01*
G01X28289Y79661D01*
G01X28483Y79324D01*
G01X28608Y79317D01*
G01X28656Y79316D01*
G01X28696Y79318D01*
G01X28723Y79322D01*
G01X28732Y79328D01*
G01X28727Y79340D01*
G01X28713Y79368D01*
G01X28690Y79411D01*
G01X28659Y79467D01*
G01X28622Y79534D01*
G01X28580Y79610D01*
G01X28533Y79693D01*
G01X28483Y79781D01*
G01X28432Y79869D01*
G01X28386Y79952D01*
G01X28343Y80028D01*
G01X28306Y80095D01*
G01X28275Y80151D01*
G01X28252Y80194D01*
G01X28238Y80223D01*
G01X28233Y80235D01*
G01X28238Y80248D01*
G01X28251Y80275D01*
G01X28273Y80316D01*
G01X28303Y80370D01*
G01X28338Y80434D01*
G01X28378Y80506D01*
G01X28423Y80584D01*
G01X28471Y80668D01*
G01X28520Y80753D01*
G01X28565Y80832D01*
G01X28607Y80906D01*
G01X28644Y80972D01*
G01X28675Y81028D01*
G01X28699Y81072D01*
G01X28716Y81103D01*
G01X28723Y81119D01*
G01X28726Y81137D01*
G01X28713Y81148D01*
G01X28677Y81152D01*
G01X28610Y81153D01*
G01X28483Y81153D01*
G01X28293Y80815D01*
G01X28254Y80747D01*
G01X28218Y80685D01*
G01X28184Y80628D01*
G01X28154Y80579D01*
G01X28129Y80539D01*
G01X28109Y80509D01*
G01X28096Y80491D01*
G01X28089Y80486D01*
G01X28083Y80494D01*
G01X28069Y80515D01*
G01X28050Y80547D01*
G01X28025Y80588D01*
G01X27995Y80638D01*
G01X27963Y80695D01*
G01X27927Y80757D01*
G01X27889Y80823D01*
G01X27703Y81153D01*
G37*

%LPD*%
G36*
G01X30312Y81154D02*
G01X29012Y81154D01*
G01X29012Y79314D01*
G01X30312Y79314D01*
G01X30312Y79573D01*
G01X29272Y79573D01*
G01X29272Y80113D01*
G01X30054Y80113D01*
G01X30049Y80238D01*
G01X30043Y80363D01*
G01X29272Y80375D01*
G01X29272Y80894D01*
G01X30312Y80894D01*
G01X30312Y81154D01*
G37*

%LPD*%
G36*
G01X27172Y81154D02*
G01X25872Y81154D01*
G01X25872Y79314D01*
G01X27172Y79314D01*
G01X27172Y79573D01*
G01X26133Y79573D01*
G01X26133Y80113D01*
G01X26913Y80113D01*
G01X26913Y80374D01*
G01X26133Y80374D01*
G01X26133Y80894D01*
G01X27172Y80894D01*
G01X27172Y81154D01*
G37*

%LPD*%
G36*
G01X44505Y84278D02*
G01X44432Y84392D01*
G01X42360Y83533D01*
G01X40288Y82673D01*
G01X38482Y80768D01*
G01X36675Y78862D01*
G01X36674Y78714D01*
G01X36675Y78701D01*
G01X36677Y78681D01*
G01X36680Y78657D01*
G01X36684Y78627D01*
G01X36690Y78591D01*
G01X36696Y78550D01*
G01X36704Y78505D01*
G01X36713Y78455D01*
G01X36723Y78402D01*
G01X36733Y78343D01*
G01X36745Y78281D01*
G01X36758Y78216D01*
G01X36771Y78147D01*
G01X36785Y78074D01*
G01X36800Y77999D01*
G01X36816Y77921D01*
G01X36832Y77840D01*
G01X36849Y77757D01*
G01X36866Y77673D01*
G01X36884Y77586D01*
G01X36903Y77498D01*
G01X36921Y77408D01*
G01X36941Y77317D01*
G01X36960Y77226D01*
G01X36968Y77188D01*
G01X36977Y77149D01*
G01X36985Y77108D01*
G01X36994Y77065D01*
G01X37004Y77022D01*
G01X37013Y76977D01*
G01X37033Y76883D01*
G01X37043Y76834D01*
G01X37054Y76784D01*
G01X37065Y76732D01*
G01X37076Y76679D01*
G01X37087Y76625D01*
G01X37099Y76570D01*
G01X37110Y76514D01*
G01X37122Y76457D01*
G01X37134Y76399D01*
G01X37146Y76340D01*
G01X37159Y76280D01*
G01X37172Y76219D01*
G01X37185Y76157D01*
G01X37211Y76031D01*
G01X37224Y75967D01*
G01X37237Y75902D01*
G01X37265Y75770D01*
G01X37279Y75703D01*
G01X37292Y75635D01*
G01X37307Y75568D01*
G01X37335Y75431D01*
G01X37363Y75292D01*
G01X37378Y75221D01*
G01X37392Y75151D01*
G01X37407Y75081D01*
G01X37436Y74938D01*
G01X37450Y74867D01*
G01X37465Y74796D01*
G01X37509Y74581D01*
G01X37523Y74510D01*
G01X37538Y74439D01*
G01X37553Y74367D01*
G01X37567Y74296D01*
G01X37582Y74225D01*
G01X37610Y74084D01*
G01X37625Y74013D01*
G01X37653Y73873D01*
G01X37695Y73666D01*
G01X37723Y73531D01*
G01X37736Y73464D01*
G01X38224Y71044D01*
G01X37914Y68813D01*
G01X37604Y66583D01*
G01X37138Y65450D01*
G01X37100Y65357D01*
G01X37063Y65265D01*
G01X37027Y65174D01*
G01X36992Y65084D01*
G01X36958Y64997D01*
G01X36925Y64912D01*
G01X36894Y64829D01*
G01X36865Y64750D01*
G01X36837Y64673D01*
G01X36810Y64601D01*
G01X36786Y64532D01*
G01X36764Y64467D01*
G01X36744Y64408D01*
G01X36726Y64353D01*
G01X36711Y64303D01*
G01X36698Y64259D01*
G01X36688Y64222D01*
G01X36680Y64190D01*
G01X36676Y64165D01*
G01X36675Y64148D01*
G01X36675Y64135D01*
G01X36677Y64118D01*
G01X36680Y64095D01*
G01X36684Y64067D01*
G01X36689Y64035D01*
G01X36695Y63998D01*
G01X36703Y63957D01*
G01X36711Y63912D01*
G01X36720Y63863D01*
G01X36730Y63810D01*
G01X36741Y63753D01*
G01X36752Y63693D01*
G01X36765Y63629D01*
G01X36778Y63563D01*
G01X36792Y63493D01*
G01X36807Y63421D01*
G01X36822Y63346D01*
G01X36839Y63268D01*
G01X36855Y63188D01*
G01X36872Y63107D01*
G01X36890Y63023D01*
G01X36908Y62937D01*
G01X36927Y62850D01*
G01X36946Y62761D01*
G01X36966Y62671D01*
G01X36985Y62580D01*
G01X37006Y62487D01*
G01X37026Y62394D01*
G01X37377Y60811D01*
G01X37234Y60372D01*
G01X37092Y59933D01*
G01X36841Y59932D01*
G01X36591Y59932D01*
G01X36532Y59836D01*
G01X36473Y59741D01*
G01X36681Y59573D01*
G01X36888Y59404D01*
G01X36781Y59096D01*
G01X36673Y58788D01*
G01X36673Y55889D01*
G01X35865Y53460D01*
G01X35058Y51032D01*
G01X35580Y47048D01*
G01X36224Y46164D01*
G01X36440Y46177D01*
G01X39212Y49373D01*
G01X39773Y50955D01*
G01X39806Y51048D01*
G01X39838Y51139D01*
G01X39870Y51229D01*
G01X39902Y51318D01*
G01X39933Y51404D01*
G01X39963Y51489D01*
G01X39993Y51572D01*
G01X40022Y51652D01*
G01X40050Y51731D01*
G01X40077Y51806D01*
G01X40104Y51880D01*
G01X40129Y51950D01*
G01X40154Y52018D01*
G01X40177Y52082D01*
G01X40199Y52143D01*
G01X40220Y52200D01*
G01X40240Y52255D01*
G01X40259Y52305D01*
G01X40276Y52352D01*
G01X40292Y52394D01*
G01X40306Y52433D01*
G01X40318Y52467D01*
G01X40330Y52496D01*
G01X40339Y52521D01*
G01X40357Y52566D01*
G01X40360Y52570D01*
G01X40368Y52577D01*
G01X40385Y52584D01*
G01X40410Y52593D01*
G01X40442Y52604D01*
G01X40482Y52615D01*
G01X40528Y52628D01*
G01X40581Y52641D01*
G01X40638Y52656D01*
G01X40702Y52672D01*
G01X40770Y52688D01*
G01X40842Y52704D01*
G01X40918Y52722D01*
G01X40998Y52739D01*
G01X41080Y52758D01*
G01X41165Y52776D01*
G01X41252Y52794D01*
G01X41340Y52813D01*
G01X41429Y52831D01*
G01X41609Y52868D01*
G01X41699Y52886D01*
G01X41787Y52903D01*
G01X41874Y52920D01*
G01X41960Y52936D01*
G01X42043Y52951D01*
G01X42123Y52966D01*
G01X42201Y52980D01*
G01X42274Y52992D01*
G01X42343Y53004D01*
G01X42408Y53014D01*
G01X42468Y53023D01*
G01X42522Y53031D01*
G01X42570Y53037D01*
G01X42612Y53042D01*
G01X42646Y53045D01*
G01X42673Y53046D01*
G01X42699Y53045D01*
G01X42732Y53043D01*
G01X42771Y53040D01*
G01X42816Y53035D01*
G01X42866Y53028D01*
G01X42921Y53021D01*
G01X42981Y53012D01*
G01X43045Y53002D01*
G01X43113Y52991D01*
G01X43185Y52979D01*
G01X43259Y52965D01*
G01X43337Y52951D01*
G01X43418Y52936D01*
G01X43500Y52920D01*
G01X43584Y52904D01*
G01X43670Y52887D01*
G01X43758Y52869D01*
G01X43933Y52831D01*
G01X44022Y52812D01*
G01X45092Y52575D01*
G01X47417Y53099D01*
G01X48347Y52903D01*
G01X48578Y52855D01*
G01X48653Y52838D01*
G01X48728Y52823D01*
G01X48802Y52807D01*
G01X48873Y52791D01*
G01X48943Y52776D01*
G01X49011Y52762D01*
G01X49076Y52748D01*
G01X49139Y52734D01*
G01X49198Y52721D01*
G01X49254Y52708D01*
G01X49306Y52697D01*
G01X49354Y52686D01*
G01X49398Y52676D01*
G01X49437Y52667D01*
G01X49471Y52659D01*
G01X49500Y52652D01*
G01X49523Y52646D01*
G01X49768Y52584D01*
G01X50096Y51677D01*
G01X50115Y51622D01*
G01X50136Y51566D01*
G01X50156Y51509D01*
G01X50178Y51450D01*
G01X50200Y51390D01*
G01X50221Y51329D01*
G01X50244Y51268D01*
G01X50267Y51205D01*
G01X50289Y51142D01*
G01X50312Y51079D01*
G01X50336Y51015D01*
G01X50359Y50951D01*
G01X50382Y50888D01*
G01X50405Y50824D01*
G01X50428Y50761D01*
G01X50451Y50699D01*
G01X50473Y50637D01*
G01X50495Y50576D01*
G01X50517Y50516D01*
G01X50538Y50457D01*
G01X50559Y50400D01*
G01X50580Y50344D01*
G01X50599Y50290D01*
G01X50619Y50238D01*
G01X50637Y50187D01*
G01X50655Y50139D01*
G01X50672Y50093D01*
G01X50688Y50049D01*
G01X50952Y49329D01*
G01X53815Y46060D01*
G01X53878Y46135D01*
G01X53897Y46158D01*
G01X53927Y46195D01*
G01X53965Y46244D01*
G01X54011Y46303D01*
G01X54063Y46369D01*
G01X54119Y46442D01*
G01X54179Y46519D01*
G01X54240Y46598D01*
G01X54537Y46986D01*
G01X54808Y49000D01*
G01X55079Y51013D01*
G01X54295Y53351D01*
G01X53510Y55689D01*
G01X53510Y58728D01*
G01X53223Y59416D01*
G01X53697Y59762D01*
G01X53592Y59932D01*
G01X53060Y59932D01*
G01X52910Y60384D01*
G01X52760Y60835D01*
G01X53511Y64213D01*
G01X53032Y65351D01*
G01X52553Y66490D01*
G01X52234Y68723D01*
G01X51915Y70955D01*
G01X52254Y72723D01*
G01X52263Y72768D01*
G01X52281Y72864D01*
G01X52290Y72914D01*
G01X52301Y72964D01*
G01X52310Y73015D01*
G01X52321Y73068D01*
G01X52331Y73121D01*
G01X52342Y73175D01*
G01X52352Y73231D01*
G01X52364Y73286D01*
G01X52375Y73343D01*
G01X52386Y73401D01*
G01X52398Y73459D01*
G01X52409Y73518D01*
G01X52445Y73698D01*
G01X52470Y73822D01*
G01X52483Y73885D01*
G01X52495Y73948D01*
G01X52508Y74011D01*
G01X52521Y74075D01*
G01X52534Y74140D01*
G01X52547Y74204D01*
G01X52560Y74270D01*
G01X52573Y74335D01*
G01X52599Y74467D01*
G01X52613Y74533D01*
G01X52626Y74599D01*
G01X52640Y74666D01*
G01X52653Y74732D01*
G01X52681Y74865D01*
G01X52694Y74932D01*
G01X52708Y74999D01*
G01X52721Y75066D01*
G01X52749Y75199D01*
G01X52762Y75265D01*
G01X52776Y75332D01*
G01X52789Y75398D01*
G01X52803Y75463D01*
G01X52816Y75529D01*
G01X52830Y75594D01*
G01X52843Y75659D01*
G01X52857Y75724D01*
G01X52883Y75852D01*
G01X52897Y75915D01*
G01X52909Y75978D01*
G01X52935Y76102D01*
G01X52961Y76224D01*
G01X52973Y76284D01*
G01X52986Y76344D01*
G01X53010Y76460D01*
G01X53023Y76517D01*
G01X53034Y76574D01*
G01X53046Y76629D01*
G01X53499Y78769D01*
G01X53369Y78955D01*
G01X53363Y78963D01*
G01X53354Y78974D01*
G01X53344Y78987D01*
G01X53330Y79002D01*
G01X53315Y79019D01*
G01X53298Y79039D01*
G01X53279Y79061D01*
G01X53257Y79085D01*
G01X53233Y79111D01*
G01X53208Y79139D01*
G01X53180Y79169D01*
G01X53151Y79201D01*
G01X53120Y79234D01*
G01X53087Y79270D01*
G01X53052Y79307D01*
G01X53015Y79346D01*
G01X52977Y79387D01*
G01X52937Y79429D01*
G01X52896Y79473D01*
G01X52853Y79519D01*
G01X52809Y79565D01*
G01X52763Y79614D01*
G01X52716Y79663D01*
G01X52668Y79714D01*
G01X52618Y79767D01*
G01X52567Y79820D01*
G01X52515Y79874D01*
G01X52462Y79930D01*
G01X52407Y79987D01*
G01X52352Y80045D01*
G01X52238Y80163D01*
G01X52180Y80224D01*
G01X52060Y80348D01*
G01X51999Y80411D01*
G01X51938Y80475D01*
G01X51875Y80539D01*
G01X51813Y80604D01*
G01X51749Y80669D01*
G01X51685Y80735D01*
G01X51621Y80802D01*
G01X51556Y80868D01*
G01X51490Y80935D01*
G01X49743Y82730D01*
G01X45743Y84377D01*
G01X45677Y84317D01*
G01X45674Y84312D01*
G01X45670Y84302D01*
G01X45666Y84289D01*
G01X45661Y84270D01*
G01X45655Y84249D01*
G01X45650Y84222D01*
G01X45644Y84192D01*
G01X45637Y84158D01*
G01X45630Y84121D01*
G01X45622Y84079D01*
G01X45615Y84035D01*
G01X45607Y83987D01*
G01X45598Y83935D01*
G01X45589Y83881D01*
G01X45580Y83823D01*
G01X45571Y83762D01*
G01X45560Y83698D01*
G01X45550Y83632D01*
G01X45540Y83563D01*
G01X45530Y83491D01*
G01X45519Y83417D01*
G01X45508Y83340D01*
G01X45496Y83261D01*
G01X45485Y83180D01*
G01X45473Y83096D01*
G01X45461Y83011D01*
G01X45449Y82924D01*
G01X45438Y82835D01*
G01X45425Y82744D01*
G01X45413Y82652D01*
G01X45400Y82558D01*
G01X45388Y82463D01*
G01X45376Y82367D01*
G01X45363Y82269D01*
G01X45351Y82170D01*
G01X45325Y81971D01*
G01X45313Y81873D01*
G01X45301Y81776D01*
G01X45289Y81680D01*
G01X45277Y81586D01*
G01X45265Y81493D01*
G01X45254Y81402D01*
G01X45242Y81313D01*
G01X45231Y81226D01*
G01X45220Y81141D01*
G01X45209Y81057D01*
G01X45199Y80976D01*
G01X45189Y80897D01*
G01X45178Y80821D01*
G01X45169Y80747D01*
G01X45160Y80676D01*
G01X45151Y80607D01*
G01X45142Y80541D01*
G01X45134Y80478D01*
G01X45126Y80417D01*
G01X45118Y80360D01*
G01X45110Y80306D01*
G01X45104Y80255D01*
G01X45097Y80208D01*
G01X45091Y80164D01*
G01X45086Y80123D01*
G01X45080Y80086D01*
G01X45075Y80053D01*
G01X45071Y80024D01*
G01X45067Y79998D01*
G01X45064Y79976D01*
G01X45061Y79959D01*
G01X45059Y79945D01*
G01X45057Y79937D01*
G01X45056Y79932D01*
G01X45055Y79932D01*
G01X45052Y79944D01*
G01X45049Y79962D01*
G01X45046Y79984D01*
G01X45042Y80010D01*
G01X45037Y80041D01*
G01X45033Y80076D01*
G01X45027Y80116D01*
G01X45021Y80159D01*
G01X45015Y80205D01*
G01X45008Y80256D01*
G01X45001Y80309D01*
G01X44994Y80366D01*
G01X44986Y80426D01*
G01X44978Y80489D01*
G01X44970Y80555D01*
G01X44962Y80623D01*
G01X44952Y80694D01*
G01X44943Y80767D01*
G01X44934Y80842D01*
G01X44924Y80920D01*
G01X44915Y80999D01*
G01X44905Y81080D01*
G01X44895Y81162D01*
G01X44885Y81246D01*
G01X44874Y81331D01*
G01X44864Y81417D01*
G01X44853Y81503D01*
G01X44833Y81679D01*
G01X44801Y81946D01*
G01X44779Y82124D01*
G01X44769Y82213D01*
G01X44759Y82300D01*
G01X44748Y82388D01*
G01X44738Y82475D01*
G01X44718Y82645D01*
G01X44709Y82728D01*
G01X44699Y82809D01*
G01X44690Y82890D01*
G01X44681Y82968D01*
G01X44673Y83045D01*
G01X44664Y83119D01*
G01X44656Y83192D01*
G01X44648Y83262D01*
G01X44641Y83329D01*
G01X44633Y83394D01*
G01X44626Y83456D01*
G01X44620Y83515D01*
G01X44614Y83570D01*
G01X44608Y83623D01*
G01X44603Y83672D01*
G01X44598Y83717D01*
G01X44594Y83759D01*
G01X44590Y83796D01*
G01X44587Y83830D01*
G01X44585Y83859D01*
G01X44582Y83884D01*
G01X44581Y83905D01*
G01X44580Y83921D01*
G01X44580Y83932D01*
G01X44573Y84031D01*
G01X44557Y84129D01*
G01X44533Y84216D01*
G01X44505Y84278D01*
G37*

%LPC*%
G36*
G01X38238Y48600D02*
G01X38361Y48758D01*
G01X35850Y47070D01*
G01X36052Y46758D01*
G01X36094Y46695D01*
G01X36135Y46637D01*
G01X36174Y46583D01*
G01X36210Y46537D01*
G01X36243Y46499D01*
G01X36270Y46470D01*
G01X36292Y46451D01*
G01X36306Y46444D01*
G01X36313Y46448D01*
G01X36326Y46457D01*
G01X36344Y46473D01*
G01X36368Y46496D01*
G01X36396Y46523D01*
G01X36429Y46556D01*
G01X36466Y46594D01*
G01X36507Y46637D01*
G01X36552Y46685D01*
G01X36601Y46737D01*
G01X36653Y46794D01*
G01X36709Y46854D01*
G01X36767Y46918D01*
G01X36828Y46985D01*
G01X36891Y47055D01*
G01X36957Y47128D01*
G01X37025Y47204D01*
G01X37094Y47281D01*
G01X37236Y47443D01*
G01X37297Y47512D01*
G01X37356Y47580D01*
G01X37416Y47647D01*
G01X37474Y47714D01*
G01X37531Y47780D01*
G01X37587Y47844D01*
G01X37642Y47907D01*
G01X37696Y47969D01*
G01X37748Y48028D01*
G01X37798Y48086D01*
G01X37847Y48142D01*
G01X37893Y48196D01*
G01X37937Y48247D01*
G01X37979Y48295D01*
G01X38019Y48341D01*
G01X38056Y48384D01*
G01X38090Y48424D01*
G01X38121Y48461D01*
G01X38149Y48494D01*
G01X38174Y48523D01*
G01X38196Y48548D01*
G01X38213Y48570D01*
G01X38238Y48600D01*
G37*
G36*
G01X51838Y48716D02*
G01X51827Y48721D01*
G01X51822Y48720D01*
G01X51824Y48711D01*
G01X51831Y48696D01*
G01X51844Y48674D01*
G01X51863Y48647D01*
G01X51887Y48615D01*
G01X51916Y48577D01*
G01X51950Y48534D01*
G01X51988Y48486D01*
G01X52030Y48435D01*
G01X52078Y48379D01*
G01X52128Y48319D01*
G01X52182Y48256D01*
G01X52240Y48190D01*
G01X52301Y48121D01*
G01X52343Y48073D01*
G01X52386Y48024D01*
G01X52431Y47974D01*
G01X52476Y47923D01*
G01X52522Y47871D01*
G01X52616Y47764D01*
G01X52805Y47549D01*
G01X52851Y47495D01*
G01X52897Y47442D01*
G01X52942Y47390D01*
G01X52987Y47339D01*
G01X53031Y47289D01*
G01X53073Y47240D01*
G01X53114Y47193D01*
G01X53154Y47146D01*
G01X53192Y47102D01*
G01X53228Y47060D01*
G01X53262Y47020D01*
G01X53294Y46983D01*
G01X53324Y46948D01*
G01X53381Y46881D01*
G01X53437Y46817D01*
G01X53491Y46756D01*
G01X53542Y46699D01*
G01X53590Y46646D01*
G01X53635Y46598D01*
G01X53676Y46556D01*
G01X53711Y46520D01*
G01X53742Y46490D01*
G01X53766Y46469D01*
G01X53784Y46455D01*
G01X53795Y46449D01*
G01X53810Y46454D01*
G01X53831Y46469D01*
G01X53859Y46493D01*
G01X53892Y46526D01*
G01X53928Y46566D01*
G01X53968Y46612D01*
G01X54009Y46663D01*
G01X54051Y46719D01*
G01X54092Y46775D01*
G01X54130Y46829D01*
G01X54164Y46881D01*
G01X54194Y46927D01*
G01X54219Y46968D01*
G01X54238Y47002D01*
G01X54250Y47027D01*
G01X54254Y47042D01*
G01X54252Y47047D01*
G01X54245Y47054D01*
G01X54233Y47065D01*
G01X54216Y47078D01*
G01X54195Y47095D01*
G01X54171Y47114D01*
G01X54142Y47135D01*
G01X54109Y47160D01*
G01X54073Y47186D01*
G01X54033Y47215D01*
G01X53991Y47246D01*
G01X53946Y47279D01*
G01X53897Y47314D01*
G01X53845Y47351D01*
G01X53792Y47389D01*
G01X53736Y47428D01*
G01X53678Y47469D01*
G01X53618Y47511D01*
G01X53556Y47554D01*
G01X53493Y47599D01*
G01X53429Y47644D01*
G01X53363Y47689D01*
G01X53229Y47783D01*
G01X53161Y47830D01*
G01X53092Y47877D01*
G01X53023Y47925D01*
G01X52885Y48020D01*
G01X52816Y48066D01*
G01X52748Y48113D01*
G01X52681Y48159D01*
G01X52614Y48204D01*
G01X52549Y48249D01*
G01X52484Y48292D01*
G01X52421Y48335D01*
G01X52360Y48376D01*
G01X52300Y48416D01*
G01X52242Y48455D01*
G01X52186Y48492D01*
G01X52132Y48527D01*
G01X52082Y48561D01*
G01X52033Y48592D01*
G01X51988Y48622D01*
G01X51946Y48648D01*
G01X51906Y48673D01*
G01X51870Y48696D01*
G01X51838Y48716D01*
G37*
G36*
G01X36430Y49608D02*
G01X35349Y50676D01*
G01X35408Y50118D01*
G01X35412Y50083D01*
G01X35416Y50045D01*
G01X35420Y50004D01*
G01X35425Y49960D01*
G01X35431Y49913D01*
G01X35437Y49863D01*
G01X35443Y49811D01*
G01X35449Y49756D01*
G01X35456Y49700D01*
G01X35463Y49641D01*
G01X35471Y49580D01*
G01X35478Y49518D01*
G01X35486Y49454D01*
G01X35502Y49322D01*
G01X35511Y49254D01*
G01X35519Y49185D01*
G01X35537Y49046D01*
G01X35546Y48976D01*
G01X35554Y48905D01*
G01X35573Y48764D01*
G01X35600Y48554D01*
G01X35618Y48418D01*
G01X35769Y47276D01*
G01X36012Y47432D01*
G01X36040Y47450D01*
G01X36112Y47498D01*
G01X36155Y47526D01*
G01X36254Y47592D01*
G01X36309Y47629D01*
G01X36367Y47668D01*
G01X36427Y47708D01*
G01X36489Y47750D01*
G01X36553Y47794D01*
G01X36618Y47837D01*
G01X36814Y47971D01*
G01X36879Y48016D01*
G01X36964Y48074D01*
G01X37045Y48131D01*
G01X37122Y48186D01*
G01X37195Y48238D01*
G01X37261Y48287D01*
G01X37322Y48332D01*
G01X37375Y48373D01*
G01X37420Y48409D01*
G01X37457Y48439D01*
G01X37484Y48463D01*
G01X37501Y48481D01*
G01X37507Y48492D01*
G01X37505Y48497D01*
G01X37498Y48508D01*
G01X37486Y48523D01*
G01X37470Y48542D01*
G01X37448Y48566D01*
G01X37423Y48594D01*
G01X37394Y48626D01*
G01X37361Y48662D01*
G01X37324Y48701D01*
G01X37283Y48744D01*
G01X37239Y48790D01*
G01X37192Y48839D01*
G01X37141Y48891D01*
G01X37088Y48946D01*
G01X37032Y49003D01*
G01X36974Y49063D01*
G01X36912Y49125D01*
G01X36849Y49189D01*
G01X36783Y49255D01*
G01X36716Y49323D01*
G01X36576Y49463D01*
G01X36503Y49534D01*
G01X36430Y49608D01*
G37*
G36*
G01X54766Y50304D02*
G01X54820Y50676D01*
G01X53746Y49607D01*
G01X53601Y49462D01*
G01X53531Y49391D01*
G01X53462Y49322D01*
G01X53396Y49254D01*
G01X53331Y49187D01*
G01X53268Y49122D01*
G01X53208Y49059D01*
G01X53151Y48999D01*
G01X53096Y48941D01*
G01X53044Y48885D01*
G01X52995Y48832D01*
G01X52949Y48782D01*
G01X52906Y48735D01*
G01X52867Y48691D01*
G01X52831Y48651D01*
G01X52799Y48614D01*
G01X52772Y48581D01*
G01X52728Y48526D01*
G01X52713Y48505D01*
G01X52702Y48489D01*
G01X52697Y48477D01*
G01X52696Y48470D01*
G01X52703Y48458D01*
G01X52719Y48441D01*
G01X52743Y48419D01*
G01X52774Y48393D01*
G01X52811Y48362D01*
G01X52855Y48327D01*
G01X52905Y48289D01*
G01X52959Y48248D01*
G01X53018Y48203D01*
G01X53081Y48157D01*
G01X53147Y48108D01*
G01X53217Y48058D01*
G01X53288Y48007D01*
G01X53361Y47955D01*
G01X53436Y47902D01*
G01X53510Y47850D01*
G01X53660Y47746D01*
G01X53733Y47696D01*
G01X53805Y47648D01*
G01X53874Y47601D01*
G01X53941Y47557D01*
G01X54004Y47515D01*
G01X54064Y47477D01*
G01X54119Y47442D01*
G01X54169Y47410D01*
G01X54213Y47384D01*
G01X54252Y47362D01*
G01X54283Y47345D01*
G01X54308Y47333D01*
G01X54324Y47328D01*
G01X54333Y47328D01*
G01X54336Y47335D01*
G01X54340Y47350D01*
G01X54345Y47373D01*
G01X54351Y47404D01*
G01X54359Y47441D01*
G01X54366Y47486D01*
G01X54375Y47538D01*
G01X54384Y47595D01*
G01X54395Y47659D01*
G01X54406Y47728D01*
G01X54417Y47802D01*
G01X54429Y47881D01*
G01X54442Y47964D01*
G01X54455Y48052D01*
G01X54468Y48144D01*
G01X54481Y48239D01*
G01X54495Y48336D01*
G01X54509Y48437D01*
G01X54524Y48540D01*
G01X54538Y48645D01*
G01X54548Y48721D01*
G01X54559Y48797D01*
G01X54569Y48874D01*
G01X54579Y48949D01*
G01X54590Y49025D01*
G01X54610Y49174D01*
G01X54620Y49248D01*
G01X54630Y49321D01*
G01X54639Y49392D01*
G01X54649Y49462D01*
G01X54659Y49531D01*
G01X54668Y49598D01*
G01X54677Y49663D01*
G01X54686Y49726D01*
G01X54694Y49788D01*
G01X54702Y49847D01*
G01X54710Y49904D01*
G01X54718Y49958D01*
G01X54725Y50009D01*
G01X54731Y50058D01*
G01X54738Y50103D01*
G01X54744Y50146D01*
G01X54754Y50220D01*
G01X54758Y50252D01*
G01X54762Y50280D01*
G01X54766Y50304D01*
G37*
G36*
G01X36844Y55544D02*
G01X36825Y55546D01*
G01X36817Y55544D01*
G01X36811Y55532D01*
G01X36807Y55519D01*
G01X36800Y55502D01*
G01X36792Y55481D01*
G01X36783Y55456D01*
G01X36773Y55426D01*
G01X36760Y55393D01*
G01X36747Y55356D01*
G01X36733Y55315D01*
G01X36717Y55270D01*
G01X36700Y55223D01*
G01X36683Y55171D01*
G01X36663Y55116D01*
G01X36644Y55058D01*
G01X36622Y54997D01*
G01X36600Y54933D01*
G01X36577Y54866D01*
G01X36553Y54796D01*
G01X36528Y54724D01*
G01X36503Y54649D01*
G01X36476Y54571D01*
G01X36449Y54491D01*
G01X36421Y54409D01*
G01X36392Y54325D01*
G01X36362Y54239D01*
G01X36332Y54150D01*
G01X36301Y54059D01*
G01X36270Y53967D01*
G01X36238Y53873D01*
G01X36206Y53778D01*
G01X36173Y53681D01*
G01X36140Y53583D01*
G01X36072Y53383D01*
G01X36038Y53280D01*
G01X35284Y51048D01*
G01X37724Y48600D01*
G01X38363Y49024D01*
G01X39001Y49449D01*
G01X38977Y52243D01*
G01X38952Y55036D01*
G01X37897Y55305D01*
G01X37790Y55332D01*
G01X37685Y55358D01*
G01X37583Y55384D01*
G01X37486Y55407D01*
G01X37392Y55429D01*
G01X37304Y55450D01*
G01X37222Y55469D01*
G01X37145Y55486D01*
G01X37075Y55501D01*
G01X37012Y55515D01*
G01X36957Y55525D01*
G01X36910Y55534D01*
G01X36872Y55541D01*
G01X36844Y55544D01*
G37*
G36*
G01X53328Y55493D02*
G01X53262Y55565D01*
G01X52223Y55310D01*
G01X51185Y55055D01*
G01X51164Y52982D01*
G01X51163Y52903D01*
G01X51163Y52825D01*
G01X51162Y52747D01*
G01X51161Y52668D01*
G01X51160Y52590D01*
G01X51160Y52511D01*
G01X51159Y52433D01*
G01X51158Y52354D01*
G01X51157Y52276D01*
G01X51157Y52198D01*
G01X51156Y52120D01*
G01X51155Y51966D01*
G01X51153Y51814D01*
G01X51153Y51739D01*
G01X51152Y51664D01*
G01X51151Y51591D01*
G01X51151Y51519D01*
G01X51150Y51447D01*
G01X51149Y51376D01*
G01X51148Y51307D01*
G01X51148Y51238D01*
G01X51147Y51171D01*
G01X51147Y51106D01*
G01X51146Y51041D01*
G01X51146Y50978D01*
G01X51145Y50916D01*
G01X51145Y50856D01*
G01X51144Y50798D01*
G01X51144Y50687D01*
G01X51143Y50633D01*
G01X51143Y50533D01*
G01X51142Y50486D01*
G01X51142Y50399D01*
G01X51141Y50358D01*
G01X51141Y50191D01*
G01X51138Y49474D01*
G01X51696Y49078D01*
G01X51773Y49025D01*
G01X51848Y48973D01*
G01X51921Y48924D01*
G01X51990Y48879D01*
G01X52057Y48836D01*
G01X52118Y48798D01*
G01X52175Y48764D01*
G01X52225Y48735D01*
G01X52268Y48711D01*
G01X52304Y48694D01*
G01X52331Y48683D01*
G01X52349Y48679D01*
G01X52357Y48681D01*
G01X52368Y48687D01*
G01X52383Y48697D01*
G01X52402Y48710D01*
G01X52425Y48727D01*
G01X52451Y48748D01*
G01X52480Y48772D01*
G01X52512Y48800D01*
G01X52548Y48831D01*
G01X52586Y48865D01*
G01X52627Y48901D01*
G01X52671Y48941D01*
G01X52718Y48984D01*
G01X52767Y49029D01*
G01X52818Y49077D01*
G01X52872Y49127D01*
G01X52927Y49179D01*
G01X52984Y49234D01*
G01X53044Y49290D01*
G01X53105Y49349D01*
G01X53167Y49409D01*
G01X53231Y49471D01*
G01X53297Y49535D01*
G01X53363Y49600D01*
G01X53431Y49668D01*
G01X53500Y49735D01*
G01X53639Y49874D01*
G01X54835Y51073D01*
G01X54115Y53246D01*
G01X54082Y53346D01*
G01X54049Y53444D01*
G01X54017Y53541D01*
G01X53985Y53637D01*
G01X53953Y53732D01*
G01X53921Y53826D01*
G01X53890Y53917D01*
G01X53860Y54007D01*
G01X53830Y54096D01*
G01X53800Y54183D01*
G01X53771Y54268D01*
G01X53743Y54351D01*
G01X53715Y54433D01*
G01X53687Y54511D01*
G01X53661Y54588D01*
G01X53636Y54662D01*
G01X53610Y54734D01*
G01X53586Y54803D01*
G01X53563Y54869D01*
G01X53541Y54933D01*
G01X53519Y54994D01*
G01X53499Y55052D01*
G01X53479Y55107D01*
G01X53460Y55158D01*
G01X53443Y55207D01*
G01X53426Y55251D01*
G01X53411Y55293D01*
G01X53396Y55331D01*
G01X53383Y55365D01*
G01X53372Y55396D01*
G01X53361Y55422D01*
G01X53352Y55444D01*
G01X53344Y55463D01*
G01X53337Y55478D01*
G01X53332Y55487D01*
G01X53328Y55493D01*
G37*
G36*
G01X50899Y52374D02*
G01X50891Y54583D01*
G01X50437Y53627D01*
G01X49983Y52672D01*
G01X50420Y51418D01*
G01X50456Y51316D01*
G01X50491Y51215D01*
G01X50525Y51118D01*
G01X50559Y51023D01*
G01X50592Y50931D01*
G01X50623Y50843D01*
G01X50653Y50759D01*
G01X50682Y50679D01*
G01X50710Y50603D01*
G01X50735Y50533D01*
G01X50760Y50467D01*
G01X50782Y50407D01*
G01X50803Y50353D01*
G01X50821Y50305D01*
G01X50837Y50263D01*
G01X50851Y50228D01*
G01X50862Y50201D01*
G01X50872Y50181D01*
G01X50878Y50168D01*
G01X50881Y50164D01*
G01X50882Y50166D01*
G01X50883Y50173D01*
G01X50884Y50185D01*
G01X50885Y50200D01*
G01X50886Y50220D01*
G01X50887Y50244D01*
G01X50888Y50272D01*
G01X50889Y50303D01*
G01X50890Y50339D01*
G01X50891Y50378D01*
G01X50892Y50421D01*
G01X50892Y50467D01*
G01X50893Y50517D01*
G01X50894Y50570D01*
G01X50894Y50626D01*
G01X50895Y50686D01*
G01X50896Y50748D01*
G01X50897Y50813D01*
G01X50897Y50881D01*
G01X50898Y50952D01*
G01X50898Y51102D01*
G01X50899Y51180D01*
G01X50899Y51516D01*
G01X50900Y51605D01*
G01X50900Y51882D01*
G01X50899Y51978D01*
G01X50899Y52374D01*
G37*
G36*
G01X39236Y54531D02*
G01X39228Y54536D01*
G01X39226Y54534D01*
G01X39224Y54528D01*
G01X39222Y54516D01*
G01X39220Y54501D01*
G01X39218Y54481D01*
G01X39216Y54457D01*
G01X39215Y54430D01*
G01X39213Y54398D01*
G01X39211Y54362D01*
G01X39209Y54323D01*
G01X39207Y54281D01*
G01X39206Y54234D01*
G01X39204Y54185D01*
G01X39203Y54132D01*
G01X39201Y54076D01*
G01X39200Y54017D01*
G01X39199Y53955D01*
G01X39197Y53890D01*
G01X39196Y53822D01*
G01X39195Y53751D01*
G01X39194Y53678D01*
G01X39193Y53602D01*
G01X39192Y53524D01*
G01X39191Y53443D01*
G01X39190Y53361D01*
G01X39189Y53276D01*
G01X39188Y53189D01*
G01X39188Y53101D01*
G01X39187Y53011D01*
G01X39186Y52918D01*
G01X39186Y52729D01*
G01X39185Y52633D01*
G01X39185Y52037D01*
G01X39186Y51941D01*
G01X39186Y51753D01*
G01X39187Y51661D01*
G01X39187Y51571D01*
G01X39188Y51483D01*
G01X39189Y51397D01*
G01X39190Y51313D01*
G01X39190Y51232D01*
G01X39191Y51152D01*
G01X39192Y51075D01*
G01X39193Y51000D01*
G01X39194Y50928D01*
G01X39195Y50859D01*
G01X39197Y50792D01*
G01X39198Y50728D01*
G01X39199Y50667D01*
G01X39201Y50609D01*
G01X39202Y50555D01*
G01X39203Y50503D01*
G01X39205Y50455D01*
G01X39206Y50411D01*
G01X39208Y50370D01*
G01X39209Y50332D01*
G01X39212Y50298D01*
G01X39213Y50268D01*
G01X39215Y50242D01*
G01X39217Y50220D01*
G01X39218Y50202D01*
G01X39220Y50189D01*
G01X39222Y50180D01*
G01X39224Y50175D01*
G01X39226Y50174D01*
G01X39230Y50181D01*
G01X39238Y50196D01*
G01X39248Y50218D01*
G01X39275Y50281D01*
G01X39292Y50322D01*
G01X39311Y50369D01*
G01X39332Y50421D01*
G01X39355Y50479D01*
G01X39379Y50542D01*
G01X39405Y50609D01*
G01X39432Y50680D01*
G01X39461Y50756D01*
G01X39491Y50835D01*
G01X39523Y50918D01*
G01X39555Y51003D01*
G01X39588Y51091D01*
G01X39621Y51181D01*
G01X39656Y51274D01*
G01X39691Y51368D01*
G01X39726Y51463D01*
G01X39759Y51557D01*
G01X39792Y51648D01*
G01X39825Y51738D01*
G01X39856Y51826D01*
G01X39885Y51910D01*
G01X39914Y51993D01*
G01X39941Y52071D01*
G01X39966Y52146D01*
G01X39990Y52217D01*
G01X40013Y52284D01*
G01X40033Y52346D01*
G01X40051Y52404D01*
G01X40067Y52455D01*
G01X40081Y52502D01*
G01X40093Y52542D01*
G01X40103Y52576D01*
G01X40109Y52604D01*
G01X40114Y52625D01*
G01X40115Y52638D01*
G01X40113Y52655D01*
G01X40106Y52681D01*
G01X40094Y52716D01*
G01X40079Y52758D01*
G01X40060Y52808D01*
G01X40039Y52863D01*
G01X40013Y52925D01*
G01X39985Y52992D01*
G01X39955Y53063D01*
G01X39922Y53138D01*
G01X39887Y53217D01*
G01X39851Y53298D01*
G01X39813Y53382D01*
G01X39774Y53466D01*
G01X39735Y53552D01*
G01X39695Y53638D01*
G01X39615Y53808D01*
G01X39575Y53891D01*
G01X39536Y53971D01*
G01X39499Y54049D01*
G01X39426Y54193D01*
G01X39393Y54259D01*
G01X39362Y54319D01*
G01X39333Y54373D01*
G01X39307Y54420D01*
G01X39284Y54461D01*
G01X39264Y54493D01*
G01X39248Y54516D01*
G01X39236Y54531D01*
G37*
G36*
G01X39036Y56183D02*
G01X39034Y56183D01*
G01X39032Y56169D01*
G01X39033Y56137D01*
G01X39038Y56090D01*
G01X39046Y56027D01*
G01X39057Y55954D01*
G01X39071Y55869D01*
G01X39086Y55777D01*
G01X39103Y55679D01*
G01X39192Y55195D01*
G01X40328Y52845D01*
G01X40710Y52905D01*
G01X40752Y52912D01*
G01X40801Y52920D01*
G01X40854Y52930D01*
G01X40912Y52941D01*
G01X40975Y52953D01*
G01X41041Y52965D01*
G01X41109Y52979D01*
G01X41181Y52994D01*
G01X41255Y53009D01*
G01X41330Y53025D01*
G01X41482Y53057D01*
G01X41557Y53074D01*
G01X41633Y53090D01*
G01X41706Y53107D01*
G01X41778Y53123D01*
G01X42465Y53282D01*
G01X40759Y54742D01*
G01X40681Y54809D01*
G01X40604Y54875D01*
G01X40528Y54940D01*
G01X40453Y55004D01*
G01X40378Y55067D01*
G01X40306Y55129D01*
G01X40234Y55189D01*
G01X40164Y55249D01*
G01X40094Y55308D01*
G01X40027Y55365D01*
G01X39961Y55421D01*
G01X39896Y55475D01*
G01X39834Y55528D01*
G01X39773Y55579D01*
G01X39713Y55629D01*
G01X39657Y55677D01*
G01X39601Y55723D01*
G01X39548Y55768D01*
G01X39497Y55810D01*
G01X39448Y55851D01*
G01X39402Y55890D01*
G01X39357Y55926D01*
G01X39316Y55961D01*
G01X39277Y55993D01*
G01X39240Y56023D01*
G01X39206Y56050D01*
G01X39175Y56075D01*
G01X39147Y56098D01*
G01X39122Y56118D01*
G01X39100Y56136D01*
G01X39080Y56151D01*
G01X39065Y56163D01*
G01X39051Y56172D01*
G01X39042Y56179D01*
G01X39036Y56183D01*
G37*
G36*
G01X44952Y52862D02*
G01X44952Y54744D01*
G01X44650Y54515D01*
G01X44623Y54495D01*
G01X44592Y54472D01*
G01X44557Y54446D01*
G01X44519Y54417D01*
G01X44478Y54386D01*
G01X44434Y54354D01*
G01X44387Y54319D01*
G01X44338Y54283D01*
G01X44286Y54245D01*
G01X44234Y54205D01*
G01X44179Y54165D01*
G01X44122Y54124D01*
G01X44065Y54082D01*
G01X44008Y54039D01*
G01X43949Y53997D01*
G01X43831Y53910D01*
G01X43714Y53825D01*
G01X43657Y53783D01*
G01X42966Y53280D01*
G01X43796Y53081D01*
G01X43882Y53060D01*
G01X43966Y53041D01*
G01X44050Y53021D01*
G01X44131Y53003D01*
G01X44211Y52985D01*
G01X44287Y52967D01*
G01X44361Y52952D01*
G01X44431Y52937D01*
G01X44496Y52923D01*
G01X44556Y52911D01*
G01X44612Y52900D01*
G01X44661Y52891D01*
G01X44704Y52883D01*
G01X44740Y52878D01*
G01X44769Y52874D01*
G01X44789Y52871D01*
G01X44952Y52862D01*
G37*
G36*
G01X45255Y54663D02*
G01X45138Y54733D01*
G01X45138Y52862D01*
G01X45270Y52862D01*
G01X45288Y52863D01*
G01X45314Y52866D01*
G01X45347Y52870D01*
G01X45387Y52877D01*
G01X45433Y52886D01*
G01X45485Y52895D01*
G01X45543Y52907D01*
G01X45605Y52919D01*
G01X45672Y52933D01*
G01X45743Y52948D01*
G01X45817Y52964D01*
G01X45895Y52981D01*
G01X45975Y52999D01*
G01X46056Y53017D01*
G01X46140Y53037D01*
G01X46224Y53056D01*
G01X46335Y53083D01*
G01X46442Y53109D01*
G01X46545Y53135D01*
G01X46642Y53158D01*
G01X46731Y53181D01*
G01X46813Y53202D01*
G01X46885Y53221D01*
G01X46947Y53239D01*
G01X46999Y53253D01*
G01X47037Y53265D01*
G01X47063Y53274D01*
G01X47075Y53280D01*
G01X47073Y53284D01*
G01X47065Y53295D01*
G01X47050Y53309D01*
G01X47029Y53328D01*
G01X47002Y53352D01*
G01X46970Y53378D01*
G01X46932Y53409D01*
G01X46890Y53443D01*
G01X46843Y53481D01*
G01X46792Y53521D01*
G01X46739Y53564D01*
G01X46681Y53609D01*
G01X46620Y53656D01*
G01X46557Y53705D01*
G01X46492Y53755D01*
G01X46425Y53807D01*
G01X46356Y53860D01*
G01X46286Y53913D01*
G01X46145Y54020D01*
G01X46003Y54126D01*
G01X45934Y54178D01*
G01X45865Y54229D01*
G01X45798Y54279D01*
G01X45732Y54327D01*
G01X45669Y54374D01*
G01X45608Y54418D01*
G01X45550Y54459D01*
G01X45495Y54499D01*
G01X45444Y54535D01*
G01X45396Y54568D01*
G01X45354Y54598D01*
G01X45315Y54624D01*
G01X45282Y54645D01*
G01X45255Y54663D01*
G37*
G36*
G01X51052Y55784D02*
G01X51118Y56241D01*
G01X49453Y54816D01*
G01X49378Y54751D01*
G01X49302Y54686D01*
G01X49228Y54622D01*
G01X49154Y54559D01*
G01X49081Y54497D01*
G01X48939Y54375D01*
G01X48870Y54315D01*
G01X48802Y54257D01*
G01X48734Y54200D01*
G01X48669Y54144D01*
G01X48605Y54089D01*
G01X48542Y54035D01*
G01X48482Y53983D01*
G01X48423Y53933D01*
G01X48366Y53883D01*
G01X48310Y53836D01*
G01X48256Y53790D01*
G01X48205Y53746D01*
G01X48156Y53704D01*
G01X48109Y53663D01*
G01X48063Y53625D01*
G01X48021Y53588D01*
G01X47981Y53554D01*
G01X47943Y53522D01*
G01X47908Y53492D01*
G01X47875Y53464D01*
G01X47846Y53438D01*
G01X47819Y53416D01*
G01X47795Y53395D01*
G01X47774Y53377D01*
G01X47756Y53361D01*
G01X47741Y53348D01*
G01X47729Y53338D01*
G01X47721Y53331D01*
G01X47716Y53327D01*
G01X47642Y53264D01*
G01X48506Y53075D01*
G01X48596Y53056D01*
G01X48684Y53037D01*
G01X48772Y53019D01*
G01X48858Y53001D01*
G01X48942Y52984D01*
G01X49023Y52967D01*
G01X49101Y52952D01*
G01X49175Y52938D01*
G01X49245Y52925D01*
G01X49310Y52913D01*
G01X49424Y52894D01*
G01X49471Y52886D01*
G01X49511Y52881D01*
G01X49544Y52877D01*
G01X49569Y52874D01*
G01X49767Y52862D01*
G01X49855Y52978D01*
G01X49864Y52991D01*
G01X49876Y53012D01*
G01X49892Y53039D01*
G01X49910Y53072D01*
G01X49931Y53111D01*
G01X49955Y53156D01*
G01X49981Y53207D01*
G01X50039Y53323D01*
G01X50071Y53388D01*
G01X50106Y53457D01*
G01X50141Y53530D01*
G01X50178Y53607D01*
G01X50217Y53686D01*
G01X50256Y53768D01*
G01X50297Y53853D01*
G01X50338Y53940D01*
G01X50380Y54029D01*
G01X50423Y54119D01*
G01X50466Y54211D01*
G01X50988Y55327D01*
G01X51052Y55784D01*
G37*
G36*
G01X47779Y56782D02*
G01X47165Y59272D01*
G01X46151Y58764D01*
G01X45138Y58256D01*
G01X45138Y55038D01*
G01X47417Y53357D01*
G01X47905Y53772D01*
G01X47971Y53829D01*
G01X48035Y53884D01*
G01X48095Y53937D01*
G01X48152Y53988D01*
G01X48204Y54036D01*
G01X48250Y54081D01*
G01X48292Y54121D01*
G01X48327Y54156D01*
G01X48356Y54186D01*
G01X48376Y54211D01*
G01X48390Y54228D01*
G01X48394Y54240D01*
G01X48394Y54244D01*
G01X48392Y54252D01*
G01X48390Y54264D01*
G01X48386Y54281D01*
G01X48381Y54301D01*
G01X48376Y54325D01*
G01X48370Y54352D01*
G01X48363Y54383D01*
G01X48354Y54418D01*
G01X48345Y54456D01*
G01X48336Y54498D01*
G01X48325Y54543D01*
G01X48314Y54591D01*
G01X48302Y54641D01*
G01X48288Y54696D01*
G01X48275Y54753D01*
G01X48261Y54813D01*
G01X48246Y54875D01*
G01X48230Y54940D01*
G01X48213Y55008D01*
G01X48197Y55078D01*
G01X48179Y55151D01*
G01X48160Y55227D01*
G01X48142Y55304D01*
G01X48122Y55384D01*
G01X48103Y55465D01*
G01X48082Y55549D01*
G01X48061Y55634D01*
G01X48040Y55722D01*
G01X48018Y55811D01*
G01X47996Y55902D01*
G01X47973Y55995D01*
G01X47950Y56089D01*
G01X47927Y56184D01*
G01X47903Y56281D01*
G01X47879Y56379D01*
G01X47854Y56478D01*
G01X47830Y56578D01*
G01X47804Y56680D01*
G01X47779Y56782D01*
G37*
G36*
G01X43970Y58792D02*
G01X42989Y59271D01*
G01X42949Y59160D01*
G01X42947Y59153D01*
G01X42944Y59143D01*
G01X42941Y59129D01*
G01X42936Y59111D01*
G01X42930Y59090D01*
G01X42923Y59066D01*
G01X42916Y59039D01*
G01X42908Y59008D01*
G01X42900Y58974D01*
G01X42890Y58936D01*
G01X42879Y58896D01*
G01X42869Y58853D01*
G01X42857Y58807D01*
G01X42844Y58758D01*
G01X42831Y58706D01*
G01X42817Y58653D01*
G01X42803Y58596D01*
G01X42788Y58537D01*
G01X42773Y58475D01*
G01X42756Y58411D01*
G01X42740Y58345D01*
G01X42723Y58277D01*
G01X42705Y58206D01*
G01X42687Y58134D01*
G01X42668Y58060D01*
G01X42649Y57984D01*
G01X42630Y57906D01*
G01X42590Y57745D01*
G01X42548Y57579D01*
G01X42527Y57493D01*
G01X42505Y57406D01*
G01X42484Y57318D01*
G01X42461Y57229D01*
G01X42439Y57139D01*
G01X42416Y57048D01*
G01X42394Y56955D01*
G01X42371Y56862D01*
G01X42347Y56769D01*
G01X42325Y56675D01*
G01X42301Y56582D01*
G01X42278Y56490D01*
G01X42234Y56308D01*
G01X42211Y56219D01*
G01X42189Y56130D01*
G01X42168Y56043D01*
G01X42146Y55957D01*
G01X42125Y55873D01*
G01X42105Y55789D01*
G01X42084Y55708D01*
G01X42064Y55627D01*
G01X42045Y55549D01*
G01X42026Y55472D01*
G01X41921Y55052D01*
G01X41905Y54989D01*
G01X41890Y54929D01*
G01X41875Y54871D01*
G01X41861Y54816D01*
G01X41848Y54763D01*
G01X41835Y54713D01*
G01X41824Y54666D01*
G01X41812Y54622D01*
G01X41802Y54580D01*
G01X41792Y54542D01*
G01X41783Y54507D01*
G01X41774Y54475D01*
G01X41767Y54446D01*
G01X41760Y54420D01*
G01X41755Y54398D01*
G01X41749Y54379D01*
G01X41745Y54363D01*
G01X41742Y54352D01*
G01X41740Y54344D01*
G01X41695Y54198D01*
G01X42173Y53809D01*
G01X42239Y53757D01*
G01X42303Y53706D01*
G01X42365Y53658D01*
G01X42425Y53613D01*
G01X42482Y53572D01*
G01X42534Y53534D01*
G01X42583Y53501D01*
G01X42626Y53473D01*
G01X42663Y53451D01*
G01X42693Y53434D01*
G01X42716Y53424D01*
G01X42731Y53420D01*
G01X42739Y53422D01*
G01X42752Y53427D01*
G01X42769Y53436D01*
G01X42791Y53449D01*
G01X42817Y53464D01*
G01X42847Y53483D01*
G01X42881Y53504D01*
G01X42918Y53529D01*
G01X42960Y53556D01*
G01X43004Y53587D01*
G01X43051Y53619D01*
G01X43102Y53654D01*
G01X43156Y53691D01*
G01X43212Y53731D01*
G01X43270Y53772D01*
G01X43331Y53815D01*
G01X43394Y53860D01*
G01X43460Y53907D01*
G01X43526Y53956D01*
G01X43595Y54005D01*
G01X43665Y54056D01*
G01X43736Y54108D01*
G01X43808Y54162D01*
G01X43882Y54216D01*
G01X44952Y55012D01*
G01X44952Y58313D01*
G01X43970Y58792D01*
G37*
G36*
G01X47485Y59050D02*
G01X47482Y59051D01*
G01X47481Y59047D01*
G01X47481Y59040D01*
G01X47482Y59029D01*
G01X47483Y59014D01*
G01X47486Y58995D01*
G01X47490Y58974D01*
G01X47494Y58948D01*
G01X47500Y58920D01*
G01X47506Y58888D01*
G01X47513Y58852D01*
G01X47521Y58814D01*
G01X47530Y58772D01*
G01X47539Y58728D01*
G01X47549Y58681D01*
G01X47560Y58631D01*
G01X47572Y58578D01*
G01X47584Y58522D01*
G01X47597Y58464D01*
G01X47610Y58404D01*
G01X47625Y58341D01*
G01X47640Y58275D01*
G01X47655Y58207D01*
G01X47672Y58137D01*
G01X47689Y58065D01*
G01X47706Y57991D01*
G01X47724Y57915D01*
G01X47742Y57837D01*
G01X47761Y57757D01*
G01X47780Y57676D01*
G01X47800Y57592D01*
G01X47821Y57507D01*
G01X47841Y57421D01*
G01X47863Y57333D01*
G01X47884Y57244D01*
G01X47906Y57154D01*
G01X47928Y57062D01*
G01X47951Y56970D01*
G01X47975Y56876D01*
G01X47998Y56782D01*
G01X48021Y56686D01*
G01X48598Y54358D01*
G01X49849Y55436D01*
G01X49922Y55499D01*
G01X49994Y55561D01*
G01X50064Y55623D01*
G01X50134Y55683D01*
G01X50201Y55743D01*
G01X50267Y55801D01*
G01X50332Y55857D01*
G01X50394Y55912D01*
G01X50454Y55966D01*
G01X50512Y56018D01*
G01X50568Y56068D01*
G01X50622Y56116D01*
G01X50674Y56162D01*
G01X50722Y56206D01*
G01X50768Y56249D01*
G01X50811Y56288D01*
G01X50851Y56325D01*
G01X50888Y56360D01*
G01X50922Y56392D01*
G01X50953Y56422D01*
G01X50980Y56448D01*
G01X51025Y56493D01*
G01X51041Y56510D01*
G01X51054Y56524D01*
G01X51062Y56535D01*
G01X51067Y56542D01*
G01X51067Y56546D01*
G01X51058Y56554D01*
G01X51044Y56566D01*
G01X51027Y56579D01*
G01X51006Y56596D01*
G01X50981Y56615D01*
G01X50953Y56637D01*
G01X50921Y56661D01*
G01X50886Y56687D01*
G01X50848Y56715D01*
G01X50807Y56745D01*
G01X50763Y56778D01*
G01X50716Y56812D01*
G01X50666Y56848D01*
G01X50614Y56886D01*
G01X50559Y56925D01*
G01X50502Y56966D01*
G01X50443Y57009D01*
G01X50381Y57053D01*
G01X50318Y57098D01*
G01X50253Y57144D01*
G01X50187Y57192D01*
G01X50119Y57240D01*
G01X50049Y57290D01*
G01X49978Y57340D01*
G01X49906Y57391D01*
G01X49833Y57442D01*
G01X49759Y57494D01*
G01X49684Y57547D01*
G01X49608Y57600D01*
G01X49456Y57708D01*
G01X49379Y57761D01*
G01X49148Y57923D01*
G01X48995Y58030D01*
G01X48919Y58083D01*
G01X48769Y58187D01*
G01X48695Y58237D01*
G01X48622Y58288D01*
G01X48551Y58338D01*
G01X48480Y58386D01*
G01X48411Y58434D01*
G01X48343Y58480D01*
G01X48277Y58526D01*
G01X48213Y58570D01*
G01X48150Y58613D01*
G01X48090Y58654D01*
G01X48031Y58694D01*
G01X47975Y58732D01*
G01X47922Y58768D01*
G01X47870Y58803D01*
G01X47821Y58836D01*
G01X47775Y58867D01*
G01X47732Y58895D01*
G01X47692Y58922D01*
G01X47655Y58947D01*
G01X47621Y58968D01*
G01X47590Y58988D01*
G01X47564Y59005D01*
G01X47540Y59020D01*
G01X47520Y59031D01*
G01X47505Y59041D01*
G01X47493Y59047D01*
G01X47485Y59050D01*
G37*
G36*
G01X42670Y59078D02*
G01X42667Y59078D01*
G01X42660Y59076D01*
G01X42650Y59071D01*
G01X42636Y59063D01*
G01X42619Y59053D01*
G01X42599Y59040D01*
G01X42575Y59025D01*
G01X42549Y59009D01*
G01X42519Y58989D01*
G01X42487Y58968D01*
G01X42451Y58945D01*
G01X42413Y58919D01*
G01X42372Y58891D01*
G01X42328Y58862D01*
G01X42282Y58830D01*
G01X42233Y58797D01*
G01X42182Y58762D01*
G01X42128Y58726D01*
G01X42073Y58688D01*
G01X42015Y58647D01*
G01X41955Y58606D01*
G01X41893Y58563D01*
G01X41829Y58519D01*
G01X41764Y58473D01*
G01X41696Y58426D01*
G01X41627Y58378D01*
G01X41556Y58328D01*
G01X41484Y58277D01*
G01X41411Y58225D01*
G01X41336Y58172D01*
G01X41260Y58119D01*
G01X41183Y58064D01*
G01X41025Y57952D01*
G01X40944Y57895D01*
G01X40863Y57837D01*
G01X39082Y56565D01*
G01X39110Y56489D01*
G01X39114Y56481D01*
G01X39124Y56470D01*
G01X39138Y56454D01*
G01X39157Y56435D01*
G01X39179Y56412D01*
G01X39205Y56386D01*
G01X39236Y56357D01*
G01X39270Y56325D01*
G01X39307Y56290D01*
G01X39348Y56253D01*
G01X39392Y56213D01*
G01X39438Y56171D01*
G01X39487Y56126D01*
G01X39539Y56080D01*
G01X39594Y56032D01*
G01X39649Y55982D01*
G01X39708Y55931D01*
G01X39768Y55878D01*
G01X39829Y55824D01*
G01X39892Y55770D01*
G01X39956Y55714D01*
G01X40021Y55657D01*
G01X40087Y55600D01*
G01X40220Y55486D01*
G01X40354Y55370D01*
G01X40421Y55313D01*
G01X40488Y55257D01*
G01X40554Y55201D01*
G01X40619Y55145D01*
G01X40684Y55090D01*
G01X40747Y55037D01*
G01X40810Y54985D01*
G01X40870Y54934D01*
G01X40930Y54885D01*
G01X40986Y54837D01*
G01X41042Y54792D01*
G01X41095Y54749D01*
G01X41145Y54707D01*
G01X41193Y54668D01*
G01X41238Y54632D01*
G01X41281Y54598D01*
G01X41320Y54568D01*
G01X41356Y54540D01*
G01X41417Y54494D01*
G01X41441Y54476D01*
G01X41461Y54462D01*
G01X41478Y54452D01*
G01X41490Y54445D01*
G01X41497Y54443D01*
G01X41561Y54443D01*
G01X42128Y56745D01*
G01X42154Y56851D01*
G01X42180Y56955D01*
G01X42205Y57057D01*
G01X42230Y57158D01*
G01X42254Y57259D01*
G01X42278Y57357D01*
G01X42301Y57454D01*
G01X42324Y57549D01*
G01X42346Y57642D01*
G01X42368Y57733D01*
G01X42390Y57822D01*
G01X42410Y57909D01*
G01X42431Y57994D01*
G01X42450Y58076D01*
G01X42469Y58157D01*
G01X42487Y58234D01*
G01X42504Y58309D01*
G01X42521Y58381D01*
G01X42537Y58449D01*
G01X42553Y58515D01*
G01X42567Y58578D01*
G01X42581Y58638D01*
G01X42593Y58694D01*
G01X42605Y58748D01*
G01X42616Y58797D01*
G01X42626Y58843D01*
G01X42635Y58885D01*
G01X42643Y58923D01*
G01X42650Y58957D01*
G01X42656Y58987D01*
G01X42661Y59014D01*
G01X42665Y59036D01*
G01X42668Y59053D01*
G01X42670Y59066D01*
G01X42670Y59078D01*
G37*
G36*
G01X37114Y59277D02*
G01X37103Y59280D01*
G01X37079Y59258D01*
G01X37045Y59195D01*
G01X37004Y59101D01*
G01X36961Y58988D01*
G01X36859Y58695D01*
G01X36859Y55783D01*
G01X37812Y55542D01*
G01X37910Y55517D01*
G01X38006Y55493D01*
G01X38100Y55469D01*
G01X38190Y55447D01*
G01X38278Y55426D01*
G01X38362Y55405D01*
G01X38441Y55386D01*
G01X38515Y55368D01*
G01X38584Y55352D01*
G01X38646Y55337D01*
G01X38702Y55324D01*
G01X38751Y55313D01*
G01X38792Y55304D01*
G01X38825Y55297D01*
G01X38850Y55293D01*
G01X38865Y55290D01*
G01X38964Y55280D01*
G01X38705Y56699D01*
G01X38669Y56893D01*
G01X38652Y56988D01*
G01X38634Y57082D01*
G01X38617Y57175D01*
G01X38600Y57266D01*
G01X38584Y57355D01*
G01X38568Y57441D01*
G01X38552Y57525D01*
G01X38537Y57607D01*
G01X38522Y57685D01*
G01X38508Y57760D01*
G01X38494Y57832D01*
G01X38481Y57900D01*
G01X38469Y57963D01*
G01X38446Y58078D01*
G01X38436Y58129D01*
G01X38428Y58174D01*
G01X38420Y58215D01*
G01X38412Y58249D01*
G01X38406Y58278D01*
G01X38401Y58301D01*
G01X38348Y58519D01*
G01X37745Y58900D01*
G01X37664Y58951D01*
G01X37584Y59001D01*
G01X37508Y59048D01*
G01X37437Y59091D01*
G01X37370Y59132D01*
G01X37308Y59169D01*
G01X37253Y59201D01*
G01X37205Y59229D01*
G01X37166Y59250D01*
G01X37135Y59267D01*
G01X37114Y59277D01*
G37*
G36*
G01X53044Y59235D02*
G01X52976Y59277D01*
G01X52382Y58896D01*
G01X52302Y58844D01*
G01X52224Y58794D01*
G01X52151Y58747D01*
G01X52082Y58702D01*
G01X52017Y58661D01*
G01X51959Y58623D01*
G01X51907Y58590D01*
G01X51863Y58561D01*
G01X51826Y58537D01*
G01X51781Y58507D01*
G01X51773Y58502D01*
G01X51772Y58498D01*
G01X51769Y58487D01*
G01X51765Y58470D01*
G01X51760Y58447D01*
G01X51754Y58418D01*
G01X51747Y58384D01*
G01X51730Y58299D01*
G01X51721Y58250D01*
G01X51710Y58197D01*
G01X51699Y58138D01*
G01X51686Y58077D01*
G01X51674Y58011D01*
G01X51661Y57942D01*
G01X51647Y57870D01*
G01X51633Y57795D01*
G01X51618Y57717D01*
G01X51603Y57637D01*
G01X51587Y57554D01*
G01X51572Y57470D01*
G01X51555Y57384D01*
G01X51539Y57297D01*
G01X51522Y57208D01*
G01X51506Y57119D01*
G01X51489Y57029D01*
G01X51473Y56940D01*
G01X51456Y56849D01*
G01X51422Y56669D01*
G01X51390Y56493D01*
G01X51374Y56406D01*
G01X51359Y56321D01*
G01X51344Y56237D01*
G01X51328Y56156D01*
G01X51314Y56076D01*
G01X51300Y56000D01*
G01X51287Y55926D01*
G01X51274Y55855D01*
G01X51262Y55787D01*
G01X51251Y55723D01*
G01X51240Y55663D01*
G01X51230Y55607D01*
G01X51221Y55555D01*
G01X51213Y55508D01*
G01X51206Y55465D01*
G01X51199Y55428D01*
G01X51194Y55396D01*
G01X51190Y55370D01*
G01X51187Y55350D01*
G01X51185Y55335D01*
G01X51185Y55320D01*
G01X51186Y55313D01*
G01X51189Y55307D01*
G01X51195Y55303D01*
G01X51204Y55301D01*
G01X51219Y55300D01*
G01X51238Y55301D01*
G01X51265Y55305D01*
G01X51299Y55310D01*
G01X51342Y55319D01*
G01X51393Y55330D01*
G01X51456Y55344D01*
G01X51529Y55361D01*
G01X51615Y55382D01*
G01X51714Y55405D01*
G01X51828Y55433D01*
G01X51956Y55465D01*
G01X52100Y55500D01*
G01X52262Y55540D01*
G01X52440Y55585D01*
G01X53278Y55792D01*
G01X53332Y58397D01*
G01X53223Y58795D01*
G01X53199Y58876D01*
G01X53174Y58952D01*
G01X53150Y59024D01*
G01X53125Y59088D01*
G01X53101Y59143D01*
G01X53079Y59187D01*
G01X53060Y59218D01*
G01X53044Y59235D01*
G37*
G36*
G01X41325Y60025D02*
G01X40026Y60606D01*
G01X39604Y60153D01*
G01X39181Y59699D01*
G01X38599Y58583D01*
G01X38713Y57885D01*
G01X38732Y57766D01*
G01X38751Y57653D01*
G01X38769Y57549D01*
G01X38786Y57452D01*
G01X38802Y57362D01*
G01X38817Y57280D01*
G01X38831Y57204D01*
G01X38845Y57136D01*
G01X38857Y57073D01*
G01X38870Y57017D01*
G01X38881Y56967D01*
G01X38892Y56924D01*
G01X38902Y56886D01*
G01X38912Y56854D01*
G01X38921Y56827D01*
G01X38930Y56806D01*
G01X38939Y56789D01*
G01X38947Y56778D01*
G01X38955Y56771D01*
G01X38963Y56769D01*
G01X38966Y56770D01*
G01X38973Y56774D01*
G01X38983Y56781D01*
G01X38998Y56789D01*
G01X39015Y56801D01*
G01X39036Y56815D01*
G01X39060Y56830D01*
G01X39087Y56849D01*
G01X39116Y56869D01*
G01X39149Y56891D01*
G01X39185Y56916D01*
G01X39223Y56943D01*
G01X39264Y56971D01*
G01X39308Y57002D01*
G01X39354Y57034D01*
G01X39403Y57068D01*
G01X39454Y57104D01*
G01X39508Y57141D01*
G01X39564Y57180D01*
G01X39621Y57220D01*
G01X39681Y57263D01*
G01X39743Y57306D01*
G01X39806Y57351D01*
G01X39872Y57397D01*
G01X39939Y57445D01*
G01X40008Y57494D01*
G01X40078Y57544D01*
G01X40150Y57595D01*
G01X40223Y57647D01*
G01X40298Y57700D01*
G01X40373Y57754D01*
G01X40450Y57808D01*
G01X40528Y57864D01*
G01X40607Y57920D01*
G01X40687Y57977D01*
G01X40848Y58093D01*
G01X40928Y58151D01*
G01X41007Y58207D01*
G01X41085Y58263D01*
G01X41162Y58319D01*
G01X41237Y58374D01*
G01X41312Y58427D01*
G01X41386Y58480D01*
G01X41457Y58533D01*
G01X41528Y58584D01*
G01X41597Y58634D01*
G01X41664Y58683D01*
G01X41730Y58731D01*
G01X41793Y58777D01*
G01X41855Y58823D01*
G01X41915Y58867D01*
G01X41973Y58910D01*
G01X42029Y58951D01*
G01X42083Y58990D01*
G01X42134Y59028D01*
G01X42183Y59065D01*
G01X42230Y59099D01*
G01X42274Y59132D01*
G01X42315Y59163D01*
G01X42353Y59193D01*
G01X42390Y59220D01*
G01X42423Y59245D01*
G01X42453Y59268D01*
G01X42480Y59290D01*
G01X42504Y59308D01*
G01X42525Y59325D01*
G01X42543Y59339D01*
G01X42557Y59351D01*
G01X42568Y59361D01*
G01X42575Y59368D01*
G01X42580Y59372D01*
G01X42623Y59443D01*
G01X41325Y60025D01*
G37*
G36*
G01X50488Y60211D02*
G01X50076Y60614D01*
G01X48793Y60026D01*
G01X48706Y59986D01*
G01X48619Y59947D01*
G01X48535Y59908D01*
G01X48452Y59870D01*
G01X48371Y59833D01*
G01X48293Y59797D01*
G01X48217Y59761D01*
G01X48143Y59727D01*
G01X48073Y59694D01*
G01X48005Y59663D01*
G01X47940Y59633D01*
G01X47879Y59605D01*
G01X47822Y59578D01*
G01X47768Y59553D01*
G01X47718Y59530D01*
G01X47673Y59508D01*
G01X47632Y59489D01*
G01X47595Y59472D01*
G01X47563Y59457D01*
G01X47537Y59444D01*
G01X47515Y59434D01*
G01X47499Y59426D01*
G01X47488Y59421D01*
G01X47483Y59418D01*
G01X47484Y59416D01*
G01X47488Y59410D01*
G01X47496Y59403D01*
G01X47508Y59393D01*
G01X47523Y59380D01*
G01X47542Y59365D01*
G01X47564Y59348D01*
G01X47589Y59328D01*
G01X47618Y59306D01*
G01X47649Y59282D01*
G01X47684Y59256D01*
G01X47722Y59228D01*
G01X47762Y59197D01*
G01X47805Y59165D01*
G01X47851Y59131D01*
G01X47900Y59095D01*
G01X47951Y59057D01*
G01X48004Y59018D01*
G01X48060Y58977D01*
G01X48118Y58934D01*
G01X48179Y58890D01*
G01X48241Y58844D01*
G01X48306Y58797D01*
G01X48372Y58749D01*
G01X48441Y58699D01*
G01X48511Y58648D01*
G01X48583Y58596D01*
G01X48657Y58543D01*
G01X48731Y58489D01*
G01X48808Y58434D01*
G01X48886Y58377D01*
G01X48966Y58320D01*
G01X49046Y58262D01*
G01X49128Y58204D01*
G01X49211Y58145D01*
G01X49295Y58085D01*
G01X51133Y56773D01*
G01X51194Y56840D01*
G01X51201Y56852D01*
G01X51209Y56871D01*
G01X51219Y56898D01*
G01X51230Y56931D01*
G01X51241Y56972D01*
G01X51254Y57018D01*
G01X51267Y57071D01*
G01X51281Y57129D01*
G01X51295Y57191D01*
G01X51311Y57258D01*
G01X51326Y57328D01*
G01X51341Y57402D01*
G01X51357Y57480D01*
G01X51373Y57559D01*
G01X51388Y57642D01*
G01X51404Y57725D01*
G01X51552Y58541D01*
G01X51226Y59174D01*
G01X50899Y59806D01*
G01X50488Y60211D01*
G37*
G36*
G01X44138Y62930D02*
G01X43324Y63076D01*
G01X43266Y62982D01*
G01X43262Y62972D01*
G01X43257Y62956D01*
G01X43253Y62934D01*
G01X43248Y62907D01*
G01X43244Y62873D01*
G01X43238Y62834D01*
G01X43233Y62790D01*
G01X43228Y62741D01*
G01X43223Y62688D01*
G01X43217Y62630D01*
G01X43212Y62568D01*
G01X43206Y62502D01*
G01X43201Y62432D01*
G01X43195Y62358D01*
G01X43190Y62282D01*
G01X43184Y62202D01*
G01X43179Y62119D01*
G01X43173Y62034D01*
G01X43168Y61946D01*
G01X43163Y61856D01*
G01X43158Y61765D01*
G01X43154Y61671D01*
G01X43149Y61576D01*
G01X43144Y61480D01*
G01X43141Y61397D01*
G01X43137Y61314D01*
G01X43129Y61150D01*
G01X43125Y61070D01*
G01X43121Y60989D01*
G01X43116Y60911D01*
G01X43112Y60833D01*
G01X43108Y60757D01*
G01X43103Y60682D01*
G01X43099Y60609D01*
G01X43095Y60539D01*
G01X43091Y60470D01*
G01X43086Y60403D01*
G01X43082Y60339D01*
G01X43077Y60277D01*
G01X43073Y60218D01*
G01X43069Y60162D01*
G01X43065Y60108D01*
G01X43062Y60058D01*
G01X43058Y60011D01*
G01X43054Y59968D01*
G01X43050Y59929D01*
G01X43047Y59894D01*
G01X43040Y59834D01*
G01X43037Y59811D01*
G01X43034Y59792D01*
G01X42987Y59513D01*
G01X43947Y59030D01*
G01X44044Y58981D01*
G01X44232Y58887D01*
G01X44320Y58842D01*
G01X44405Y58800D01*
G01X44561Y58722D01*
G01X44631Y58688D01*
G01X44694Y58656D01*
G01X44751Y58628D01*
G01X44802Y58603D01*
G01X44844Y58582D01*
G01X44879Y58565D01*
G01X44905Y58553D01*
G01X44921Y58545D01*
G01X44929Y58542D01*
G01X44930Y58544D01*
G01X44931Y58552D01*
G01X44933Y58566D01*
G01X44934Y58584D01*
G01X44935Y58608D01*
G01X44936Y58636D01*
G01X44937Y58669D01*
G01X44938Y58707D01*
G01X44939Y58750D01*
G01X44940Y58797D01*
G01X44941Y58848D01*
G01X44942Y58903D01*
G01X44943Y58962D01*
G01X44944Y59025D01*
G01X44944Y59092D01*
G01X44945Y59162D01*
G01X44946Y59236D01*
G01X44947Y59313D01*
G01X44947Y59393D01*
G01X44948Y59476D01*
G01X44949Y59562D01*
G01X44949Y59651D01*
G01X44950Y59743D01*
G01X44950Y59837D01*
G01X44951Y59933D01*
G01X44951Y60132D01*
G01X44952Y60234D01*
G01X44952Y62786D01*
G01X44138Y62930D01*
G37*
G36*
G01X46866Y63067D02*
G01X46851Y63067D01*
G01X46828Y63064D01*
G01X46797Y63061D01*
G01X46759Y63056D01*
G01X46715Y63051D01*
G01X46663Y63043D01*
G01X46606Y63035D01*
G01X46544Y63025D01*
G01X46477Y63015D01*
G01X46405Y63004D01*
G01X46330Y62991D01*
G01X46168Y62964D01*
G01X46083Y62949D01*
G01X45995Y62933D01*
G01X45138Y62782D01*
G01X45138Y58542D01*
G01X46045Y58963D01*
G01X46138Y59007D01*
G01X46229Y59049D01*
G01X46318Y59091D01*
G01X46404Y59133D01*
G01X46486Y59173D01*
G01X46565Y59212D01*
G01X46639Y59248D01*
G01X46709Y59283D01*
G01X46774Y59316D01*
G01X46832Y59347D01*
G01X46884Y59375D01*
G01X46930Y59399D01*
G01X46968Y59421D01*
G01X46998Y59439D01*
G01X47019Y59453D01*
G01X47033Y59464D01*
G01X47113Y59544D01*
G01X47003Y61295D01*
G01X46996Y61397D01*
G01X46990Y61498D01*
G01X46983Y61597D01*
G01X46977Y61695D01*
G01X46971Y61791D01*
G01X46965Y61884D01*
G01X46959Y61976D01*
G01X46952Y62065D01*
G01X46946Y62151D01*
G01X46941Y62234D01*
G01X46935Y62315D01*
G01X46930Y62392D01*
G01X46924Y62467D01*
G01X46919Y62537D01*
G01X46914Y62604D01*
G01X46909Y62667D01*
G01X46905Y62726D01*
G01X46901Y62781D01*
G01X46897Y62832D01*
G01X46892Y62878D01*
G01X46889Y62920D01*
G01X46886Y62956D01*
G01X46883Y62988D01*
G01X46880Y63014D01*
G01X46878Y63036D01*
G01X46876Y63051D01*
G01X46873Y63066D01*
G01X46866Y63067D01*
G37*
G36*
G01X38909Y59653D02*
G01X38023Y59653D01*
G01X37933Y59652D01*
G01X37846Y59652D01*
G01X37761Y59651D01*
G01X37680Y59649D01*
G01X37602Y59647D01*
G01X37530Y59645D01*
G01X37461Y59643D01*
G01X37398Y59640D01*
G01X37341Y59637D01*
G01X37290Y59633D01*
G01X37246Y59629D01*
G01X37208Y59625D01*
G01X37178Y59621D01*
G01X37156Y59617D01*
G01X37143Y59613D01*
G01X37138Y59608D01*
G01X37144Y59599D01*
G01X37162Y59582D01*
G01X37191Y59559D01*
G01X37229Y59529D01*
G01X37276Y59493D01*
G01X37330Y59453D01*
G01X37390Y59408D01*
G01X37456Y59361D01*
G01X37527Y59310D01*
G01X37601Y59258D01*
G01X37677Y59205D01*
G01X37755Y59150D01*
G01X37911Y59044D01*
G01X37986Y58992D01*
G01X38058Y58943D01*
G01X38127Y58897D01*
G01X38191Y58855D01*
G01X38249Y58818D01*
G01X38300Y58785D01*
G01X38343Y58759D01*
G01X38377Y58739D01*
G01X38402Y58727D01*
G01X38414Y58723D01*
G01X38424Y58732D01*
G01X38442Y58759D01*
G01X38468Y58802D01*
G01X38500Y58859D01*
G01X38537Y58928D01*
G01X38580Y59007D01*
G01X38625Y59094D01*
G01X38673Y59187D01*
G01X38909Y59653D01*
G37*
G36*
G01X51796Y59641D02*
G01X51722Y59642D01*
G01X51653Y59641D01*
G01X51589Y59641D01*
G01X51531Y59640D01*
G01X51478Y59638D01*
G01X51431Y59637D01*
G01X51391Y59634D01*
G01X51359Y59631D01*
G01X51333Y59628D01*
G01X51317Y59625D01*
G01X51308Y59621D01*
G01X51306Y59605D01*
G01X51312Y59571D01*
G01X51327Y59524D01*
G01X51348Y59464D01*
G01X51375Y59396D01*
G01X51406Y59320D01*
G01X51440Y59240D01*
G01X51477Y59157D01*
G01X51514Y59076D01*
G01X51552Y58996D01*
G01X51589Y58923D01*
G01X51623Y58857D01*
G01X51654Y58802D01*
G01X51681Y58759D01*
G01X51702Y58732D01*
G01X51716Y58723D01*
G01X51726Y58727D01*
G01X51747Y58738D01*
G01X51780Y58757D01*
G01X51822Y58783D01*
G01X51873Y58815D01*
G01X51932Y58852D01*
G01X51998Y58895D01*
G01X52071Y58942D01*
G01X52150Y58993D01*
G01X52233Y59047D01*
G01X52320Y59105D01*
G01X52410Y59164D01*
G01X53075Y59606D01*
G01X52211Y59633D01*
G01X52123Y59635D01*
G01X52037Y59638D01*
G01X51953Y59639D01*
G01X51872Y59641D01*
G01X51796Y59641D01*
G37*
G36*
G01X41747Y62805D02*
G01X41720Y62813D01*
G01X41711Y62809D01*
G01X41699Y62799D01*
G01X41681Y62783D01*
G01X41660Y62760D01*
G01X41635Y62731D01*
G01X41606Y62697D01*
G01X41573Y62658D01*
G01X41538Y62614D01*
G01X41500Y62567D01*
G01X41458Y62514D01*
G01X41415Y62459D01*
G01X41369Y62400D01*
G01X41322Y62338D01*
G01X41273Y62274D01*
G01X41222Y62207D01*
G01X41171Y62138D01*
G01X41119Y62068D01*
G01X41065Y61997D01*
G01X41012Y61925D01*
G01X40959Y61852D01*
G01X40905Y61779D01*
G01X40852Y61706D01*
G01X40800Y61633D01*
G01X40748Y61562D01*
G01X40698Y61492D01*
G01X40649Y61423D01*
G01X40602Y61356D01*
G01X40557Y61292D01*
G01X40514Y61230D01*
G01X40473Y61170D01*
G01X40435Y61114D01*
G01X40400Y61062D01*
G01X40368Y61014D01*
G01X40339Y60970D01*
G01X40314Y60930D01*
G01X40294Y60896D01*
G01X40277Y60867D01*
G01X40265Y60844D01*
G01X40257Y60827D01*
G01X40254Y60816D01*
G01X40259Y60808D01*
G01X40270Y60798D01*
G01X40288Y60785D01*
G01X40314Y60768D01*
G01X40346Y60749D01*
G01X40385Y60726D01*
G01X40429Y60701D01*
G01X40479Y60674D01*
G01X40535Y60644D01*
G01X40596Y60612D01*
G01X40662Y60578D01*
G01X40731Y60543D01*
G01X40806Y60505D01*
G01X40884Y60467D01*
G01X40966Y60426D01*
G01X41051Y60385D01*
G01X41139Y60343D01*
G01X41229Y60299D01*
G01X41322Y60256D01*
G01X41417Y60211D01*
G01X41548Y60151D01*
G01X41670Y60094D01*
G01X41784Y60041D01*
G01X41890Y59993D01*
G01X41987Y59948D01*
G01X42078Y59907D01*
G01X42160Y59869D01*
G01X42236Y59835D01*
G01X42305Y59805D01*
G01X42368Y59777D01*
G01X42424Y59753D01*
G01X42475Y59732D01*
G01X42520Y59714D01*
G01X42559Y59699D01*
G01X42593Y59686D01*
G01X42623Y59676D01*
G01X42648Y59669D01*
G01X42668Y59663D01*
G01X42685Y59661D01*
G01X42698Y59660D01*
G01X42708Y59661D01*
G01X42714Y59664D01*
G01X42718Y59669D01*
G01X42719Y59676D01*
G01X42718Y59681D01*
G01X42714Y59692D01*
G01X42709Y59710D01*
G01X42702Y59734D01*
G01X42693Y59764D01*
G01X42682Y59799D01*
G01X42669Y59839D01*
G01X42655Y59885D01*
G01X42639Y59936D01*
G01X42621Y59992D01*
G01X42602Y60052D01*
G01X42582Y60116D01*
G01X42560Y60184D01*
G01X42537Y60256D01*
G01X42513Y60332D01*
G01X42488Y60412D01*
G01X42462Y60494D01*
G01X42434Y60579D01*
G01X42406Y60667D01*
G01X42377Y60758D01*
G01X42347Y60851D01*
G01X42317Y60946D01*
G01X42286Y61043D01*
G01X42223Y61240D01*
G01X42192Y61337D01*
G01X42161Y61433D01*
G01X42131Y61527D01*
G01X42103Y61620D01*
G01X42075Y61710D01*
G01X42047Y61798D01*
G01X42021Y61883D01*
G01X41996Y61966D01*
G01X41971Y62045D01*
G01X41949Y62121D01*
G01X41927Y62193D01*
G01X41906Y62262D01*
G01X41888Y62327D01*
G01X41870Y62387D01*
G01X41854Y62443D01*
G01X41840Y62494D01*
G01X41827Y62540D01*
G01X41816Y62581D01*
G01X41807Y62616D01*
G01X41800Y62646D01*
G01X41795Y62670D01*
G01X41792Y62688D01*
G01X41790Y62699D01*
G01X41785Y62744D01*
G01X41769Y62781D01*
G01X41747Y62805D01*
G37*
G36*
G01X49207Y61809D02*
G01X48456Y62830D01*
G01X48388Y62706D01*
G01X48382Y62695D01*
G01X48375Y62676D01*
G01X48365Y62651D01*
G01X48354Y62621D01*
G01X48341Y62585D01*
G01X48327Y62543D01*
G01X48311Y62497D01*
G01X48255Y62329D01*
G01X48234Y62265D01*
G01X48212Y62197D01*
G01X48189Y62126D01*
G01X48165Y62052D01*
G01X48141Y61975D01*
G01X48115Y61896D01*
G01X48089Y61814D01*
G01X48063Y61730D01*
G01X48036Y61645D01*
G01X48009Y61558D01*
G01X47981Y61470D01*
G01X47953Y61381D01*
G01X47926Y61292D01*
G01X47898Y61202D01*
G01X47870Y61113D01*
G01X47816Y60935D01*
G01X47762Y60761D01*
G01X47736Y60676D01*
G01X47711Y60593D01*
G01X47687Y60511D01*
G01X47663Y60433D01*
G01X47640Y60356D01*
G01X47618Y60283D01*
G01X47598Y60213D01*
G01X47578Y60146D01*
G01X47559Y60083D01*
G01X47543Y60024D01*
G01X47527Y59969D01*
G01X47513Y59919D01*
G01X47501Y59874D01*
G01X47489Y59834D01*
G01X47481Y59799D01*
G01X47473Y59770D01*
G01X47468Y59747D01*
G01X47465Y59730D01*
G01X47464Y59720D01*
G01X47464Y59715D01*
G01X47466Y59710D01*
G01X47469Y59707D01*
G01X47474Y59704D01*
G01X47481Y59702D01*
G01X47490Y59702D01*
G01X47501Y59703D01*
G01X47515Y59706D01*
G01X47551Y59715D01*
G01X47574Y59723D01*
G01X47600Y59732D01*
G01X47630Y59743D01*
G01X47664Y59756D01*
G01X47702Y59772D01*
G01X47744Y59789D01*
G01X47791Y59809D01*
G01X47842Y59831D01*
G01X47899Y59855D01*
G01X47961Y59882D01*
G01X48029Y59912D01*
G01X48103Y59944D01*
G01X48181Y59980D01*
G01X48267Y60018D01*
G01X48359Y60060D01*
G01X48457Y60104D01*
G01X48562Y60152D01*
G01X48675Y60202D01*
G01X48794Y60257D01*
G01X48921Y60315D01*
G01X49056Y60376D01*
G01X49199Y60441D01*
G01X49957Y60788D01*
G01X49207Y61809D01*
G37*
G36*
G01X37074Y63335D02*
G01X37071Y63337D01*
G01X37069Y63330D01*
G01X37069Y63315D01*
G01X37072Y63293D01*
G01X37075Y63263D01*
G01X37081Y63226D01*
G01X37089Y63182D01*
G01X37097Y63132D01*
G01X37107Y63076D01*
G01X37119Y63014D01*
G01X37132Y62947D01*
G01X37146Y62874D01*
G01X37162Y62797D01*
G01X37178Y62716D01*
G01X37196Y62630D01*
G01X37215Y62540D01*
G01X37235Y62448D01*
G01X37256Y62352D01*
G01X37277Y62253D01*
G01X37299Y62153D01*
G01X37322Y62050D01*
G01X37603Y60792D01*
G01X37463Y60396D01*
G01X37425Y60286D01*
G01X37393Y60195D01*
G01X37368Y60120D01*
G01X37350Y60062D01*
G01X37340Y60016D01*
G01X37336Y59983D01*
G01X37340Y59960D01*
G01X37350Y59945D01*
G01X37367Y59936D01*
G01X37392Y59933D01*
G01X37424Y59932D01*
G01X37601Y59932D01*
G01X38018Y60504D01*
G01X38074Y60582D01*
G01X38127Y60658D01*
G01X38177Y60731D01*
G01X38224Y60800D01*
G01X38266Y60865D01*
G01X38304Y60924D01*
G01X38337Y60978D01*
G01X38364Y61025D01*
G01X38385Y61065D01*
G01X38400Y61097D01*
G01X38407Y61119D01*
G01X38408Y61132D01*
G01X38396Y61155D01*
G01X38380Y61185D01*
G01X38362Y61220D01*
G01X38339Y61261D01*
G01X38314Y61307D01*
G01X38285Y61357D01*
G01X38254Y61411D01*
G01X38220Y61469D01*
G01X38185Y61531D01*
G01X38147Y61596D01*
G01X38107Y61664D01*
G01X38065Y61734D01*
G01X38023Y61807D01*
G01X37979Y61881D01*
G01X37933Y61957D01*
G01X37887Y62034D01*
G01X37840Y62111D01*
G01X37699Y62346D01*
G01X37651Y62424D01*
G01X37605Y62501D01*
G01X37559Y62576D01*
G01X37513Y62650D01*
G01X37469Y62722D01*
G01X37426Y62792D01*
G01X37385Y62859D01*
G01X37345Y62923D01*
G01X37271Y63041D01*
G01X37237Y63094D01*
G01X37206Y63143D01*
G01X37177Y63187D01*
G01X37152Y63226D01*
G01X37129Y63260D01*
G01X37110Y63288D01*
G01X37094Y63310D01*
G01X37082Y63326D01*
G01X37074Y63335D01*
G37*
G36*
G01X39104Y60861D02*
G01X38605Y60979D01*
G01X38547Y60892D01*
G01X38535Y60877D01*
G01X38520Y60854D01*
G01X38499Y60825D01*
G01X38446Y60749D01*
G01X38414Y60703D01*
G01X38380Y60654D01*
G01X38343Y60601D01*
G01X38304Y60546D01*
G01X38264Y60488D01*
G01X38222Y60429D01*
G01X38180Y60369D01*
G01X37873Y59932D01*
G01X39054Y59932D01*
G01X39407Y60293D01*
G01X39760Y60655D01*
G01X39681Y60699D01*
G01X39656Y60711D01*
G01X39612Y60726D01*
G01X39552Y60744D01*
G01X39480Y60766D01*
G01X39396Y60789D01*
G01X39304Y60813D01*
G01X39206Y60837D01*
G01X39104Y60861D01*
G37*
G36*
G01X51861Y60495D02*
G01X51513Y60960D01*
G01X51233Y60904D01*
G01X51170Y60891D01*
G01X51099Y60875D01*
G01X51023Y60857D01*
G01X50943Y60836D01*
G01X50862Y60816D01*
G01X50784Y60794D01*
G01X50709Y60772D01*
G01X50641Y60752D01*
G01X50330Y60656D01*
G01X51036Y59932D01*
G01X51622Y59932D01*
G01X51740Y59933D01*
G01X51850Y59936D01*
G01X51949Y59940D01*
G01X52036Y59946D01*
G01X52108Y59954D01*
G01X52162Y59962D01*
G01X52196Y59971D01*
G01X52208Y59980D01*
G01X52201Y60000D01*
G01X52181Y60036D01*
G01X52148Y60088D01*
G01X52106Y60152D01*
G01X52054Y60227D01*
G01X51995Y60310D01*
G01X51930Y60401D01*
G01X51861Y60495D01*
G37*
G36*
G01X53018Y63222D02*
G01X52987Y63315D01*
G01X52365Y62244D01*
G01X52314Y62157D01*
G01X52265Y62070D01*
G01X52216Y61986D01*
G01X52169Y61903D01*
G01X52123Y61823D01*
G01X52080Y61745D01*
G01X52038Y61671D01*
G01X51998Y61599D01*
G01X51961Y61532D01*
G01X51926Y61468D01*
G01X51893Y61408D01*
G01X51863Y61353D01*
G01X51836Y61302D01*
G01X51812Y61257D01*
G01X51792Y61216D01*
G01X51775Y61182D01*
G01X51761Y61153D01*
G01X51751Y61131D01*
G01X51745Y61115D01*
G01X51743Y61106D01*
G01X51746Y61092D01*
G01X51757Y61068D01*
G01X51774Y61036D01*
G01X51796Y60996D01*
G01X51825Y60949D01*
G01X51858Y60896D01*
G01X51895Y60837D01*
G01X51936Y60773D01*
G01X51982Y60705D01*
G01X52030Y60634D01*
G01X52081Y60561D01*
G01X52133Y60485D01*
G01X52524Y59932D01*
G01X52766Y59932D01*
G01X52759Y60048D01*
G01X52755Y60078D01*
G01X52747Y60118D01*
G01X52735Y60167D01*
G01X52721Y60222D01*
G01X52703Y60283D01*
G01X52683Y60347D01*
G01X52661Y60413D01*
G01X52638Y60479D01*
G01X52525Y60793D01*
G01X52787Y61961D01*
G01X52808Y62057D01*
G01X52829Y62151D01*
G01X52849Y62244D01*
G01X52868Y62333D01*
G01X52886Y62422D01*
G01X52904Y62507D01*
G01X52920Y62589D01*
G01X52936Y62667D01*
G01X52950Y62742D01*
G01X52963Y62813D01*
G01X52975Y62880D01*
G01X52986Y62941D01*
G01X52995Y62997D01*
G01X53003Y63048D01*
G01X53009Y63093D01*
G01X53014Y63133D01*
G01X53018Y63166D01*
G01X53020Y63191D01*
G01X53020Y63211D01*
G01X53018Y63222D01*
G37*
G36*
G01X49397Y65564D02*
G01X49390Y65564D01*
G01X49376Y65559D01*
G01X49354Y65550D01*
G01X49325Y65535D01*
G01X49289Y65517D01*
G01X49247Y65495D01*
G01X49199Y65468D01*
G01X49146Y65439D01*
G01X49089Y65406D01*
G01X49026Y65369D01*
G01X48960Y65330D01*
G01X48889Y65289D01*
G01X48816Y65244D01*
G01X48740Y65198D01*
G01X48661Y65150D01*
G01X48580Y65101D01*
G01X47790Y64610D01*
G01X47440Y63893D01*
G01X47090Y63175D01*
G01X47199Y61646D01*
G01X47206Y61542D01*
G01X47214Y61440D01*
G01X47221Y61340D01*
G01X47229Y61242D01*
G01X47236Y61147D01*
G01X47243Y61054D01*
G01X47250Y60965D01*
G01X47257Y60879D01*
G01X47263Y60797D01*
G01X47270Y60718D01*
G01X47276Y60644D01*
G01X47282Y60573D01*
G01X47288Y60507D01*
G01X47293Y60446D01*
G01X47299Y60390D01*
G01X47303Y60339D01*
G01X47308Y60292D01*
G01X47313Y60252D01*
G01X47316Y60218D01*
G01X47320Y60189D01*
G01X47323Y60167D01*
G01X47325Y60152D01*
G01X47327Y60142D01*
G01X47329Y60140D01*
G01X47332Y60146D01*
G01X47336Y60157D01*
G01X47343Y60175D01*
G01X47351Y60199D01*
G01X47361Y60228D01*
G01X47373Y60263D01*
G01X47386Y60305D01*
G01X47400Y60350D01*
G01X47417Y60401D01*
G01X47435Y60456D01*
G01X47454Y60516D01*
G01X47475Y60581D01*
G01X47496Y60649D01*
G01X47519Y60722D01*
G01X47543Y60797D01*
G01X47568Y60877D01*
G01X47594Y60959D01*
G01X47620Y61044D01*
G01X47647Y61133D01*
G01X47676Y61223D01*
G01X47705Y61316D01*
G01X47734Y61411D01*
G01X47764Y61508D01*
G01X47794Y61606D01*
G01X48238Y63048D01*
G01X48831Y64293D01*
G01X48871Y64378D01*
G01X48911Y64461D01*
G01X48949Y64543D01*
G01X48987Y64624D01*
G01X49024Y64702D01*
G01X49059Y64778D01*
G01X49093Y64852D01*
G01X49126Y64923D01*
G01X49157Y64992D01*
G01X49187Y65058D01*
G01X49215Y65120D01*
G01X49242Y65180D01*
G01X49266Y65236D01*
G01X49289Y65288D01*
G01X49311Y65336D01*
G01X49329Y65380D01*
G01X49346Y65420D01*
G01X49361Y65456D01*
G01X49373Y65487D01*
G01X49383Y65513D01*
G01X49390Y65533D01*
G01X49395Y65549D01*
G01X49397Y65559D01*
G01X49397Y65564D01*
G37*
G36*
G01X41117Y65364D02*
G01X40677Y65621D01*
G01X41929Y62955D01*
G01X42347Y61590D01*
G01X42766Y60225D01*
G01X42824Y60380D01*
G01X42828Y60394D01*
G01X42837Y60439D01*
G01X42842Y60470D01*
G01X42846Y60506D01*
G01X42851Y60547D01*
G01X42857Y60594D01*
G01X42862Y60644D01*
G01X42868Y60699D01*
G01X42873Y60758D01*
G01X42879Y60820D01*
G01X42884Y60887D01*
G01X42890Y60957D01*
G01X42896Y61029D01*
G01X42901Y61106D01*
G01X42907Y61184D01*
G01X42912Y61266D01*
G01X42918Y61349D01*
G01X42923Y61435D01*
G01X42929Y61522D01*
G01X42934Y61611D01*
G01X42939Y61702D01*
G01X42943Y61793D01*
G01X42948Y61885D01*
G01X43015Y63234D01*
G01X42687Y63916D01*
G01X42360Y64598D01*
G01X41958Y64852D01*
G01X41915Y64880D01*
G01X41869Y64909D01*
G01X41820Y64940D01*
G01X41768Y64972D01*
G01X41714Y65005D01*
G01X41659Y65039D01*
G01X41603Y65073D01*
G01X41546Y65108D01*
G01X41488Y65142D01*
G01X41431Y65177D01*
G01X41375Y65211D01*
G01X41319Y65244D01*
G01X41265Y65276D01*
G01X41214Y65307D01*
G01X41164Y65336D01*
G01X41117Y65364D01*
G37*
G36*
G01X49748Y65584D02*
G01X49745Y65589D01*
G01X49739Y65588D01*
G01X49729Y65580D01*
G01X49715Y65563D01*
G01X49699Y65539D01*
G01X49679Y65508D01*
G01X49657Y65470D01*
G01X49632Y65426D01*
G01X49604Y65375D01*
G01X49574Y65320D01*
G01X49542Y65259D01*
G01X49508Y65193D01*
G01X49473Y65123D01*
G01X49437Y65049D01*
G01X49398Y64972D01*
G01X49360Y64891D01*
G01X49321Y64807D01*
G01X49288Y64739D01*
G01X49256Y64669D01*
G01X49222Y64598D01*
G01X49154Y64455D01*
G01X49086Y64311D01*
G01X49051Y64241D01*
G01X49018Y64170D01*
G01X48985Y64101D01*
G01X48952Y64034D01*
G01X48921Y63969D01*
G01X48890Y63906D01*
G01X48861Y63846D01*
G01X48833Y63788D01*
G01X48807Y63735D01*
G01X48782Y63684D01*
G01X48758Y63637D01*
G01X48718Y63557D01*
G01X48500Y63127D01*
G01X49341Y61992D01*
G01X50181Y60856D01*
G01X50334Y60901D01*
G01X50374Y60913D01*
G01X50428Y60927D01*
G01X50495Y60945D01*
G01X50572Y60965D01*
G01X50656Y60987D01*
G01X50745Y61009D01*
G01X50929Y61055D01*
G01X51371Y61163D01*
G01X51371Y61236D01*
G01X51370Y61242D01*
G01X51367Y61253D01*
G01X51363Y61269D01*
G01X51357Y61288D01*
G01X51349Y61312D01*
G01X51340Y61340D01*
G01X51329Y61372D01*
G01X51317Y61408D01*
G01X51303Y61448D01*
G01X51288Y61490D01*
G01X51272Y61537D01*
G01X51254Y61587D01*
G01X51235Y61640D01*
G01X51215Y61695D01*
G01X51194Y61754D01*
G01X51172Y61816D01*
G01X51148Y61880D01*
G01X51124Y61947D01*
G01X51099Y62016D01*
G01X51073Y62088D01*
G01X51046Y62161D01*
G01X51018Y62237D01*
G01X50991Y62314D01*
G01X50962Y62393D01*
G01X50932Y62474D01*
G01X50902Y62556D01*
G01X50871Y62639D01*
G01X50840Y62724D01*
G01X50808Y62809D01*
G01X50776Y62896D01*
G01X50743Y62983D01*
G01X50711Y63071D01*
G01X50645Y63248D01*
G01X50612Y63337D01*
G01X50578Y63426D01*
G01X50545Y63516D01*
G01X50511Y63605D01*
G01X50412Y63869D01*
G01X50379Y63956D01*
G01X50315Y64128D01*
G01X50283Y64212D01*
G01X50221Y64376D01*
G01X50190Y64456D01*
G01X50161Y64535D01*
G01X50131Y64611D01*
G01X50103Y64687D01*
G01X50075Y64759D01*
G01X50048Y64830D01*
G01X50022Y64898D01*
G01X49996Y64964D01*
G01X49972Y65028D01*
G01X49949Y65089D01*
G01X49926Y65147D01*
G01X49904Y65202D01*
G01X49884Y65253D01*
G01X49865Y65302D01*
G01X49847Y65348D01*
G01X49830Y65390D01*
G01X49815Y65428D01*
G01X49801Y65463D01*
G01X49788Y65493D01*
G01X49777Y65520D01*
G01X49767Y65543D01*
G01X49753Y65575D01*
G01X49748Y65584D01*
G37*
G36*
G01X41005Y64406D02*
G01X40406Y65642D01*
G01X40308Y65415D01*
G01X40300Y65394D01*
G01X40289Y65370D01*
G01X40278Y65343D01*
G01X40266Y65311D01*
G01X40252Y65277D01*
G01X40220Y65198D01*
G01X40204Y65154D01*
G01X40185Y65107D01*
G01X40166Y65057D01*
G01X40146Y65004D01*
G01X40124Y64949D01*
G01X40102Y64891D01*
G01X40079Y64831D01*
G01X40056Y64769D01*
G01X40031Y64704D01*
G01X40006Y64638D01*
G01X39980Y64570D01*
G01X39953Y64500D01*
G01X39899Y64354D01*
G01X39870Y64279D01*
G01X39842Y64203D01*
G01X39812Y64125D01*
G01X39754Y63967D01*
G01X39724Y63886D01*
G01X39693Y63805D01*
G01X39663Y63723D01*
G01X39601Y63558D01*
G01X39570Y63474D01*
G01X39539Y63391D01*
G01X39508Y63307D01*
G01X39477Y63224D01*
G01X39446Y63140D01*
G01X39415Y63057D01*
G01X39385Y62974D01*
G01X39354Y62892D01*
G01X39324Y62810D01*
G01X39294Y62729D01*
G01X39265Y62648D01*
G01X39236Y62569D01*
G01X39207Y62491D01*
G01X39178Y62414D01*
G01X39151Y62338D01*
G01X39124Y62264D01*
G01X39097Y62191D01*
G01X39071Y62119D01*
G01X39046Y62050D01*
G01X39021Y61982D01*
G01X38997Y61916D01*
G01X38974Y61852D01*
G01X38952Y61791D01*
G01X38931Y61732D01*
G01X38910Y61675D01*
G01X38891Y61620D01*
G01X38873Y61568D01*
G01X38855Y61520D01*
G01X38839Y61473D01*
G01X38823Y61430D01*
G01X38810Y61391D01*
G01X38797Y61354D01*
G01X38785Y61320D01*
G01X38775Y61290D01*
G01X38767Y61264D01*
G01X38759Y61241D01*
G01X38753Y61222D01*
G01X38748Y61207D01*
G01X38745Y61196D01*
G01X38744Y61188D01*
G01X38744Y61186D01*
G01X38762Y61176D01*
G01X38794Y61163D01*
G01X38887Y61132D01*
G01X38946Y61114D01*
G01X39013Y61094D01*
G01X39085Y61074D01*
G01X39160Y61054D01*
G01X39239Y61033D01*
G01X39319Y61012D01*
G01X39399Y60992D01*
G01X39478Y60973D01*
G01X39553Y60955D01*
G01X39626Y60939D01*
G01X39692Y60924D01*
G01X39752Y60912D01*
G01X39804Y60902D01*
G01X39847Y60895D01*
G01X39878Y60892D01*
G01X39898Y60892D01*
G01X40007Y60909D01*
G01X40805Y62004D01*
G01X40870Y62094D01*
G01X40934Y62182D01*
G01X40996Y62267D01*
G01X41057Y62351D01*
G01X41115Y62433D01*
G01X41171Y62510D01*
G01X41225Y62585D01*
G01X41276Y62657D01*
G01X41324Y62725D01*
G01X41369Y62788D01*
G01X41411Y62848D01*
G01X41449Y62902D01*
G01X41483Y62952D01*
G01X41514Y62996D01*
G01X41540Y63035D01*
G01X41563Y63068D01*
G01X41580Y63094D01*
G01X41593Y63114D01*
G01X41601Y63128D01*
G01X41603Y63135D01*
G01X41602Y63140D01*
G01X41598Y63150D01*
G01X41591Y63167D01*
G01X41582Y63188D01*
G01X41570Y63214D01*
G01X41556Y63245D01*
G01X41540Y63281D01*
G01X41521Y63321D01*
G01X41501Y63366D01*
G01X41478Y63414D01*
G01X41454Y63466D01*
G01X41427Y63522D01*
G01X41399Y63581D01*
G01X41370Y63644D01*
G01X41339Y63710D01*
G01X41307Y63778D01*
G01X41272Y63849D01*
G01X41237Y63923D01*
G01X41201Y63999D01*
G01X41163Y64076D01*
G01X41125Y64156D01*
G01X41086Y64238D01*
G01X41045Y64321D01*
G01X41005Y64406D01*
G37*
G36*
G01X50007Y65664D02*
G01X50003Y65664D01*
G01X50002Y65661D01*
G01X50004Y65652D01*
G01X50008Y65638D01*
G01X50014Y65619D01*
G01X50021Y65596D01*
G01X50030Y65568D01*
G01X50053Y65499D01*
G01X50067Y65458D01*
G01X50083Y65412D01*
G01X50099Y65363D01*
G01X50118Y65310D01*
G01X50138Y65254D01*
G01X50159Y65194D01*
G01X50182Y65130D01*
G01X50206Y65063D01*
G01X50231Y64993D01*
G01X50257Y64920D01*
G01X50285Y64844D01*
G01X50313Y64765D01*
G01X50343Y64683D01*
G01X50374Y64599D01*
G01X50405Y64513D01*
G01X50438Y64424D01*
G01X50471Y64333D01*
G01X50505Y64240D01*
G01X50540Y64146D01*
G01X50575Y64049D01*
G01X50649Y63851D01*
G01X50687Y63750D01*
G01X50725Y63648D01*
G01X50758Y63557D01*
G01X50792Y63466D01*
G01X50858Y63288D01*
G01X50891Y63201D01*
G01X50923Y63114D01*
G01X50955Y63029D01*
G01X50986Y62945D01*
G01X51017Y62863D01*
G01X51047Y62782D01*
G01X51077Y62702D01*
G01X51106Y62625D01*
G01X51134Y62549D01*
G01X51162Y62475D01*
G01X51188Y62403D01*
G01X51214Y62333D01*
G01X51239Y62265D01*
G01X51264Y62200D01*
G01X51287Y62137D01*
G01X51310Y62076D01*
G01X51331Y62019D01*
G01X51352Y61963D01*
G01X51372Y61910D01*
G01X51390Y61861D01*
G01X51407Y61814D01*
G01X51423Y61770D01*
G01X51439Y61729D01*
G01X51452Y61692D01*
G01X51465Y61658D01*
G01X51476Y61627D01*
G01X51486Y61600D01*
G01X51495Y61577D01*
G01X51503Y61557D01*
G01X51508Y61541D01*
G01X51516Y61521D01*
G01X51563Y61389D01*
G01X51642Y61474D01*
G01X51649Y61483D01*
G01X51660Y61498D01*
G01X51673Y61518D01*
G01X51690Y61544D01*
G01X51710Y61574D01*
G01X51732Y61610D01*
G01X51758Y61650D01*
G01X51785Y61695D01*
G01X51816Y61744D01*
G01X51848Y61798D01*
G01X51883Y61854D01*
G01X51919Y61915D01*
G01X51958Y61980D01*
G01X51998Y62047D01*
G01X52041Y62118D01*
G01X52084Y62191D01*
G01X52129Y62267D01*
G01X52176Y62346D01*
G01X52223Y62426D01*
G01X52272Y62509D01*
G01X52321Y62594D01*
G01X52372Y62680D01*
G01X52423Y62767D01*
G01X52474Y62856D01*
G01X52526Y62945D01*
G01X52576Y63031D01*
G01X52625Y63117D01*
G01X52673Y63201D01*
G01X52720Y63282D01*
G01X52765Y63361D01*
G01X52809Y63438D01*
G01X52851Y63512D01*
G01X52891Y63583D01*
G01X52930Y63651D01*
G01X52966Y63716D01*
G01X53000Y63778D01*
G01X53032Y63836D01*
G01X53062Y63890D01*
G01X53089Y63940D01*
G01X53113Y63986D01*
G01X53136Y64027D01*
G01X53155Y64063D01*
G01X53171Y64095D01*
G01X53185Y64122D01*
G01X53195Y64143D01*
G01X53202Y64159D01*
G01X53206Y64169D01*
G01X53206Y64174D01*
G01X53200Y64178D01*
G01X53189Y64185D01*
G01X53172Y64194D01*
G01X53150Y64205D01*
G01X53123Y64220D01*
G01X53091Y64235D01*
G01X53054Y64254D01*
G01X53013Y64274D01*
G01X52968Y64296D01*
G01X52918Y64320D01*
G01X52865Y64346D01*
G01X52809Y64373D01*
G01X52749Y64402D01*
G01X52686Y64432D01*
G01X52620Y64464D01*
G01X52551Y64496D01*
G01X52480Y64530D01*
G01X52406Y64565D01*
G01X52331Y64600D01*
G01X52253Y64637D01*
G01X52174Y64674D01*
G01X52012Y64750D01*
G01X51929Y64789D01*
G01X51761Y64867D01*
G01X51591Y64947D01*
G01X51507Y64986D01*
G01X51338Y65064D01*
G01X51255Y65103D01*
G01X51172Y65141D01*
G01X51091Y65178D01*
G01X51011Y65215D01*
G01X50932Y65251D01*
G01X50855Y65287D01*
G01X50780Y65322D01*
G01X50708Y65355D01*
G01X50637Y65387D01*
G01X50569Y65418D01*
G01X50504Y65447D01*
G01X50442Y65475D01*
G01X50383Y65502D01*
G01X50328Y65527D01*
G01X50276Y65550D01*
G01X50227Y65571D01*
G01X50183Y65591D01*
G01X50144Y65608D01*
G01X50109Y65623D01*
G01X50078Y65637D01*
G01X50052Y65647D01*
G01X50017Y65661D01*
G01X50007Y65664D01*
G37*
G36*
G01X40104Y65645D02*
G01X40099Y65646D01*
G01X40089Y65644D01*
G01X40074Y65639D01*
G01X40054Y65632D01*
G01X40029Y65623D01*
G01X40000Y65612D01*
G01X39967Y65598D01*
G01X39929Y65583D01*
G01X39887Y65565D01*
G01X39841Y65545D01*
G01X39791Y65523D01*
G01X39737Y65500D01*
G01X39680Y65474D01*
G01X39620Y65448D01*
G01X39556Y65419D01*
G01X39490Y65389D01*
G01X39420Y65357D01*
G01X39348Y65324D01*
G01X39273Y65289D01*
G01X39195Y65253D01*
G01X39116Y65216D01*
G01X39034Y65178D01*
G01X38950Y65139D01*
G01X38865Y65098D01*
G01X38777Y65057D01*
G01X38688Y65015D01*
G01X38598Y64972D01*
G01X38506Y64928D01*
G01X36945Y64179D01*
G01X37001Y64032D01*
G01X37008Y64014D01*
G01X37019Y63991D01*
G01X37033Y63963D01*
G01X37049Y63930D01*
G01X37069Y63892D01*
G01X37092Y63850D01*
G01X37116Y63804D01*
G01X37143Y63754D01*
G01X37172Y63701D01*
G01X37204Y63645D01*
G01X37237Y63585D01*
G01X37272Y63522D01*
G01X37310Y63457D01*
G01X37348Y63390D01*
G01X37387Y63320D01*
G01X37428Y63248D01*
G01X37471Y63175D01*
G01X37513Y63101D01*
G01X37602Y62948D01*
G01X37692Y62793D01*
G01X37784Y62637D01*
G01X37874Y62483D01*
G01X37964Y62331D01*
G01X38008Y62258D01*
G01X38051Y62186D01*
G01X38093Y62115D01*
G01X38135Y62046D01*
G01X38175Y61980D01*
G01X38213Y61916D01*
G01X38250Y61855D01*
G01X38286Y61798D01*
G01X38320Y61743D01*
G01X38351Y61691D01*
G01X38381Y61644D01*
G01X38409Y61600D01*
G01X38434Y61561D01*
G01X38457Y61526D01*
G01X38477Y61496D01*
G01X38495Y61470D01*
G01X38509Y61451D01*
G01X38521Y61436D01*
G01X38529Y61427D01*
G01X38533Y61424D01*
G01X38536Y61426D01*
G01X38541Y61432D01*
G01X38547Y61442D01*
G01X38555Y61457D01*
G01X38563Y61476D01*
G01X38574Y61498D01*
G01X38586Y61525D01*
G01X38599Y61555D01*
G01X38613Y61588D01*
G01X38629Y61626D01*
G01X38646Y61666D01*
G01X38664Y61710D01*
G01X38683Y61757D01*
G01X38704Y61808D01*
G01X38725Y61861D01*
G01X38747Y61917D01*
G01X38771Y61976D01*
G01X38795Y62038D01*
G01X38821Y62103D01*
G01X38847Y62170D01*
G01X38874Y62240D01*
G01X38902Y62312D01*
G01X38931Y62386D01*
G01X38961Y62463D01*
G01X38991Y62541D01*
G01X39022Y62622D01*
G01X39053Y62704D01*
G01X39086Y62789D01*
G01X39118Y62875D01*
G01X39151Y62962D01*
G01X39219Y63142D01*
G01X39254Y63234D01*
G01X39324Y63422D01*
G01X39395Y63613D01*
G01X39430Y63708D01*
G01X39464Y63801D01*
G01X39499Y63894D01*
G01X39565Y64074D01*
G01X39597Y64162D01*
G01X39629Y64249D01*
G01X39660Y64334D01*
G01X39690Y64417D01*
G01X39719Y64498D01*
G01X39747Y64577D01*
G01X39775Y64655D01*
G01X39802Y64730D01*
G01X39828Y64803D01*
G01X39853Y64873D01*
G01X39877Y64942D01*
G01X39900Y65007D01*
G01X39922Y65070D01*
G01X39943Y65130D01*
G01X39962Y65187D01*
G01X39981Y65242D01*
G01X39998Y65294D01*
G01X40015Y65342D01*
G01X40044Y65429D01*
G01X40056Y65467D01*
G01X40067Y65502D01*
G01X40077Y65533D01*
G01X40085Y65561D01*
G01X40092Y65585D01*
G01X40097Y65606D01*
G01X40102Y65621D01*
G01X40104Y65633D01*
G01X40105Y65642D01*
G01X40104Y65645D01*
G37*
G36*
G01X46337Y65654D02*
G01X45138Y66641D01*
G01X45138Y62993D01*
G01X45487Y63055D01*
G01X45525Y63062D01*
G01X45569Y63070D01*
G01X45616Y63078D01*
G01X45667Y63087D01*
G01X45721Y63098D01*
G01X45777Y63108D01*
G01X45836Y63119D01*
G01X45897Y63131D01*
G01X45959Y63142D01*
G01X46022Y63154D01*
G01X46149Y63179D01*
G01X46212Y63191D01*
G01X46274Y63203D01*
G01X46335Y63214D01*
G01X46393Y63226D01*
G01X46950Y63335D01*
G01X47036Y63577D01*
G01X47121Y63819D01*
G01X46729Y64736D01*
G01X46337Y65654D01*
G37*
G36*
G01X44952Y63002D02*
G01X44952Y66547D01*
G01X44836Y66479D01*
G01X44816Y66466D01*
G01X44788Y66446D01*
G01X44753Y66420D01*
G01X44712Y66389D01*
G01X44665Y66352D01*
G01X44614Y66312D01*
G01X44558Y66267D01*
G01X44498Y66219D01*
G01X44436Y66168D01*
G01X44373Y66116D01*
G01X44307Y66061D01*
G01X44242Y66006D01*
G01X43764Y65601D01*
G01X43381Y64679D01*
G01X42998Y63756D01*
G01X43101Y63529D01*
G01X43205Y63302D01*
G01X44009Y63163D01*
G01X44118Y63144D01*
G01X44224Y63125D01*
G01X44327Y63108D01*
G01X44423Y63091D01*
G01X44514Y63076D01*
G01X44597Y63061D01*
G01X44672Y63049D01*
G01X44737Y63038D01*
G01X44792Y63028D01*
G01X44835Y63021D01*
G01X44866Y63015D01*
G01X44882Y63013D01*
G01X44952Y63002D01*
G37*
G36*
G01X43178Y64749D02*
G01X43371Y65240D01*
G01X43208Y65146D01*
G01X43171Y65123D01*
G01X43127Y65094D01*
G01X43079Y65061D01*
G01X43028Y65024D01*
G01X42976Y64984D01*
G01X42923Y64944D01*
G01X42872Y64902D01*
G01X42825Y64863D01*
G01X42604Y64675D01*
G01X42840Y64107D01*
G01X42912Y64182D01*
G01X42931Y64207D01*
G01X42956Y64250D01*
G01X42986Y64309D01*
G01X43020Y64380D01*
G01X43058Y64461D01*
G01X43097Y64552D01*
G01X43138Y64648D01*
G01X43178Y64749D01*
G37*
G36*
G01X47552Y64658D02*
G01X46716Y65342D01*
G01X46914Y64846D01*
G01X46968Y64710D01*
G01X46994Y64644D01*
G01X47019Y64580D01*
G01X47044Y64519D01*
G01X47067Y64462D01*
G01X47088Y64409D01*
G01X47107Y64360D01*
G01X47124Y64318D01*
G01X47138Y64283D01*
G01X47150Y64254D01*
G01X47158Y64234D01*
G01X47182Y64180D01*
G01X47204Y64145D01*
G01X47227Y64130D01*
G01X47252Y64135D01*
G01X47281Y64162D01*
G01X47316Y64213D01*
G01X47359Y64287D01*
G01X47413Y64387D01*
G01X47552Y64658D01*
G37*
G36*
G01X39983Y68844D02*
G01X38921Y69686D01*
G01X38464Y68321D01*
G01X38446Y68269D01*
G01X38428Y68216D01*
G01X38410Y68161D01*
G01X38391Y68106D01*
G01X38371Y68050D01*
G01X38331Y67934D01*
G01X38310Y67875D01*
G01X38288Y67815D01*
G01X38267Y67754D01*
G01X38245Y67693D01*
G01X38201Y67569D01*
G01X38178Y67506D01*
G01X38108Y67315D01*
G01X38060Y67187D01*
G01X38037Y67122D01*
G01X38012Y67058D01*
G01X37940Y66866D01*
G01X37891Y66739D01*
G01X37843Y66613D01*
G01X37795Y66489D01*
G01X37772Y66428D01*
G01X37748Y66368D01*
G01X37702Y66250D01*
G01X37678Y66192D01*
G01X37656Y66135D01*
G01X37634Y66079D01*
G01X37611Y66025D01*
G01X37590Y65971D01*
G01X37568Y65919D01*
G01X37547Y65868D01*
G01X37527Y65818D01*
G01X37487Y65722D01*
G01X37445Y65622D01*
G01X37404Y65523D01*
G01X37364Y65427D01*
G01X37326Y65334D01*
G01X37290Y65244D01*
G01X37255Y65157D01*
G01X37223Y65074D01*
G01X37192Y64996D01*
G01X37163Y64921D01*
G01X37137Y64852D01*
G01X37113Y64788D01*
G01X37092Y64729D01*
G01X37073Y64675D01*
G01X37057Y64628D01*
G01X37044Y64587D01*
G01X37034Y64553D01*
G01X37027Y64526D01*
G01X37024Y64506D01*
G01X37023Y64494D01*
G01X37026Y64490D01*
G01X37032Y64491D01*
G01X37044Y64495D01*
G01X37061Y64502D01*
G01X37082Y64510D01*
G01X37108Y64521D01*
G01X37140Y64535D01*
G01X37175Y64550D01*
G01X37216Y64568D01*
G01X37260Y64588D01*
G01X37308Y64610D01*
G01X37360Y64633D01*
G01X37416Y64659D01*
G01X37476Y64687D01*
G01X37539Y64715D01*
G01X37605Y64746D01*
G01X37674Y64778D01*
G01X37747Y64812D01*
G01X37822Y64847D01*
G01X37899Y64883D01*
G01X37980Y64921D01*
G01X38062Y64959D01*
G01X38146Y64999D01*
G01X38233Y65040D01*
G01X38321Y65082D01*
G01X38411Y65124D01*
G01X38595Y65212D01*
G01X38689Y65257D01*
G01X40294Y66025D01*
G01X40669Y66933D01*
G01X40708Y67026D01*
G01X40745Y67118D01*
G01X40781Y67207D01*
G01X40815Y67293D01*
G01X40848Y67375D01*
G01X40879Y67454D01*
G01X40908Y67529D01*
G01X40935Y67599D01*
G01X40959Y67663D01*
G01X40981Y67722D01*
G01X41000Y67774D01*
G01X41015Y67819D01*
G01X41028Y67857D01*
G01X41037Y67887D01*
G01X41043Y67909D01*
G01X41045Y67922D01*
G01X41043Y67930D01*
G01X41035Y67941D01*
G01X41024Y67956D01*
G01X41007Y67973D01*
G01X40986Y67995D01*
G01X40962Y68020D01*
G01X40933Y68047D01*
G01X40900Y68077D01*
G01X40863Y68111D01*
G01X40823Y68147D01*
G01X40780Y68185D01*
G01X40733Y68226D01*
G01X40684Y68268D01*
G01X40631Y68314D01*
G01X40576Y68360D01*
G01X40518Y68409D01*
G01X40458Y68459D01*
G01X40395Y68511D01*
G01X40331Y68564D01*
G01X40265Y68618D01*
G01X40197Y68673D01*
G01X40126Y68729D01*
G01X40055Y68787D01*
G01X39983Y68844D01*
G37*
G36*
G01X51294Y69486D02*
G01X51231Y69691D01*
G01X50208Y68897D01*
G01X50124Y68831D01*
G01X50042Y68767D01*
G01X49961Y68704D01*
G01X49882Y68643D01*
G01X49805Y68583D01*
G01X49731Y68525D01*
G01X49660Y68469D01*
G01X49591Y68415D01*
G01X49526Y68364D01*
G01X49464Y68316D01*
G01X49407Y68271D01*
G01X49354Y68229D01*
G01X49305Y68190D01*
G01X49261Y68155D01*
G01X49223Y68124D01*
G01X49189Y68097D01*
G01X49161Y68075D01*
G01X49139Y68057D01*
G01X49124Y68043D01*
G01X49114Y68035D01*
G01X49044Y67968D01*
G01X49824Y66041D01*
G01X51411Y65271D01*
G01X51504Y65226D01*
G01X51596Y65181D01*
G01X51687Y65137D01*
G01X51776Y65094D01*
G01X51864Y65052D01*
G01X51950Y65011D01*
G01X52034Y64971D01*
G01X52116Y64932D01*
G01X52195Y64894D01*
G01X52273Y64858D01*
G01X52348Y64822D01*
G01X52420Y64788D01*
G01X52490Y64756D01*
G01X52556Y64725D01*
G01X52619Y64696D01*
G01X52679Y64668D01*
G01X52735Y64642D01*
G01X52788Y64618D01*
G01X52837Y64596D01*
G01X52881Y64576D01*
G01X52922Y64558D01*
G01X52959Y64542D01*
G01X52991Y64528D01*
G01X53018Y64517D01*
G01X53059Y64501D01*
G01X53071Y64497D01*
G01X53078Y64495D01*
G01X53158Y64490D01*
G01X53112Y64606D01*
G01X53108Y64617D01*
G01X53101Y64634D01*
G01X53092Y64657D01*
G01X53080Y64686D01*
G01X53066Y64720D01*
G01X53050Y64759D01*
G01X53032Y64802D01*
G01X53012Y64851D01*
G01X52990Y64904D01*
G01X52967Y64961D01*
G01X52941Y65022D01*
G01X52914Y65087D01*
G01X52886Y65156D01*
G01X52856Y65228D01*
G01X52825Y65303D01*
G01X52793Y65380D01*
G01X52760Y65461D01*
G01X52726Y65544D01*
G01X52690Y65629D01*
G01X52654Y65717D01*
G01X52618Y65806D01*
G01X52580Y65896D01*
G01X52504Y66080D01*
G01X52478Y66141D01*
G01X52454Y66202D01*
G01X52429Y66262D01*
G01X52405Y66321D01*
G01X52381Y66381D01*
G01X52357Y66440D01*
G01X52287Y66615D01*
G01X52264Y66673D01*
G01X52241Y66730D01*
G01X52197Y66846D01*
G01X52174Y66902D01*
G01X52152Y66960D01*
G01X52130Y67017D01*
G01X52109Y67074D01*
G01X52087Y67131D01*
G01X52023Y67302D01*
G01X51939Y67530D01*
G01X51918Y67588D01*
G01X51898Y67646D01*
G01X51877Y67704D01*
G01X51857Y67761D01*
G01X51836Y67819D01*
G01X51816Y67878D01*
G01X51775Y67996D01*
G01X51755Y68055D01*
G01X51713Y68175D01*
G01X51693Y68235D01*
G01X51652Y68357D01*
G01X51632Y68419D01*
G01X51611Y68481D01*
G01X51591Y68544D01*
G01X51570Y68607D01*
G01X51550Y68671D01*
G01X51508Y68800D01*
G01X51487Y68865D01*
G01X51467Y68931D01*
G01X51445Y68998D01*
G01X51424Y69066D01*
G01X51402Y69134D01*
G01X51360Y69272D01*
G01X51316Y69414D01*
G01X51294Y69486D01*
G37*
G36*
G01X48823Y67926D02*
G01X46600Y68745D01*
G01X45138Y67706D01*
G01X45138Y66926D01*
G01X46371Y65899D01*
G01X46443Y65839D01*
G01X46515Y65780D01*
G01X46585Y65721D01*
G01X46655Y65664D01*
G01X46723Y65608D01*
G01X46790Y65553D01*
G01X46855Y65500D01*
G01X46919Y65448D01*
G01X46982Y65398D01*
G01X47042Y65349D01*
G01X47101Y65302D01*
G01X47158Y65257D01*
G01X47212Y65213D01*
G01X47264Y65172D01*
G01X47314Y65133D01*
G01X47360Y65096D01*
G01X47405Y65062D01*
G01X47447Y65030D01*
G01X47485Y65001D01*
G01X47553Y64950D01*
G01X47582Y64929D01*
G01X47608Y64911D01*
G01X47630Y64895D01*
G01X47648Y64883D01*
G01X47663Y64875D01*
G01X47674Y64869D01*
G01X47680Y64867D01*
G01X47693Y64869D01*
G01X47743Y64889D01*
G01X47779Y64907D01*
G01X47823Y64928D01*
G01X47874Y64954D01*
G01X47930Y64984D01*
G01X47993Y65018D01*
G01X48060Y65054D01*
G01X48133Y65094D01*
G01X48209Y65138D01*
G01X48289Y65183D01*
G01X48372Y65231D01*
G01X48458Y65281D01*
G01X48547Y65333D01*
G01X48636Y65387D01*
G01X48726Y65440D01*
G01X48814Y65493D01*
G01X48899Y65545D01*
G01X48981Y65595D01*
G01X49059Y65644D01*
G01X49133Y65690D01*
G01X49203Y65734D01*
G01X49268Y65775D01*
G01X49328Y65814D01*
G01X49382Y65849D01*
G01X49429Y65880D01*
G01X49470Y65908D01*
G01X49503Y65931D01*
G01X49528Y65950D01*
G01X49545Y65965D01*
G01X49554Y65974D01*
G01X49556Y65985D01*
G01X49554Y66005D01*
G01X49548Y66035D01*
G01X49539Y66072D01*
G01X49526Y66118D01*
G01X49510Y66170D01*
G01X49490Y66230D01*
G01X49468Y66295D01*
G01X49443Y66366D01*
G01X49416Y66443D01*
G01X49386Y66524D01*
G01X49354Y66609D01*
G01X49320Y66698D01*
G01X49284Y66790D01*
G01X49247Y66885D01*
G01X49208Y66981D01*
G01X48823Y67926D01*
G37*
G36*
G01X44241Y68241D02*
G01X43530Y68740D01*
G01X42462Y68343D01*
G01X42374Y68310D01*
G01X42288Y68278D01*
G01X42204Y68245D01*
G01X42121Y68214D01*
G01X42041Y68182D01*
G01X41964Y68152D01*
G01X41889Y68122D01*
G01X41818Y68093D01*
G01X41750Y68066D01*
G01X41686Y68039D01*
G01X41626Y68014D01*
G01X41571Y67991D01*
G01X41520Y67969D01*
G01X41474Y67948D01*
G01X41434Y67930D01*
G01X41399Y67913D01*
G01X41370Y67899D01*
G01X41348Y67886D01*
G01X41331Y67876D01*
G01X41322Y67869D01*
G01X41313Y67856D01*
G01X41300Y67835D01*
G01X41284Y67805D01*
G01X41265Y67768D01*
G01X41243Y67723D01*
G01X41219Y67671D01*
G01X41192Y67613D01*
G01X41163Y67550D01*
G01X41132Y67481D01*
G01X41100Y67406D01*
G01X41066Y67328D01*
G01X41031Y67246D01*
G01X40994Y67161D01*
G01X40957Y67073D01*
G01X40919Y66982D01*
G01X40882Y66890D01*
G01X40513Y65987D01*
G01X42301Y64873D01*
G01X42420Y64891D01*
G01X42429Y64893D01*
G01X42441Y64899D01*
G01X42458Y64909D01*
G01X42478Y64921D01*
G01X42502Y64936D01*
G01X42530Y64954D01*
G01X42561Y64975D01*
G01X42595Y64998D01*
G01X42631Y65024D01*
G01X42672Y65053D01*
G01X42714Y65084D01*
G01X42759Y65117D01*
G01X42807Y65152D01*
G01X42857Y65190D01*
G01X42910Y65230D01*
G01X42965Y65271D01*
G01X43022Y65314D01*
G01X43080Y65360D01*
G01X43141Y65406D01*
G01X43203Y65455D01*
G01X43267Y65504D01*
G01X43332Y65556D01*
G01X43398Y65608D01*
G01X43466Y65661D01*
G01X43534Y65716D01*
G01X43674Y65828D01*
G01X43745Y65885D01*
G01X44951Y66862D01*
G01X44952Y67301D01*
G01X44952Y67740D01*
G01X44241Y68241D01*
G37*
G36*
G01X38024Y73587D02*
G01X37915Y73707D01*
G01X38441Y71050D01*
G01X38254Y69653D01*
G01X38243Y69571D01*
G01X38233Y69489D01*
G01X38221Y69407D01*
G01X38210Y69326D01*
G01X38200Y69245D01*
G01X38189Y69165D01*
G01X38178Y69086D01*
G01X38168Y69008D01*
G01X38157Y68931D01*
G01X38147Y68856D01*
G01X38137Y68782D01*
G01X38127Y68710D01*
G01X38118Y68640D01*
G01X38109Y68572D01*
G01X38100Y68506D01*
G01X38091Y68443D01*
G01X38083Y68382D01*
G01X38075Y68324D01*
G01X38067Y68269D01*
G01X38060Y68217D01*
G01X38053Y68168D01*
G01X38047Y68123D01*
G01X38041Y68081D01*
G01X38035Y68043D01*
G01X38031Y68009D01*
G01X38026Y67979D01*
G01X38023Y67953D01*
G01X38020Y67932D01*
G01X37971Y67606D01*
G01X38059Y67760D01*
G01X38068Y67782D01*
G01X38080Y67809D01*
G01X38092Y67843D01*
G01X38107Y67882D01*
G01X38123Y67926D01*
G01X38140Y67975D01*
G01X38159Y68029D01*
G01X38179Y68087D01*
G01X38200Y68149D01*
G01X38221Y68215D01*
G01X38268Y68356D01*
G01X38292Y68431D01*
G01X38316Y68508D01*
G01X38341Y68588D01*
G01X38367Y68669D01*
G01X38393Y68753D01*
G01X38419Y68836D01*
G01X38444Y68922D01*
G01X38758Y69958D01*
G01X39273Y70209D01*
G01X39345Y70244D01*
G01X39418Y70280D01*
G01X39490Y70316D01*
G01X39563Y70353D01*
G01X39633Y70389D01*
G01X39700Y70425D01*
G01X39764Y70459D01*
G01X39824Y70491D01*
G01X39878Y70522D01*
G01X39926Y70549D01*
G01X39968Y70574D01*
G01X40001Y70594D01*
G01X40213Y70730D01*
G01X39173Y72098D01*
G01X39112Y72179D01*
G01X39051Y72258D01*
G01X38991Y72337D01*
G01X38932Y72414D01*
G01X38874Y72490D01*
G01X38817Y72566D01*
G01X38760Y72639D01*
G01X38706Y72711D01*
G01X38652Y72781D01*
G01X38599Y72849D01*
G01X38549Y72915D01*
G01X38499Y72979D01*
G01X38452Y73041D01*
G01X38406Y73100D01*
G01X38363Y73156D01*
G01X38321Y73210D01*
G01X38282Y73261D01*
G01X38245Y73308D01*
G01X38210Y73353D01*
G01X38178Y73394D01*
G01X38148Y73432D01*
G01X38121Y73466D01*
G01X38097Y73496D01*
G01X38076Y73523D01*
G01X38058Y73545D01*
G01X38044Y73563D01*
G01X38032Y73577D01*
G01X38024Y73587D01*
G37*
G36*
G01X52181Y73643D02*
G01X52181Y73662D01*
G01X52177Y73661D01*
G01X52170Y73655D01*
G01X52159Y73644D01*
G01X52144Y73628D01*
G01X52126Y73607D01*
G01X52105Y73582D01*
G01X52081Y73553D01*
G01X52054Y73520D01*
G01X52024Y73483D01*
G01X51991Y73441D01*
G01X51956Y73397D01*
G01X51919Y73349D01*
G01X51879Y73299D01*
G01X51837Y73245D01*
G01X51794Y73189D01*
G01X51748Y73130D01*
G01X51701Y73069D01*
G01X51651Y73005D01*
G01X51601Y72940D01*
G01X51550Y72872D01*
G01X51497Y72803D01*
G01X51443Y72733D01*
G01X51389Y72661D01*
G01X51333Y72588D01*
G01X51278Y72515D01*
G01X51222Y72440D01*
G01X51051Y72215D01*
G01X50995Y72139D01*
G01X50938Y72064D01*
G01X50882Y71990D01*
G01X50827Y71915D01*
G01X50772Y71842D01*
G01X50718Y71770D01*
G01X50665Y71698D01*
G01X50614Y71628D01*
G01X50563Y71560D01*
G01X50513Y71493D01*
G01X50466Y71428D01*
G01X50420Y71365D01*
G01X50375Y71305D01*
G01X50333Y71247D01*
G01X50293Y71191D01*
G01X50254Y71139D01*
G01X50219Y71089D01*
G01X50186Y71042D01*
G01X50155Y70999D01*
G01X50127Y70959D01*
G01X50102Y70923D01*
G01X50080Y70891D01*
G01X50061Y70863D01*
G01X50046Y70840D01*
G01X50034Y70821D01*
G01X50026Y70806D01*
G01X50021Y70797D01*
G01X49977Y70676D01*
G01X50687Y70304D01*
G01X51398Y69932D01*
G01X51727Y68840D01*
G01X51754Y68751D01*
G01X51780Y68664D01*
G01X51806Y68579D01*
G01X51832Y68498D01*
G01X51857Y68419D01*
G01X51882Y68344D01*
G01X51905Y68271D01*
G01X51928Y68203D01*
G01X51949Y68139D01*
G01X51970Y68080D01*
G01X51989Y68025D01*
G01X52007Y67975D01*
G01X52024Y67930D01*
G01X52039Y67890D01*
G01X52052Y67857D01*
G01X52064Y67830D01*
G01X52074Y67809D01*
G01X52082Y67794D01*
G01X52089Y67786D01*
G01X52093Y67785D01*
G01X52095Y67792D01*
G01X52096Y67805D01*
G01X52096Y67825D01*
G01X52095Y67852D01*
G01X52093Y67886D01*
G01X52091Y67926D01*
G01X52087Y67971D01*
G01X52083Y68023D01*
G01X52078Y68079D01*
G01X52072Y68141D01*
G01X52064Y68208D01*
G01X52057Y68280D01*
G01X52049Y68356D01*
G01X52040Y68436D01*
G01X52030Y68520D01*
G01X52020Y68608D01*
G01X52009Y68699D01*
G01X51998Y68794D01*
G01X51986Y68891D01*
G01X51973Y68992D01*
G01X51960Y69094D01*
G01X51947Y69200D01*
G01X51933Y69306D01*
G01X51919Y69415D01*
G01X51707Y71007D01*
G01X51954Y72326D01*
G01X51973Y72434D01*
G01X51993Y72540D01*
G01X52012Y72643D01*
G01X52030Y72743D01*
G01X52048Y72840D01*
G01X52064Y72933D01*
G01X52080Y73022D01*
G01X52095Y73107D01*
G01X52109Y73187D01*
G01X52122Y73263D01*
G01X52134Y73333D01*
G01X52144Y73397D01*
G01X52154Y73455D01*
G01X52162Y73507D01*
G01X52169Y73552D01*
G01X52174Y73590D01*
G01X52178Y73620D01*
G01X52181Y73643D01*
G37*
G36*
G01X45993Y70308D02*
G01X45127Y70469D01*
G01X44483Y70362D01*
G01X44415Y70351D01*
G01X44345Y70339D01*
G01X44272Y70326D01*
G01X44197Y70313D01*
G01X44121Y70300D01*
G01X43969Y70273D01*
G01X43894Y70258D01*
G01X43819Y70245D01*
G01X43746Y70231D01*
G01X43676Y70217D01*
G01X43609Y70204D01*
G01X43545Y70192D01*
G01X43485Y70180D01*
G01X43429Y70168D01*
G01X43379Y70157D01*
G01X42918Y70059D01*
G01X42402Y69257D01*
G01X42350Y69175D01*
G01X42299Y69095D01*
G01X42251Y69018D01*
G01X42205Y68943D01*
G01X42161Y68871D01*
G01X42120Y68804D01*
G01X42082Y68740D01*
G01X42047Y68681D01*
G01X42016Y68627D01*
G01X41989Y68578D01*
G01X41965Y68536D01*
G01X41946Y68499D01*
G01X41932Y68469D01*
G01X41922Y68446D01*
G01X41917Y68431D01*
G01X41918Y68423D01*
G01X41929Y68422D01*
G01X41954Y68425D01*
G01X41990Y68434D01*
G01X42039Y68446D01*
G01X42096Y68463D01*
G01X42165Y68484D01*
G01X42240Y68508D01*
G01X42324Y68536D01*
G01X42414Y68567D01*
G01X42509Y68600D01*
G01X42610Y68636D01*
G01X42713Y68673D01*
G01X42817Y68711D01*
G01X42918Y68748D01*
G01X43015Y68783D01*
G01X43108Y68815D01*
G01X43195Y68845D01*
G01X43274Y68872D01*
G01X43346Y68896D01*
G01X43410Y68916D01*
G01X43462Y68933D01*
G01X43505Y68945D01*
G01X43535Y68952D01*
G01X43552Y68955D01*
G01X43564Y68952D01*
G01X43581Y68945D01*
G01X43606Y68932D01*
G01X43636Y68915D01*
G01X43671Y68893D01*
G01X43712Y68868D01*
G01X43757Y68838D01*
G01X43807Y68806D01*
G01X43861Y68769D01*
G01X43918Y68730D01*
G01X43978Y68689D01*
G01X44041Y68644D01*
G01X44107Y68598D01*
G01X44174Y68549D01*
G01X44243Y68499D01*
G01X44313Y68447D01*
G01X44999Y67939D01*
G01X45109Y67977D01*
G01X45124Y67983D01*
G01X45145Y67994D01*
G01X45171Y68009D01*
G01X45203Y68029D01*
G01X45240Y68052D01*
G01X45282Y68078D01*
G01X45328Y68108D01*
G01X45378Y68141D01*
G01X45430Y68178D01*
G01X45487Y68216D01*
G01X45546Y68257D01*
G01X45607Y68299D01*
G01X45670Y68344D01*
G01X45735Y68389D01*
G01X45800Y68437D01*
G01X45867Y68485D01*
G01X45955Y68548D01*
G01X46041Y68609D01*
G01X46124Y68667D01*
G01X46204Y68722D01*
G01X46278Y68772D01*
G01X46347Y68817D01*
G01X46410Y68857D01*
G01X46465Y68891D01*
G01X46512Y68918D01*
G01X46550Y68938D01*
G01X46578Y68951D01*
G01X46595Y68955D01*
G01X46613Y68952D01*
G01X46643Y68945D01*
G01X46684Y68933D01*
G01X46736Y68917D01*
G01X46797Y68897D01*
G01X46866Y68873D01*
G01X46943Y68846D01*
G01X47026Y68817D01*
G01X47114Y68784D01*
G01X47207Y68750D01*
G01X47303Y68713D01*
G01X47402Y68676D01*
G01X47501Y68638D01*
G01X47598Y68602D01*
G01X47691Y68568D01*
G01X47779Y68535D01*
G01X47863Y68506D01*
G01X47940Y68479D01*
G01X48010Y68455D01*
G01X48072Y68435D01*
G01X48124Y68419D01*
G01X48167Y68407D01*
G01X48198Y68400D01*
G01X48216Y68397D01*
G01X48306Y68397D01*
G01X47189Y70057D01*
G01X47024Y70102D01*
G01X47003Y70107D01*
G01X46973Y70114D01*
G01X46936Y70123D01*
G01X46892Y70132D01*
G01X46841Y70143D01*
G01X46784Y70155D01*
G01X46721Y70167D01*
G01X46653Y70181D01*
G01X46581Y70195D01*
G01X46504Y70210D01*
G01X46425Y70226D01*
G01X46342Y70242D01*
G01X46257Y70258D01*
G01X46170Y70275D01*
G01X46082Y70291D01*
G01X45993Y70308D01*
G37*
G36*
G01X48635Y71080D02*
G01X48630Y71080D01*
G01X48625Y71072D01*
G01X48617Y71057D01*
G01X48604Y71036D01*
G01X48589Y71007D01*
G01X48570Y70972D01*
G01X48549Y70930D01*
G01X48524Y70883D01*
G01X48497Y70831D01*
G01X48468Y70774D01*
G01X48436Y70713D01*
G01X48403Y70648D01*
G01X48369Y70580D01*
G01X48332Y70508D01*
G01X48295Y70434D01*
G01X48256Y70357D01*
G01X48217Y70279D01*
G01X47832Y69510D01*
G01X48170Y68977D01*
G01X48233Y68879D01*
G01X48293Y68787D01*
G01X48351Y68699D01*
G01X48406Y68617D01*
G01X48459Y68541D01*
G01X48509Y68470D01*
G01X48557Y68406D01*
G01X48601Y68347D01*
G01X48643Y68295D01*
G01X48681Y68249D01*
G01X48716Y68210D01*
G01X48747Y68177D01*
G01X48775Y68151D01*
G01X48798Y68133D01*
G01X48819Y68122D01*
G01X48835Y68118D01*
G01X48842Y68121D01*
G01X48855Y68128D01*
G01X48875Y68141D01*
G01X48901Y68159D01*
G01X48932Y68182D01*
G01X48969Y68208D01*
G01X49012Y68239D01*
G01X49059Y68274D01*
G01X49111Y68313D01*
G01X49168Y68355D01*
G01X49229Y68400D01*
G01X49293Y68449D01*
G01X49361Y68500D01*
G01X49432Y68554D01*
G01X49507Y68611D01*
G01X49584Y68670D01*
G01X49663Y68731D01*
G01X49745Y68794D01*
G01X49828Y68858D01*
G01X49914Y68924D01*
G01X49984Y68979D01*
G01X50054Y69033D01*
G01X50123Y69087D01*
G01X50191Y69140D01*
G01X50258Y69191D01*
G01X50322Y69242D01*
G01X50385Y69291D01*
G01X50447Y69339D01*
G01X50506Y69385D01*
G01X50563Y69429D01*
G01X50617Y69471D01*
G01X50669Y69512D01*
G01X50718Y69550D01*
G01X50764Y69586D01*
G01X50807Y69620D01*
G01X50847Y69651D01*
G01X50883Y69680D01*
G01X50916Y69706D01*
G01X50945Y69728D01*
G01X50970Y69748D01*
G01X50991Y69765D01*
G01X51007Y69778D01*
G01X51027Y69793D01*
G01X51101Y69857D01*
G01X49880Y70484D01*
G01X49796Y70527D01*
G01X49714Y70569D01*
G01X49634Y70609D01*
G01X49555Y70649D01*
G01X49478Y70688D01*
G01X49404Y70725D01*
G01X49331Y70761D01*
G01X49261Y70796D01*
G01X49193Y70829D01*
G01X49129Y70860D01*
G01X49067Y70890D01*
G01X49009Y70918D01*
G01X48954Y70944D01*
G01X48903Y70967D01*
G01X48855Y70990D01*
G01X48812Y71010D01*
G01X48773Y71027D01*
G01X48738Y71042D01*
G01X48707Y71055D01*
G01X48682Y71065D01*
G01X48661Y71073D01*
G01X48645Y71078D01*
G01X48635Y71080D01*
G37*
G36*
G01X41474Y71089D02*
G01X41464Y71094D01*
G01X41457Y71092D01*
G01X41442Y71086D01*
G01X41420Y71077D01*
G01X41391Y71063D01*
G01X41355Y71046D01*
G01X41313Y71025D01*
G01X41265Y71002D01*
G01X41212Y70975D01*
G01X41153Y70946D01*
G01X41089Y70913D01*
G01X41021Y70879D01*
G01X40948Y70841D01*
G01X40872Y70802D01*
G01X40791Y70761D01*
G01X40707Y70717D01*
G01X40620Y70672D01*
G01X40531Y70626D01*
G01X40439Y70577D01*
G01X40344Y70528D01*
G01X40248Y70478D01*
G01X39076Y69861D01*
G01X39200Y69739D01*
G01X39214Y69726D01*
G01X39233Y69709D01*
G01X39258Y69688D01*
G01X39289Y69662D01*
G01X39325Y69633D01*
G01X39365Y69599D01*
G01X39411Y69563D01*
G01X39461Y69523D01*
G01X39515Y69481D01*
G01X39572Y69435D01*
G01X39633Y69387D01*
G01X39698Y69336D01*
G01X39765Y69283D01*
G01X39835Y69229D01*
G01X39907Y69173D01*
G01X39981Y69115D01*
G01X40057Y69057D01*
G01X40135Y68997D01*
G01X40213Y68936D01*
G01X40293Y68876D01*
G01X41261Y68135D01*
G01X41362Y68176D01*
G01X41380Y68187D01*
G01X41404Y68208D01*
G01X41433Y68239D01*
G01X41468Y68279D01*
G01X41507Y68326D01*
G01X41550Y68381D01*
G01X41597Y68442D01*
G01X41646Y68509D01*
G01X41698Y68581D01*
G01X41750Y68657D01*
G01X41805Y68736D01*
G01X41859Y68818D01*
G01X41913Y68899D01*
G01X41964Y68980D01*
G01X42013Y69058D01*
G01X42058Y69133D01*
G01X42101Y69204D01*
G01X42138Y69270D01*
G01X42172Y69330D01*
G01X42200Y69384D01*
G01X42223Y69430D01*
G01X42240Y69467D01*
G01X42251Y69496D01*
G01X42254Y69514D01*
G01X42252Y69532D01*
G01X42244Y69559D01*
G01X42231Y69595D01*
G01X42214Y69640D01*
G01X42192Y69691D01*
G01X42168Y69748D01*
G01X42140Y69812D01*
G01X42108Y69880D01*
G01X42075Y69952D01*
G01X42039Y70028D01*
G01X42001Y70106D01*
G01X41962Y70187D01*
G01X41882Y70349D01*
G01X41841Y70430D01*
G01X41800Y70510D01*
G01X41761Y70588D01*
G01X41722Y70663D01*
G01X41683Y70735D01*
G01X41647Y70802D01*
G01X41613Y70864D01*
G01X41581Y70921D01*
G01X41553Y70971D01*
G01X41527Y71013D01*
G01X41505Y71048D01*
G01X41487Y71073D01*
G01X41474Y71089D01*
G37*
G36*
G01X45198Y72397D02*
G01X45131Y72397D01*
G01X45158Y71537D01*
G01X45185Y70678D01*
G01X47282Y70277D01*
G01X47479Y70027D01*
G01X47675Y69777D01*
G01X47939Y70226D01*
G01X47976Y70289D01*
G01X48050Y70421D01*
G01X48087Y70488D01*
G01X48122Y70555D01*
G01X48157Y70620D01*
G01X48190Y70683D01*
G01X48248Y70799D01*
G01X48273Y70850D01*
G01X48294Y70895D01*
G01X48311Y70934D01*
G01X48350Y71038D01*
G01X48377Y71125D01*
G01X48389Y71190D01*
G01X48383Y71221D01*
G01X48376Y71225D01*
G01X48363Y71231D01*
G01X48343Y71240D01*
G01X48318Y71250D01*
G01X48287Y71263D01*
G01X48251Y71278D01*
G01X48210Y71294D01*
G01X48163Y71312D01*
G01X48113Y71332D01*
G01X48057Y71353D01*
G01X47998Y71376D01*
G01X47935Y71400D01*
G01X47868Y71426D01*
G01X47798Y71452D01*
G01X47725Y71480D01*
G01X47649Y71508D01*
G01X47571Y71537D01*
G01X47490Y71568D01*
G01X47408Y71599D01*
G01X47323Y71630D01*
G01X47237Y71662D01*
G01X47150Y71695D01*
G01X47062Y71728D01*
G01X46883Y71794D01*
G01X46793Y71827D01*
G01X46613Y71894D01*
G01X46524Y71927D01*
G01X46348Y71991D01*
G01X46262Y72022D01*
G01X46178Y72053D01*
G01X46095Y72083D01*
G01X46014Y72112D01*
G01X45935Y72141D01*
G01X45860Y72168D01*
G01X45787Y72195D01*
G01X45716Y72220D01*
G01X45649Y72244D01*
G01X45586Y72266D01*
G01X45527Y72288D01*
G01X45472Y72307D01*
G01X45420Y72325D01*
G01X45374Y72341D01*
G01X45332Y72355D01*
G01X45296Y72368D01*
G01X45265Y72378D01*
G01X45239Y72386D01*
G01X45219Y72392D01*
G01X45206Y72395D01*
G01X45198Y72397D01*
G37*
G36*
G01X44918Y72392D02*
G01X44914Y72397D01*
G01X44908Y72395D01*
G01X44896Y72392D01*
G01X44877Y72386D01*
G01X44853Y72379D01*
G01X44824Y72369D01*
G01X44790Y72357D01*
G01X44751Y72344D01*
G01X44707Y72328D01*
G01X44659Y72311D01*
G01X44606Y72293D01*
G01X44551Y72273D01*
G01X44491Y72251D01*
G01X44428Y72229D01*
G01X44361Y72205D01*
G01X44292Y72180D01*
G01X44220Y72154D01*
G01X44146Y72127D01*
G01X44070Y72099D01*
G01X43991Y72070D01*
G01X43911Y72041D01*
G01X43830Y72011D01*
G01X43747Y71981D01*
G01X43664Y71950D01*
G01X43580Y71919D01*
G01X43495Y71888D01*
G01X43325Y71825D01*
G01X43157Y71763D01*
G01X43074Y71733D01*
G01X42992Y71702D01*
G01X42911Y71672D01*
G01X42832Y71642D01*
G01X42755Y71613D01*
G01X42679Y71585D01*
G01X42606Y71557D01*
G01X42535Y71531D01*
G01X42468Y71505D01*
G01X42403Y71481D01*
G01X42341Y71457D01*
G01X42283Y71435D01*
G01X42229Y71414D01*
G01X42179Y71395D01*
G01X42133Y71376D01*
G01X42091Y71360D01*
G01X42054Y71346D01*
G01X42022Y71333D01*
G01X41995Y71322D01*
G01X41690Y71194D01*
G01X41939Y70702D01*
G01X41974Y70634D01*
G01X42010Y70565D01*
G01X42083Y70425D01*
G01X42120Y70358D01*
G01X42156Y70293D01*
G01X42190Y70230D01*
G01X42223Y70172D01*
G01X42253Y70119D01*
G01X42281Y70072D01*
G01X42306Y70031D01*
G01X42328Y69998D01*
G01X42467Y69784D01*
G01X42710Y70056D01*
G01X42952Y70328D01*
G01X43952Y70491D01*
G01X44952Y70655D01*
G01X44952Y71615D01*
G01X44951Y71701D01*
G01X44950Y71784D01*
G01X44949Y71864D01*
G01X44947Y71940D01*
G01X44946Y72012D01*
G01X44943Y72079D01*
G01X44941Y72141D01*
G01X44938Y72197D01*
G01X44936Y72248D01*
G01X44932Y72291D01*
G01X44929Y72328D01*
G01X44925Y72357D01*
G01X44922Y72379D01*
G01X44918Y72392D01*
G37*
G36*
G01X43512Y77682D02*
G01X43510Y77682D01*
G01X43505Y77680D01*
G01X43487Y77671D01*
G01X43474Y77663D01*
G01X43458Y77654D01*
G01X43439Y77644D01*
G01X43418Y77631D01*
G01X43395Y77618D01*
G01X43369Y77603D01*
G01X43341Y77586D01*
G01X43310Y77568D01*
G01X43278Y77549D01*
G01X43242Y77528D01*
G01X43205Y77505D01*
G01X43166Y77482D01*
G01X43125Y77457D01*
G01X43081Y77431D01*
G01X43036Y77403D01*
G01X42990Y77375D01*
G01X42941Y77345D01*
G01X42890Y77314D01*
G01X42838Y77282D01*
G01X42728Y77216D01*
G01X42670Y77181D01*
G01X42612Y77145D01*
G01X42552Y77108D01*
G01X42490Y77071D01*
G01X42427Y77032D01*
G01X42363Y76992D01*
G01X42298Y76953D01*
G01X42232Y76912D01*
G01X42164Y76870D01*
G01X42095Y76828D01*
G01X42025Y76785D01*
G01X41955Y76741D01*
G01X41883Y76697D01*
G01X41810Y76653D01*
G01X41737Y76608D01*
G01X41664Y76562D01*
G01X41514Y76470D01*
G01X41438Y76423D01*
G01X41361Y76376D01*
G01X41285Y76328D01*
G01X41207Y76280D01*
G01X41130Y76232D01*
G01X40974Y76136D01*
G01X40896Y76087D01*
G01X40817Y76039D01*
G01X40739Y75990D01*
G01X40660Y75941D01*
G01X40503Y75844D01*
G01X40425Y75795D01*
G01X40347Y75747D01*
G01X40269Y75698D01*
G01X40191Y75650D01*
G01X40037Y75554D01*
G01X39961Y75507D01*
G01X39809Y75412D01*
G01X39661Y75320D01*
G01X39588Y75274D01*
G01X39515Y75229D01*
G01X39444Y75184D01*
G01X39373Y75140D01*
G01X39303Y75096D01*
G01X39234Y75053D01*
G01X39100Y74969D01*
G01X39035Y74928D01*
G01X38971Y74888D01*
G01X38908Y74849D01*
G01X38846Y74809D01*
G01X38786Y74772D01*
G01X38727Y74735D01*
G01X38670Y74699D01*
G01X38614Y74664D01*
G01X38560Y74630D01*
G01X38507Y74596D01*
G01X38457Y74564D01*
G01X38408Y74533D01*
G01X38361Y74503D01*
G01X38315Y74474D01*
G01X38272Y74447D01*
G01X38231Y74420D01*
G01X38191Y74395D01*
G01X38154Y74371D01*
G01X38119Y74349D01*
G01X38086Y74327D01*
G01X38055Y74308D01*
G01X38027Y74289D01*
G01X38001Y74272D01*
G01X37978Y74257D01*
G01X37938Y74230D01*
G01X37922Y74219D01*
G01X37908Y74210D01*
G01X37898Y74202D01*
G01X37898Y74199D01*
G01X37901Y74191D01*
G01X37908Y74180D01*
G01X37918Y74163D01*
G01X37930Y74143D01*
G01X37946Y74120D01*
G01X37964Y74092D01*
G01X37986Y74061D01*
G01X38010Y74026D01*
G01X38037Y73988D01*
G01X38065Y73946D01*
G01X38097Y73902D01*
G01X38132Y73853D01*
G01X38168Y73803D01*
G01X38207Y73749D01*
G01X38248Y73692D01*
G01X38291Y73633D01*
G01X38336Y73571D01*
G01X38382Y73507D01*
G01X38431Y73440D01*
G01X38482Y73371D01*
G01X38534Y73300D01*
G01X38588Y73228D01*
G01X38700Y73076D01*
G01X38758Y72997D01*
G01X38818Y72917D01*
G01X38879Y72836D01*
G01X38941Y72753D01*
G01X39004Y72669D01*
G01X39068Y72584D01*
G01X39132Y72498D01*
G01X40398Y70815D01*
G01X41024Y71126D01*
G01X41077Y71152D01*
G01X41131Y71179D01*
G01X41188Y71206D01*
G01X41246Y71234D01*
G01X41305Y71261D01*
G01X41365Y71289D01*
G01X41425Y71316D01*
G01X41608Y71397D01*
G01X41668Y71422D01*
G01X41727Y71448D01*
G01X41785Y71472D01*
G01X41841Y71495D01*
G01X41896Y71518D01*
G01X41948Y71538D01*
G01X41998Y71558D01*
G01X42046Y71577D01*
G01X42091Y71593D01*
G01X42133Y71608D01*
G01X42615Y71778D01*
G01X42718Y72390D01*
G01X42728Y72455D01*
G01X42740Y72521D01*
G01X42751Y72589D01*
G01X42762Y72658D01*
G01X42774Y72728D01*
G01X42785Y72799D01*
G01X42809Y72945D01*
G01X42833Y73095D01*
G01X42846Y73172D01*
G01X42858Y73249D01*
G01X42871Y73327D01*
G01X42883Y73405D01*
G01X42896Y73485D01*
G01X42921Y73645D01*
G01X42934Y73726D01*
G01X42960Y73890D01*
G01X42973Y73973D01*
G01X42985Y74056D01*
G01X42999Y74138D01*
G01X43025Y74306D01*
G01X43038Y74389D01*
G01X43050Y74473D01*
G01X43064Y74556D01*
G01X43076Y74640D01*
G01X43089Y74724D01*
G01X43115Y74890D01*
G01X43140Y75056D01*
G01X43153Y75138D01*
G01X43177Y75302D01*
G01X43190Y75383D01*
G01X43202Y75463D01*
G01X43214Y75544D01*
G01X43226Y75623D01*
G01X43250Y75779D01*
G01X43261Y75856D01*
G01X43272Y75932D01*
G01X43284Y76007D01*
G01X43295Y76081D01*
G01X43305Y76155D01*
G01X43316Y76227D01*
G01X43327Y76298D01*
G01X43337Y76368D01*
G01X43347Y76437D01*
G01X43357Y76504D01*
G01X43366Y76570D01*
G01X43376Y76635D01*
G01X43385Y76698D01*
G01X43394Y76760D01*
G01X43403Y76820D01*
G01X43411Y76879D01*
G01X43419Y76936D01*
G01X43427Y76991D01*
G01X43435Y77045D01*
G01X43442Y77097D01*
G01X43449Y77147D01*
G01X43455Y77195D01*
G01X43461Y77241D01*
G01X43468Y77285D01*
G01X43473Y77328D01*
G01X43478Y77368D01*
G01X43483Y77406D01*
G01X43488Y77441D01*
G01X43492Y77475D01*
G01X43496Y77506D01*
G01X43500Y77535D01*
G01X43503Y77561D01*
G01X43506Y77585D01*
G01X43508Y77607D01*
G01X43510Y77625D01*
G01X43511Y77642D01*
G01X43512Y77655D01*
G01X43513Y77666D01*
G01X43513Y77680D01*
G01X43512Y77682D01*
G37*
G36*
G01X49441Y75954D02*
G01X46673Y77698D01*
G01X46644Y77562D01*
G01X46643Y77557D01*
G01X46643Y77538D01*
G01X46644Y77524D01*
G01X46645Y77507D01*
G01X46647Y77489D01*
G01X46649Y77467D01*
G01X46651Y77442D01*
G01X46654Y77415D01*
G01X46658Y77387D01*
G01X46661Y77355D01*
G01X46665Y77321D01*
G01X46669Y77285D01*
G01X46675Y77246D01*
G01X46680Y77206D01*
G01X46685Y77163D01*
G01X46691Y77118D01*
G01X46697Y77072D01*
G01X46703Y77023D01*
G01X46710Y76972D01*
G01X46717Y76920D01*
G01X46725Y76866D01*
G01X46732Y76810D01*
G01X46740Y76752D01*
G01X46749Y76693D01*
G01X46757Y76632D01*
G01X46765Y76570D01*
G01X46775Y76507D01*
G01X46784Y76442D01*
G01X46793Y76375D01*
G01X46803Y76308D01*
G01X46813Y76238D01*
G01X46823Y76169D01*
G01X46833Y76098D01*
G01X46844Y76026D01*
G01X46854Y75952D01*
G01X46876Y75804D01*
G01X46899Y75651D01*
G01X46910Y75574D01*
G01X46921Y75496D01*
G01X46933Y75418D01*
G01X46945Y75338D01*
G01X46957Y75259D01*
G01X46981Y75099D01*
G01X47017Y74856D01*
G01X47030Y74774D01*
G01X47055Y74612D01*
G01X47067Y74530D01*
G01X47080Y74449D01*
G01X47092Y74367D01*
G01X47105Y74287D01*
G01X47117Y74206D01*
G01X47130Y74125D01*
G01X47142Y74045D01*
G01X47155Y73965D01*
G01X47179Y73807D01*
G01X47192Y73729D01*
G01X47204Y73651D01*
G01X47216Y73575D01*
G01X47228Y73498D01*
G01X47252Y73348D01*
G01X47276Y73202D01*
G01X47298Y73060D01*
G01X47310Y72990D01*
G01X47321Y72922D01*
G01X47332Y72855D01*
G01X47343Y72789D01*
G01X47353Y72725D01*
G01X47364Y72662D01*
G01X47384Y72540D01*
G01X47394Y72482D01*
G01X47404Y72425D01*
G01X47413Y72370D01*
G01X47422Y72317D01*
G01X47431Y72265D01*
G01X47440Y72216D01*
G01X47449Y72168D01*
G01X47515Y71799D01*
G01X48117Y71562D01*
G01X48168Y71542D01*
G01X48221Y71521D01*
G01X48275Y71498D01*
G01X48331Y71474D01*
G01X48388Y71451D01*
G01X48445Y71425D01*
G01X48504Y71400D01*
G01X48562Y71374D01*
G01X48621Y71347D01*
G01X48737Y71295D01*
G01X48794Y71268D01*
G01X48850Y71242D01*
G01X48904Y71216D01*
G01X48956Y71190D01*
G01X49007Y71166D01*
G01X49056Y71142D01*
G01X49102Y71118D01*
G01X49144Y71096D01*
G01X49185Y71075D01*
G01X49279Y71024D01*
G01X49369Y70977D01*
G01X49452Y70934D01*
G01X49527Y70897D01*
G01X49590Y70866D01*
G01X49642Y70842D01*
G01X49677Y70827D01*
G01X49696Y70821D01*
G01X49700Y70823D01*
G01X49707Y70829D01*
G01X49717Y70839D01*
G01X49730Y70853D01*
G01X49764Y70892D01*
G01X49785Y70917D01*
G01X49808Y70945D01*
G01X49834Y70977D01*
G01X49863Y71011D01*
G01X49893Y71049D01*
G01X49926Y71090D01*
G01X49961Y71135D01*
G01X49998Y71181D01*
G01X50038Y71231D01*
G01X50079Y71283D01*
G01X50121Y71338D01*
G01X50166Y71396D01*
G01X50212Y71455D01*
G01X50261Y71517D01*
G01X50310Y71581D01*
G01X50361Y71647D01*
G01X50413Y71715D01*
G01X50466Y71785D01*
G01X50521Y71856D01*
G01X50577Y71930D01*
G01X50634Y72005D01*
G01X50692Y72081D01*
G01X50751Y72159D01*
G01X50811Y72237D01*
G01X50871Y72317D01*
G01X50993Y72479D01*
G01X51053Y72560D01*
G01X51113Y72639D01*
G01X51171Y72718D01*
G01X51229Y72796D01*
G01X51286Y72872D01*
G01X51342Y72947D01*
G01X51397Y73021D01*
G01X51450Y73093D01*
G01X51503Y73164D01*
G01X51553Y73233D01*
G01X51603Y73300D01*
G01X51651Y73365D01*
G01X51697Y73429D01*
G01X51741Y73490D01*
G01X51785Y73549D01*
G01X51825Y73605D01*
G01X51864Y73659D01*
G01X51901Y73710D01*
G01X51936Y73759D01*
G01X51969Y73805D01*
G01X51999Y73848D01*
G01X52028Y73888D01*
G01X52054Y73925D01*
G01X52077Y73959D01*
G01X52098Y73989D01*
G01X52116Y74015D01*
G01X52131Y74039D01*
G01X52144Y74059D01*
G01X52154Y74074D01*
G01X52160Y74087D01*
G01X52164Y74095D01*
G01X52208Y74211D01*
G01X49441Y75954D01*
G37*
G36*
G01X44930Y75652D02*
G01X44955Y78652D01*
G01X44697Y78485D01*
G01X44660Y78461D01*
G01X44619Y78435D01*
G01X44574Y78406D01*
G01X44526Y78375D01*
G01X44477Y78343D01*
G01X44427Y78311D01*
G01X44376Y78278D01*
G01X44325Y78246D01*
G01X44275Y78214D01*
G01X44226Y78183D01*
G01X44180Y78153D01*
G01X44136Y78125D01*
G01X43832Y77932D01*
G01X43789Y77746D01*
G01X43786Y77734D01*
G01X43783Y77719D01*
G01X43779Y77700D01*
G01X43775Y77679D01*
G01X43771Y77654D01*
G01X43766Y77626D01*
G01X43761Y77595D01*
G01X43755Y77561D01*
G01X43748Y77524D01*
G01X43741Y77485D01*
G01X43734Y77442D01*
G01X43727Y77398D01*
G01X43719Y77350D01*
G01X43710Y77300D01*
G01X43702Y77247D01*
G01X43693Y77192D01*
G01X43683Y77136D01*
G01X43674Y77077D01*
G01X43664Y77015D01*
G01X43653Y76952D01*
G01X43643Y76887D01*
G01X43621Y76751D01*
G01X43610Y76679D01*
G01X43598Y76607D01*
G01X43586Y76533D01*
G01X43574Y76458D01*
G01X43562Y76381D01*
G01X43549Y76303D01*
G01X43537Y76224D01*
G01X43524Y76143D01*
G01X43511Y76061D01*
G01X43485Y75895D01*
G01X43472Y75810D01*
G01X43458Y75725D01*
G01X43445Y75639D01*
G01X43417Y75465D01*
G01X43404Y75377D01*
G01X43362Y75112D01*
G01X43334Y74934D01*
G01X43293Y74667D01*
G01X43266Y74490D01*
G01X43238Y74315D01*
G01X43212Y74141D01*
G01X43199Y74056D01*
G01X43186Y73970D01*
G01X43173Y73886D01*
G01X43160Y73803D01*
G01X43147Y73721D01*
G01X43123Y73559D01*
G01X43099Y73403D01*
G01X43088Y73327D01*
G01X43076Y73252D01*
G01X43065Y73178D01*
G01X43055Y73107D01*
G01X43044Y73037D01*
G01X43034Y72968D01*
G01X43024Y72902D01*
G01X43014Y72837D01*
G01X43005Y72775D01*
G01X42996Y72714D01*
G01X42987Y72656D01*
G01X42979Y72600D01*
G01X42971Y72546D01*
G01X42964Y72495D01*
G01X42956Y72445D01*
G01X42950Y72399D01*
G01X42944Y72355D01*
G01X42938Y72314D01*
G01X42933Y72275D01*
G01X42928Y72239D01*
G01X42923Y72206D01*
G01X42919Y72177D01*
G01X42915Y72150D01*
G01X42913Y72127D01*
G01X42910Y72106D01*
G01X42908Y72089D01*
G01X42907Y72075D01*
G01X42906Y72065D01*
G01X42906Y71919D01*
G01X43115Y71985D01*
G01X43140Y71993D01*
G01X43173Y72004D01*
G01X43213Y72018D01*
G01X43259Y72034D01*
G01X43310Y72053D01*
G01X43367Y72073D01*
G01X43429Y72095D01*
G01X43495Y72120D01*
G01X43565Y72145D01*
G01X43638Y72172D01*
G01X43713Y72200D01*
G01X43792Y72229D01*
G01X43871Y72259D01*
G01X43952Y72289D01*
G01X44033Y72320D01*
G01X44115Y72351D01*
G01X44906Y72651D01*
G01X44930Y75652D01*
G37*
G36*
G01X45346Y78526D02*
G01X45136Y78637D01*
G01X45160Y75647D01*
G01X45185Y72657D01*
G01X46115Y72301D01*
G01X46210Y72264D01*
G01X46304Y72229D01*
G01X46396Y72195D01*
G01X46486Y72162D01*
G01X46572Y72131D01*
G01X46654Y72101D01*
G01X46733Y72073D01*
G01X46807Y72047D01*
G01X46875Y72024D01*
G01X46995Y71984D01*
G01X47044Y71969D01*
G01X47121Y71947D01*
G01X47146Y71941D01*
G01X47163Y71938D01*
G01X47281Y71932D01*
G01X47234Y72141D01*
G01X47231Y72156D01*
G01X47227Y72175D01*
G01X47223Y72200D01*
G01X47218Y72228D01*
G01X47211Y72261D01*
G01X47205Y72298D01*
G01X47198Y72340D01*
G01X47190Y72385D01*
G01X47173Y72485D01*
G01X47164Y72541D01*
G01X47155Y72600D01*
G01X47144Y72662D01*
G01X47134Y72726D01*
G01X47123Y72793D01*
G01X47112Y72863D01*
G01X47100Y72935D01*
G01X47089Y73010D01*
G01X47076Y73086D01*
G01X47064Y73164D01*
G01X47051Y73244D01*
G01X47039Y73326D01*
G01X47026Y73409D01*
G01X47013Y73493D01*
G01X47000Y73578D01*
G01X46986Y73664D01*
G01X46973Y73751D01*
G01X46960Y73839D01*
G01X46951Y73895D01*
G01X46942Y73953D01*
G01X46933Y74012D01*
G01X46923Y74072D01*
G01X46914Y74133D01*
G01X46905Y74195D01*
G01X46895Y74258D01*
G01X46875Y74386D01*
G01X46845Y74584D01*
G01X46834Y74651D01*
G01X46824Y74719D01*
G01X46803Y74855D01*
G01X46728Y75335D01*
G01X46707Y75471D01*
G01X46696Y75539D01*
G01X46685Y75606D01*
G01X46675Y75673D01*
G01X46665Y75738D01*
G01X46654Y75804D01*
G01X46634Y75932D01*
G01X46624Y75995D01*
G01X46615Y76057D01*
G01X46605Y76118D01*
G01X46595Y76178D01*
G01X46577Y76294D01*
G01X46568Y76350D01*
G01X46559Y76405D01*
G01X46551Y76459D01*
G01X46542Y76511D01*
G01X46535Y76562D01*
G01X46527Y76610D01*
G01X46322Y77894D01*
G01X45939Y78155D01*
G01X45886Y78191D01*
G01X45774Y78265D01*
G01X45662Y78337D01*
G01X45607Y78372D01*
G01X45554Y78405D01*
G01X45505Y78435D01*
G01X45458Y78463D01*
G01X45416Y78488D01*
G01X45378Y78509D01*
G01X45346Y78526D01*
G37*
G36*
G01X40412Y82303D02*
G01X40410Y82303D01*
G01X40407Y82298D01*
G01X40402Y82286D01*
G01X40396Y82268D01*
G01X40387Y82245D01*
G01X40376Y82215D01*
G01X40364Y82180D01*
G01X40349Y82139D01*
G01X40334Y82093D01*
G01X40317Y82043D01*
G01X40299Y81987D01*
G01X40279Y81928D01*
G01X40258Y81864D01*
G01X40236Y81796D01*
G01X40212Y81724D01*
G01X40188Y81649D01*
G01X40162Y81570D01*
G01X40136Y81489D01*
G01X40109Y81404D01*
G01X40081Y81316D01*
G01X40053Y81227D01*
G01X40023Y81135D01*
G01X39994Y81041D01*
G01X39964Y80945D01*
G01X39933Y80848D01*
G01X39914Y80787D01*
G01X39895Y80725D01*
G01X39875Y80663D01*
G01X39855Y80600D01*
G01X39835Y80536D01*
G01X39815Y80471D01*
G01X39794Y80406D01*
G01X39773Y80340D01*
G01X39753Y80272D01*
G01X39731Y80205D01*
G01X39710Y80137D01*
G01X39688Y80069D01*
G01X39667Y80000D01*
G01X39644Y79930D01*
G01X39622Y79859D01*
G01X39600Y79789D01*
G01X39578Y79718D01*
G01X39555Y79646D01*
G01X39533Y79574D01*
G01X39510Y79502D01*
G01X39487Y79429D01*
G01X39463Y79356D01*
G01X39441Y79283D01*
G01X39394Y79136D01*
G01X39324Y78913D01*
G01X39300Y78839D01*
G01X39253Y78690D01*
G01X39229Y78615D01*
G01X39206Y78540D01*
G01X39182Y78466D01*
G01X39159Y78391D01*
G01X39135Y78317D01*
G01X39111Y78242D01*
G01X39088Y78168D01*
G01X39064Y78094D01*
G01X39041Y78020D01*
G01X38971Y77799D01*
G01X38948Y77725D01*
G01X38924Y77653D01*
G01X38879Y77508D01*
G01X38856Y77437D01*
G01X38811Y77295D01*
G01X38767Y77154D01*
G01X38723Y77016D01*
G01X38701Y76948D01*
G01X38680Y76881D01*
G01X38658Y76814D01*
G01X38637Y76747D01*
G01X38616Y76682D01*
G01X38596Y76617D01*
G01X38575Y76553D01*
G01X38555Y76489D01*
G01X38535Y76427D01*
G01X38516Y76365D01*
G01X38496Y76304D01*
G01X38477Y76244D01*
G01X38458Y76185D01*
G01X38439Y76127D01*
G01X38421Y76069D01*
G01X38403Y76013D01*
G01X38386Y75958D01*
G01X38368Y75904D01*
G01X38351Y75850D01*
G01X38335Y75799D01*
G01X38318Y75747D01*
G01X38302Y75697D01*
G01X38272Y75601D01*
G01X38257Y75555D01*
G01X38242Y75510D01*
G01X38229Y75467D01*
G01X38215Y75425D01*
G01X38202Y75383D01*
G01X38189Y75344D01*
G01X38177Y75306D01*
G01X38165Y75269D01*
G01X38142Y75200D01*
G01X38132Y75167D01*
G01X38122Y75136D01*
G01X38112Y75107D01*
G01X38103Y75079D01*
G01X38095Y75053D01*
G01X38079Y75006D01*
G01X38073Y74984D01*
G01X37899Y74455D01*
G01X38472Y74809D01*
G01X38497Y74824D01*
G01X38524Y74841D01*
G01X38554Y74859D01*
G01X38585Y74879D01*
G01X38619Y74900D01*
G01X38655Y74923D01*
G01X38693Y74947D01*
G01X38733Y74972D01*
G01X38776Y74998D01*
G01X38819Y75025D01*
G01X38865Y75054D01*
G01X38912Y75083D01*
G01X38961Y75114D01*
G01X39011Y75146D01*
G01X39063Y75178D01*
G01X39116Y75212D01*
G01X39170Y75246D01*
G01X39226Y75281D01*
G01X39283Y75317D01*
G01X39341Y75353D01*
G01X39400Y75391D01*
G01X39460Y75428D01*
G01X39521Y75467D01*
G01X39583Y75505D01*
G01X39709Y75585D01*
G01X39773Y75625D01*
G01X39837Y75666D01*
G01X39902Y75707D01*
G01X40033Y75789D01*
G01X40363Y75999D01*
G01X40430Y76040D01*
G01X40495Y76083D01*
G01X40627Y76165D01*
G01X40692Y76207D01*
G01X40758Y76249D01*
G01X40891Y76333D01*
G01X40958Y76375D01*
G01X41025Y76418D01*
G01X41092Y76460D01*
G01X41160Y76503D01*
G01X41294Y76587D01*
G01X41361Y76630D01*
G01X41427Y76671D01*
G01X41559Y76755D01*
G01X41625Y76796D01*
G01X41754Y76877D01*
G01X41818Y76917D01*
G01X41942Y76995D01*
G01X42062Y77071D01*
G01X42121Y77107D01*
G01X42179Y77143D01*
G01X42235Y77179D01*
G01X42291Y77213D01*
G01X42344Y77247D01*
G01X42397Y77279D01*
G01X42447Y77311D01*
G01X42496Y77341D01*
G01X42544Y77371D01*
G01X42590Y77399D01*
G01X42633Y77427D01*
G01X42676Y77453D01*
G01X42715Y77477D01*
G01X42753Y77501D01*
G01X42789Y77523D01*
G01X42823Y77544D01*
G01X42854Y77563D01*
G01X42883Y77581D01*
G01X43559Y77994D01*
G01X43116Y78617D01*
G01X43061Y78695D01*
G01X43005Y78773D01*
G01X42839Y79006D01*
G01X42619Y79314D01*
G01X42564Y79390D01*
G01X42510Y79466D01*
G01X42456Y79541D01*
G01X42348Y79692D01*
G01X42295Y79766D01*
G01X42241Y79840D01*
G01X42188Y79913D01*
G01X42136Y79986D01*
G01X42032Y80130D01*
G01X41981Y80201D01*
G01X41930Y80271D01*
G01X41880Y80341D01*
G01X41829Y80410D01*
G01X41731Y80546D01*
G01X41682Y80612D01*
G01X41635Y80678D01*
G01X41587Y80743D01*
G01X41541Y80807D01*
G01X41494Y80870D01*
G01X41449Y80932D01*
G01X41405Y80994D01*
G01X41360Y81054D01*
G01X41317Y81113D01*
G01X41275Y81171D01*
G01X41233Y81228D01*
G01X41192Y81284D01*
G01X41151Y81339D01*
G01X41112Y81392D01*
G01X41073Y81444D01*
G01X41035Y81496D01*
G01X40999Y81546D01*
G01X40963Y81594D01*
G01X40928Y81641D01*
G01X40894Y81687D01*
G01X40860Y81731D01*
G01X40828Y81775D01*
G01X40797Y81816D01*
G01X40767Y81856D01*
G01X40738Y81895D01*
G01X40710Y81932D01*
G01X40683Y81967D01*
G01X40657Y82001D01*
G01X40633Y82033D01*
G01X40610Y82064D01*
G01X40587Y82093D01*
G01X40566Y82120D01*
G01X40546Y82145D01*
G01X40528Y82169D01*
G01X40510Y82191D01*
G01X40495Y82211D01*
G01X40480Y82229D01*
G01X40466Y82245D01*
G01X40455Y82259D01*
G01X40444Y82271D01*
G01X40435Y82282D01*
G01X40427Y82290D01*
G01X40421Y82297D01*
G01X40416Y82301D01*
G01X40412Y82303D01*
G37*
G36*
G01X49698Y82254D02*
G01X49694Y82257D01*
G01X49681Y82252D01*
G01X49662Y82235D01*
G01X49636Y82208D01*
G01X49603Y82171D01*
G01X49565Y82126D01*
G01X49521Y82073D01*
G01X49473Y82012D01*
G01X49420Y81946D01*
G01X49365Y81873D01*
G01X49306Y81796D01*
G01X49246Y81714D01*
G01X49185Y81629D01*
G01X49165Y81602D01*
G01X49144Y81573D01*
G01X49122Y81542D01*
G01X49097Y81508D01*
G01X49072Y81473D01*
G01X49045Y81436D01*
G01X49017Y81397D01*
G01X48987Y81356D01*
G01X48957Y81313D01*
G01X48925Y81269D01*
G01X48892Y81223D01*
G01X48858Y81176D01*
G01X48823Y81127D01*
G01X48787Y81078D01*
G01X48750Y81026D01*
G01X48712Y80974D01*
G01X48674Y80920D01*
G01X48634Y80865D01*
G01X48594Y80809D01*
G01X48553Y80753D01*
G01X48511Y80695D01*
G01X48470Y80637D01*
G01X48427Y80577D01*
G01X48384Y80518D01*
G01X48340Y80457D01*
G01X48297Y80396D01*
G01X48252Y80335D01*
G01X48208Y80273D01*
G01X48118Y80149D01*
G01X48074Y80086D01*
G01X47983Y79961D01*
G01X47938Y79898D01*
G01X47893Y79836D01*
G01X47848Y79773D01*
G01X47759Y79649D01*
G01X47714Y79588D01*
G01X47671Y79527D01*
G01X46609Y78052D01*
G01X46688Y77974D01*
G01X46693Y77969D01*
G01X46701Y77963D01*
G01X46712Y77954D01*
G01X46726Y77944D01*
G01X46743Y77933D01*
G01X46762Y77919D01*
G01X46785Y77904D01*
G01X46810Y77887D01*
G01X46900Y77827D01*
G01X46935Y77804D01*
G01X46972Y77780D01*
G01X47053Y77726D01*
G01X47097Y77698D01*
G01X47143Y77668D01*
G01X47191Y77637D01*
G01X47241Y77604D01*
G01X47293Y77571D01*
G01X47347Y77536D01*
G01X47402Y77501D01*
G01X47459Y77464D01*
G01X47518Y77426D01*
G01X47579Y77388D01*
G01X47641Y77348D01*
G01X47704Y77307D01*
G01X47769Y77266D01*
G01X47835Y77223D01*
G01X47903Y77180D01*
G01X47971Y77136D01*
G01X48041Y77092D01*
G01X48112Y77047D01*
G01X48184Y77000D01*
G01X48257Y76954D01*
G01X48331Y76907D01*
G01X48406Y76860D01*
G01X48481Y76811D01*
G01X48558Y76763D01*
G01X48635Y76714D01*
G01X48790Y76616D01*
G01X48948Y76516D01*
G01X49028Y76466D01*
G01X49107Y76416D01*
G01X49187Y76365D01*
G01X49267Y76315D01*
G01X49427Y76213D01*
G01X49508Y76163D01*
G01X49588Y76112D01*
G01X49668Y76062D01*
G01X49748Y76011D01*
G01X49906Y75912D01*
G01X49985Y75862D01*
G01X50064Y75813D01*
G01X50142Y75764D01*
G01X50219Y75716D01*
G01X50296Y75667D01*
G01X50372Y75620D01*
G01X50447Y75573D01*
G01X50521Y75526D01*
G01X50595Y75480D01*
G01X50739Y75390D01*
G01X50809Y75346D01*
G01X50879Y75303D01*
G01X50947Y75260D01*
G01X51014Y75218D01*
G01X51144Y75138D01*
G01X51206Y75099D01*
G01X51268Y75061D01*
G01X51328Y75024D01*
G01X51386Y74988D01*
G01X51442Y74953D01*
G01X51497Y74919D01*
G01X51550Y74887D01*
G01X51601Y74855D01*
G01X51650Y74825D01*
G01X51697Y74796D01*
G01X51742Y74768D01*
G01X51785Y74742D01*
G01X51826Y74718D01*
G01X51865Y74694D01*
G01X51901Y74672D01*
G01X51934Y74652D01*
G01X51966Y74633D01*
G01X51995Y74616D01*
G01X52021Y74601D01*
G01X52045Y74586D01*
G01X52066Y74574D01*
G01X52085Y74564D01*
G01X52100Y74555D01*
G01X52113Y74548D01*
G01X52123Y74544D01*
G01X52129Y74541D01*
G01X52134Y74539D01*
G01X52199Y74536D01*
G01X52116Y74792D01*
G01X52113Y74802D01*
G01X52110Y74813D01*
G01X52105Y74826D01*
G01X52100Y74841D01*
G01X52095Y74857D01*
G01X52090Y74875D01*
G01X52084Y74894D01*
G01X52077Y74915D01*
G01X52070Y74937D01*
G01X52054Y74987D01*
G01X52046Y75014D01*
G01X52036Y75043D01*
G01X52027Y75072D01*
G01X52007Y75136D01*
G01X51996Y75170D01*
G01X51985Y75205D01*
G01X51973Y75242D01*
G01X51961Y75280D01*
G01X51949Y75319D01*
G01X51935Y75360D01*
G01X51922Y75402D01*
G01X51908Y75445D01*
G01X51895Y75489D01*
G01X51880Y75534D01*
G01X51865Y75581D01*
G01X51850Y75629D01*
G01X51835Y75678D01*
G01X51819Y75728D01*
G01X51802Y75779D01*
G01X51786Y75832D01*
G01X51769Y75885D01*
G01X51751Y75939D01*
G01X51734Y75995D01*
G01X51698Y76109D01*
G01X51679Y76167D01*
G01X51661Y76226D01*
G01X51641Y76287D01*
G01X51622Y76348D01*
G01X51602Y76410D01*
G01X51582Y76473D01*
G01X51562Y76537D01*
G01X51542Y76602D01*
G01X51521Y76667D01*
G01X51500Y76733D01*
G01X51479Y76800D01*
G01X51457Y76868D01*
G01X51436Y76937D01*
G01X51413Y77006D01*
G01X51391Y77076D01*
G01X51369Y77147D01*
G01X51346Y77218D01*
G01X51323Y77290D01*
G01X51254Y77509D01*
G01X51206Y77659D01*
G01X51183Y77735D01*
G01X51158Y77810D01*
G01X51110Y77964D01*
G01X51085Y78041D01*
G01X51061Y78119D01*
G01X51011Y78276D01*
G01X50961Y78434D01*
G01X50936Y78514D01*
G01X50910Y78594D01*
G01X50885Y78674D01*
G01X50859Y78755D01*
G01X50834Y78835D01*
G01X50808Y78917D01*
G01X50756Y79079D01*
G01X50705Y79243D01*
G01X50679Y79325D01*
G01X50652Y79407D01*
G01X50600Y79571D01*
G01X50574Y79654D01*
G01X50522Y79819D01*
G01X50496Y79902D01*
G01X50470Y79984D01*
G01X50443Y80066D01*
G01X50417Y80149D01*
G01X50392Y80231D01*
G01X50365Y80314D01*
G01X50339Y80395D01*
G01X50313Y80478D01*
G01X50287Y80560D01*
G01X50256Y80659D01*
G01X50224Y80757D01*
G01X50193Y80853D01*
G01X50163Y80948D01*
G01X50133Y81040D01*
G01X50103Y81131D01*
G01X50074Y81219D01*
G01X50046Y81305D01*
G01X50018Y81388D01*
G01X49991Y81468D01*
G01X49965Y81546D01*
G01X49939Y81620D01*
G01X49915Y81691D01*
G01X49891Y81758D01*
G01X49868Y81823D01*
G01X49847Y81883D01*
G01X49827Y81940D01*
G01X49807Y81992D01*
G01X49790Y82040D01*
G01X49773Y82084D01*
G01X49758Y82123D01*
G01X49744Y82158D01*
G01X49731Y82188D01*
G01X49721Y82212D01*
G01X49704Y82246D01*
G01X49698Y82254D01*
G37*
G36*
G01X39963Y81648D02*
G01X40115Y82103D01*
G01X39872Y81878D01*
G01X39845Y81851D01*
G01X39827Y81834D01*
G01X39669Y81676D01*
G01X39635Y81641D01*
G01X39599Y81604D01*
G01X39561Y81565D01*
G01X39520Y81524D01*
G01X39478Y81481D01*
G01X39435Y81436D01*
G01X39389Y81389D01*
G01X39343Y81341D01*
G01X39294Y81291D01*
G01X39244Y81239D01*
G01X39193Y81186D01*
G01X39140Y81132D01*
G01X39086Y81076D01*
G01X39031Y81019D01*
G01X38975Y80960D01*
G01X38917Y80901D01*
G01X38859Y80841D01*
G01X38801Y80779D01*
G01X38741Y80717D01*
G01X38680Y80654D01*
G01X38619Y80590D01*
G01X38495Y80460D01*
G01X38432Y80395D01*
G01X38306Y80263D01*
G01X38242Y80196D01*
G01X36853Y78739D01*
G01X37275Y76761D01*
G01X37296Y76660D01*
G01X37318Y76560D01*
G01X37339Y76461D01*
G01X37360Y76363D01*
G01X37380Y76267D01*
G01X37400Y76173D01*
G01X37419Y76080D01*
G01X37439Y75990D01*
G01X37457Y75901D01*
G01X37475Y75815D01*
G01X37493Y75731D01*
G01X37510Y75650D01*
G01X37526Y75571D01*
G01X37543Y75495D01*
G01X37558Y75422D01*
G01X37573Y75351D01*
G01X37586Y75284D01*
G01X37600Y75220D01*
G01X37612Y75159D01*
G01X37624Y75102D01*
G01X37635Y75049D01*
G01X37645Y74999D01*
G01X37654Y74953D01*
G01X37663Y74912D01*
G01X37671Y74874D01*
G01X37677Y74840D01*
G01X37683Y74811D01*
G01X37688Y74787D01*
G01X37692Y74767D01*
G01X37694Y74753D01*
G01X37696Y74742D01*
G01X37696Y74737D01*
G01X37697Y74729D01*
G01X37697Y74722D01*
G01X37698Y74716D01*
G01X37699Y74711D01*
G01X37703Y74707D01*
G01X37706Y74708D01*
G01X37708Y74709D01*
G01X37712Y74713D01*
G01X37716Y74718D01*
G01X37721Y74725D01*
G01X37725Y74734D01*
G01X37731Y74744D01*
G01X37736Y74757D01*
G01X37743Y74771D01*
G01X37750Y74787D01*
G01X37758Y74805D01*
G01X37766Y74826D01*
G01X37774Y74848D01*
G01X37784Y74872D01*
G01X37794Y74899D01*
G01X37804Y74927D01*
G01X37816Y74958D01*
G01X37827Y74991D01*
G01X37840Y75027D01*
G01X37853Y75064D01*
G01X37867Y75105D01*
G01X37882Y75147D01*
G01X37897Y75192D01*
G01X37914Y75240D01*
G01X37930Y75290D01*
G01X37948Y75342D01*
G01X37966Y75398D01*
G01X37986Y75456D01*
G01X38006Y75517D01*
G01X38027Y75580D01*
G01X38048Y75646D01*
G01X38071Y75715D01*
G01X38094Y75787D01*
G01X38119Y75862D01*
G01X38144Y75939D01*
G01X38170Y76020D01*
G01X38197Y76103D01*
G01X38225Y76190D01*
G01X38254Y76280D01*
G01X38284Y76373D01*
G01X38314Y76470D01*
G01X38346Y76569D01*
G01X38379Y76671D01*
G01X38413Y76777D01*
G01X38448Y76887D01*
G01X38484Y76999D01*
G01X38521Y77116D01*
G01X38559Y77235D01*
G01X38598Y77359D01*
G01X38638Y77485D01*
G01X38680Y77615D01*
G01X38722Y77749D01*
G01X38765Y77887D01*
G01X38811Y78028D01*
G01X38839Y78118D01*
G01X38867Y78206D01*
G01X38923Y78384D01*
G01X38951Y78472D01*
G01X38979Y78559D01*
G01X39006Y78646D01*
G01X39034Y78733D01*
G01X39089Y78905D01*
G01X39116Y78990D01*
G01X39142Y79074D01*
G01X39169Y79158D01*
G01X39221Y79324D01*
G01X39273Y79486D01*
G01X39298Y79565D01*
G01X39323Y79645D01*
G01X39348Y79723D01*
G01X39373Y79800D01*
G01X39397Y79876D01*
G01X39421Y79951D01*
G01X39444Y80025D01*
G01X39468Y80098D01*
G01X39490Y80170D01*
G01X39513Y80241D01*
G01X39535Y80311D01*
G01X39557Y80379D01*
G01X39578Y80446D01*
G01X39599Y80512D01*
G01X39620Y80576D01*
G01X39640Y80639D01*
G01X39660Y80701D01*
G01X39679Y80761D01*
G01X39697Y80820D01*
G01X39715Y80877D01*
G01X39751Y80987D01*
G01X39767Y81039D01*
G01X39784Y81090D01*
G01X39799Y81139D01*
G01X39815Y81186D01*
G01X39829Y81232D01*
G01X39843Y81276D01*
G01X39857Y81317D01*
G01X39869Y81358D01*
G01X39882Y81396D01*
G01X39893Y81432D01*
G01X39904Y81466D01*
G01X39915Y81498D01*
G01X39924Y81529D01*
G01X39933Y81557D01*
G01X39942Y81583D01*
G01X39950Y81606D01*
G01X39957Y81628D01*
G01X39963Y81648D01*
G37*
G36*
G01X50074Y82038D02*
G01X50070Y82040D01*
G01X50068Y82038D01*
G01X50069Y82034D01*
G01X50071Y82027D01*
G01X50073Y82016D01*
G01X50077Y82003D01*
G01X50081Y81986D01*
G01X50087Y81967D01*
G01X50093Y81944D01*
G01X50100Y81918D01*
G01X50109Y81890D01*
G01X50118Y81859D01*
G01X50128Y81825D01*
G01X50139Y81789D01*
G01X50151Y81750D01*
G01X50163Y81708D01*
G01X50177Y81664D01*
G01X50191Y81617D01*
G01X50206Y81568D01*
G01X50221Y81517D01*
G01X50238Y81463D01*
G01X50255Y81407D01*
G01X50273Y81349D01*
G01X50292Y81290D01*
G01X50311Y81227D01*
G01X50331Y81163D01*
G01X50351Y81096D01*
G01X50373Y81028D01*
G01X50395Y80959D01*
G01X50417Y80887D01*
G01X50440Y80814D01*
G01X50463Y80738D01*
G01X50487Y80661D01*
G01X50512Y80583D01*
G01X50537Y80503D01*
G01X50562Y80422D01*
G01X50589Y80339D01*
G01X50615Y80255D01*
G01X50642Y80169D01*
G01X50669Y80082D01*
G01X50697Y79995D01*
G01X50725Y79906D01*
G01X50753Y79815D01*
G01X50782Y79724D01*
G01X50812Y79632D01*
G01X50841Y79539D01*
G01X50871Y79445D01*
G01X50931Y79255D01*
G01X50962Y79158D01*
G01X51011Y79004D01*
G01X51036Y78927D01*
G01X51060Y78849D01*
G01X51085Y78772D01*
G01X51158Y78540D01*
G01X51183Y78464D01*
G01X51231Y78310D01*
G01X51256Y78234D01*
G01X51280Y78158D01*
G01X51327Y78008D01*
G01X51375Y77858D01*
G01X51421Y77712D01*
G01X51445Y77639D01*
G01X51468Y77567D01*
G01X51490Y77495D01*
G01X51513Y77425D01*
G01X51535Y77354D01*
G01X51557Y77285D01*
G01X51578Y77216D01*
G01X51600Y77148D01*
G01X51621Y77081D01*
G01X51642Y77015D01*
G01X51663Y76950D01*
G01X51703Y76822D01*
G01X51723Y76760D01*
G01X51742Y76698D01*
G01X51762Y76638D01*
G01X51780Y76579D01*
G01X51798Y76521D01*
G01X51817Y76464D01*
G01X51851Y76354D01*
G01X51868Y76301D01*
G01X51900Y76199D01*
G01X51916Y76150D01*
G01X51931Y76102D01*
G01X51945Y76056D01*
G01X51959Y76012D01*
G01X51973Y75969D01*
G01X51986Y75927D01*
G01X51998Y75887D01*
G01X52011Y75849D01*
G01X52022Y75812D01*
G01X52033Y75777D01*
G01X52044Y75744D01*
G01X52053Y75712D01*
G01X52062Y75683D01*
G01X52071Y75655D01*
G01X52079Y75629D01*
G01X52087Y75605D01*
G01X52094Y75583D01*
G01X52126Y75479D01*
G01X52159Y75379D01*
G01X52191Y75285D01*
G01X52222Y75196D01*
G01X52251Y75115D01*
G01X52279Y75041D01*
G01X52305Y74976D01*
G01X52328Y74921D01*
G01X52348Y74876D01*
G01X52366Y74843D01*
G01X52380Y74823D01*
G01X52390Y74816D01*
G01X52394Y74818D01*
G01X52398Y74826D01*
G01X52403Y74838D01*
G01X52410Y74855D01*
G01X52417Y74877D01*
G01X52426Y74903D01*
G01X52434Y74934D01*
G01X52444Y74969D01*
G01X52455Y75009D01*
G01X52467Y75052D01*
G01X52479Y75099D01*
G01X52505Y75204D01*
G01X52520Y75262D01*
G01X52534Y75324D01*
G01X52550Y75388D01*
G01X52566Y75456D01*
G01X52583Y75527D01*
G01X52600Y75600D01*
G01X52617Y75677D01*
G01X52635Y75756D01*
G01X52654Y75838D01*
G01X52672Y75921D01*
G01X52692Y76008D01*
G01X52711Y76096D01*
G01X52731Y76187D01*
G01X52751Y76279D01*
G01X52771Y76373D01*
G01X52791Y76469D01*
G01X52812Y76566D01*
G01X52833Y76665D01*
G01X52854Y76765D01*
G01X53260Y78714D01*
G01X52903Y79114D01*
G01X52865Y79156D01*
G01X52825Y79200D01*
G01X52784Y79245D01*
G01X52741Y79293D01*
G01X52696Y79341D01*
G01X52650Y79391D01*
G01X52603Y79442D01*
G01X52554Y79495D01*
G01X52454Y79603D01*
G01X52401Y79659D01*
G01X52348Y79716D01*
G01X52294Y79774D01*
G01X52239Y79833D01*
G01X52183Y79891D01*
G01X52127Y79951D01*
G01X52070Y80012D01*
G01X51896Y80195D01*
G01X51778Y80319D01*
G01X51659Y80443D01*
G01X51600Y80506D01*
G01X51541Y80567D01*
G01X51481Y80629D01*
G01X51363Y80751D01*
G01X51247Y80871D01*
G01X51190Y80931D01*
G01X51133Y80990D01*
G01X51077Y81048D01*
G01X51021Y81105D01*
G01X50967Y81160D01*
G01X50913Y81216D01*
G01X50860Y81270D01*
G01X50808Y81323D01*
G01X50757Y81374D01*
G01X50708Y81425D01*
G01X50659Y81473D01*
G01X50613Y81521D01*
G01X50567Y81567D01*
G01X50439Y81694D01*
G01X50328Y81805D01*
G01X50294Y81838D01*
G01X50263Y81869D01*
G01X50233Y81897D01*
G01X50206Y81923D01*
G01X50181Y81946D01*
G01X50158Y81968D01*
G01X50138Y81986D01*
G01X50120Y82002D01*
G01X50104Y82015D01*
G01X50091Y82026D01*
G01X50082Y82033D01*
G01X50074Y82038D01*
G37*
G36*
G01X44316Y83939D02*
G01X44254Y84087D01*
G01X40585Y82583D01*
G01X40605Y82515D01*
G01X40608Y82509D01*
G01X40613Y82500D01*
G01X40621Y82488D01*
G01X40630Y82472D01*
G01X40643Y82453D01*
G01X40657Y82431D01*
G01X40674Y82406D01*
G01X40692Y82378D01*
G01X40713Y82348D01*
G01X40736Y82314D01*
G01X40761Y82278D01*
G01X40788Y82239D01*
G01X40816Y82198D01*
G01X40846Y82155D01*
G01X40879Y82108D01*
G01X40912Y82060D01*
G01X40947Y82010D01*
G01X40984Y81958D01*
G01X41023Y81903D01*
G01X41062Y81847D01*
G01X41103Y81789D01*
G01X41145Y81729D01*
G01X41189Y81668D01*
G01X41234Y81605D01*
G01X41280Y81540D01*
G01X41326Y81474D01*
G01X41375Y81407D01*
G01X41423Y81339D01*
G01X41523Y81199D01*
G01X41574Y81127D01*
G01X41626Y81055D01*
G01X41678Y80982D01*
G01X41732Y80907D01*
G01X41785Y80833D01*
G01X41839Y80758D01*
G01X41893Y80682D01*
G01X42003Y80530D01*
G01X42058Y80453D01*
G01X42113Y80377D01*
G01X42168Y80300D01*
G01X42223Y80224D01*
G01X42279Y80148D01*
G01X42389Y79995D01*
G01X42443Y79919D01*
G01X42498Y79845D01*
G01X42552Y79770D01*
G01X42605Y79696D01*
G01X42658Y79623D01*
G01X42711Y79551D01*
G01X42763Y79479D01*
G01X42865Y79339D01*
G01X42914Y79271D01*
G01X42963Y79204D01*
G01X43011Y79138D01*
G01X43059Y79074D01*
G01X43104Y79011D01*
G01X43150Y78950D01*
G01X43193Y78890D01*
G01X43235Y78832D01*
G01X43277Y78776D01*
G01X43317Y78722D01*
G01X43355Y78670D01*
G01X43392Y78619D01*
G01X43428Y78572D01*
G01X43462Y78526D01*
G01X43494Y78482D01*
G01X43554Y78403D01*
G01X43581Y78367D01*
G01X43606Y78334D01*
G01X43630Y78303D01*
G01X43650Y78276D01*
G01X43670Y78251D01*
G01X43687Y78229D01*
G01X43702Y78211D01*
G01X43714Y78195D01*
G01X43725Y78183D01*
G01X43733Y78174D01*
G01X43738Y78169D01*
G01X43741Y78167D01*
G01X43752Y78170D01*
G01X43773Y78179D01*
G01X43802Y78193D01*
G01X43840Y78213D01*
G01X43885Y78236D01*
G01X43937Y78265D01*
G01X43995Y78298D01*
G01X44057Y78333D01*
G01X44125Y78373D01*
G01X44196Y78415D01*
G01X44270Y78459D01*
G01X44422Y78551D01*
G01X44495Y78596D01*
G01X44565Y78639D01*
G01X44631Y78679D01*
G01X44693Y78716D01*
G01X44749Y78751D01*
G01X44798Y78782D01*
G01X44842Y78808D01*
G01X44877Y78830D01*
G01X44904Y78847D01*
G01X44922Y78858D01*
G01X44931Y78864D01*
G01X44932Y78867D01*
G01X44933Y78875D01*
G01X44933Y78903D01*
G01X44932Y78924D01*
G01X44931Y78949D01*
G01X44929Y78977D01*
G01X44926Y79009D01*
G01X44923Y79045D01*
G01X44920Y79084D01*
G01X44916Y79127D01*
G01X44911Y79173D01*
G01X44907Y79222D01*
G01X44902Y79275D01*
G01X44896Y79330D01*
G01X44890Y79388D01*
G01X44884Y79450D01*
G01X44877Y79513D01*
G01X44870Y79579D01*
G01X44863Y79648D01*
G01X44855Y79719D01*
G01X44847Y79792D01*
G01X44838Y79867D01*
G01X44830Y79944D01*
G01X44821Y80023D01*
G01X44812Y80104D01*
G01X44803Y80186D01*
G01X44793Y80270D01*
G01X44783Y80355D01*
G01X44773Y80442D01*
G01X44763Y80530D01*
G01X44752Y80618D01*
G01X44742Y80708D01*
G01X44720Y80890D01*
G01X44709Y80983D01*
G01X44698Y81075D01*
G01X44676Y81261D01*
G01X44665Y81355D01*
G01X44653Y81448D01*
G01X44642Y81541D01*
G01X44630Y81634D01*
G01X44619Y81727D01*
G01X44607Y81820D01*
G01X44596Y81912D01*
G01X44585Y82003D01*
G01X44573Y82094D01*
G01X44562Y82184D01*
G01X44551Y82273D01*
G01X44540Y82361D01*
G01X44518Y82533D01*
G01X44507Y82617D01*
G01X44497Y82699D01*
G01X44487Y82780D01*
G01X44476Y82859D01*
G01X44466Y82936D01*
G01X44456Y83012D01*
G01X44446Y83085D01*
G01X44437Y83156D01*
G01X44428Y83224D01*
G01X44419Y83291D01*
G01X44410Y83355D01*
G01X44401Y83415D01*
G01X44393Y83474D01*
G01X44385Y83529D01*
G01X44378Y83582D01*
G01X44370Y83631D01*
G01X44364Y83678D01*
G01X44357Y83721D01*
G01X44351Y83760D01*
G01X44345Y83796D01*
G01X44340Y83828D01*
G01X44335Y83857D01*
G01X44326Y83902D01*
G01X44323Y83919D01*
G01X44319Y83931D01*
G01X44316Y83939D01*
G37*
G36*
G01X46106Y83989D02*
G01X45817Y84108D01*
G01X45523Y81672D01*
G01X45511Y81571D01*
G01X45499Y81471D01*
G01X45475Y81275D01*
G01X45463Y81178D01*
G01X45452Y81082D01*
G01X45441Y80987D01*
G01X45419Y80801D01*
G01X45409Y80710D01*
G01X45398Y80621D01*
G01X45388Y80533D01*
G01X45378Y80447D01*
G01X45368Y80362D01*
G01X45359Y80279D01*
G01X45349Y80198D01*
G01X45341Y80119D01*
G01X45332Y80042D01*
G01X45323Y79968D01*
G01X45315Y79895D01*
G01X45308Y79825D01*
G01X45300Y79757D01*
G01X45293Y79692D01*
G01X45286Y79629D01*
G01X45280Y79569D01*
G01X45273Y79512D01*
G01X45267Y79458D01*
G01X45262Y79406D01*
G01X45257Y79358D01*
G01X45253Y79312D01*
G01X45248Y79270D01*
G01X45245Y79231D01*
G01X45241Y79196D01*
G01X45238Y79164D01*
G01X45235Y79135D01*
G01X45233Y79110D01*
G01X45232Y79089D01*
G01X45231Y79071D01*
G01X45230Y79057D01*
G01X45230Y79048D01*
G01X45231Y78861D01*
G01X45766Y78519D01*
G01X45839Y78473D01*
G01X45910Y78428D01*
G01X45979Y78385D01*
G01X46044Y78345D01*
G01X46105Y78309D01*
G01X46161Y78275D01*
G01X46212Y78246D01*
G01X46257Y78220D01*
G01X46295Y78199D01*
G01X46325Y78184D01*
G01X46347Y78174D01*
G01X46360Y78170D01*
G01X46364Y78171D01*
G01X46369Y78175D01*
G01X46376Y78183D01*
G01X46385Y78193D01*
G01X46397Y78205D01*
G01X46410Y78221D01*
G01X46426Y78238D01*
G01X46443Y78259D01*
G01X46462Y78282D01*
G01X46483Y78308D01*
G01X46505Y78336D01*
G01X46529Y78367D01*
G01X46555Y78399D01*
G01X46583Y78435D01*
G01X46612Y78472D01*
G01X46642Y78512D01*
G01X46674Y78553D01*
G01X46708Y78598D01*
G01X46743Y78643D01*
G01X46779Y78691D01*
G01X46817Y78741D01*
G01X46856Y78793D01*
G01X46896Y78846D01*
G01X46938Y78901D01*
G01X46980Y78958D01*
G01X47024Y79017D01*
G01X47069Y79077D01*
G01X47115Y79139D01*
G01X47162Y79202D01*
G01X47210Y79267D01*
G01X47259Y79333D01*
G01X47309Y79401D01*
G01X47360Y79470D01*
G01X47412Y79539D01*
G01X47464Y79611D01*
G01X47517Y79683D01*
G01X47571Y79757D01*
G01X47681Y79907D01*
G01X47737Y79983D01*
G01X47793Y80061D01*
G01X47850Y80139D01*
G01X47907Y80218D01*
G01X47965Y80297D01*
G01X48022Y80377D01*
G01X48080Y80456D01*
G01X48136Y80535D01*
G01X48192Y80612D01*
G01X48248Y80690D01*
G01X48303Y80765D01*
G01X48357Y80841D01*
G01X48410Y80915D01*
G01X48514Y81061D01*
G01X48565Y81132D01*
G01X48615Y81202D01*
G01X48664Y81271D01*
G01X48712Y81338D01*
G01X48759Y81404D01*
G01X48805Y81469D01*
G01X48850Y81533D01*
G01X48893Y81595D01*
G01X48936Y81655D01*
G01X48977Y81714D01*
G01X49017Y81772D01*
G01X49056Y81827D01*
G01X49094Y81881D01*
G01X49130Y81933D01*
G01X49165Y81983D01*
G01X49198Y82031D01*
G01X49230Y82077D01*
G01X49260Y82121D01*
G01X49289Y82163D01*
G01X49317Y82203D01*
G01X49342Y82241D01*
G01X49388Y82310D01*
G01X49409Y82341D01*
G01X49427Y82370D01*
G01X49445Y82395D01*
G01X49459Y82419D01*
G01X49473Y82440D01*
G01X49484Y82458D01*
G01X49493Y82474D01*
G01X49501Y82487D01*
G01X49506Y82497D01*
G01X49509Y82504D01*
G01X49510Y82509D01*
G01X49510Y82586D01*
G01X47952Y83228D01*
G01X47712Y83327D01*
G01X47633Y83359D01*
G01X47477Y83423D01*
G01X47400Y83455D01*
G01X47324Y83486D01*
G01X47250Y83517D01*
G01X47176Y83547D01*
G01X47104Y83577D01*
G01X47033Y83606D01*
G01X46964Y83634D01*
G01X46897Y83662D01*
G01X46830Y83689D01*
G01X46767Y83716D01*
G01X46705Y83741D01*
G01X46646Y83765D01*
G01X46588Y83789D01*
G01X46533Y83812D01*
G01X46481Y83834D01*
G01X46432Y83854D01*
G01X46384Y83873D01*
G01X46340Y83891D01*
G01X46300Y83908D01*
G01X46262Y83924D01*
G01X46226Y83939D01*
G01X46195Y83951D01*
G01X46168Y83963D01*
G01X46143Y83973D01*
G01X46122Y83982D01*
G01X46106Y83989D01*
G37*

%LPD*%
M00*
M02*
