G04 Layer: BoardOutline*
G04 EasyEDA v6.3.53, 2020-06-28T18:38:07+02:00*
G04 af82a4ba73104de48942a1140a1abb13,10*
G04 Gerber Generator version 0.2*
G04 Scale: 100 percent, Rotated: No, Reflected: No *
G04 Dimensions in millimeters *
G04 leading zeros omitted , absolute positions ,3 integer and 3 decimal *
%FSLAX33Y33*%
%MOMM*%
G90*
G71D02*

%ADD10C,0.254000*%
G54D10*
G01X3999Y85000D02*
G01X86000Y85000D01*
G01X89999Y80999D02*
G01X89999Y3999D01*
G01X86000Y0D02*
G01X3999Y0D01*
G01X8Y3999D02*
G01X8Y80999D01*
G75*
G01X86000Y85000D02*
G02X90000Y81000I0J-4000D01*
G01*
G75*
G01X90000Y4000D02*
G02X86000Y0I-4000J0D01*
G01*
G75*
G01X4000Y0D02*
G02X0Y4000I0J4000D01*
G01*
G75*
G01X0Y81000D02*
G02X4000Y85000I4000J0D01*
G01*
G01X13446Y72756D02*
G01X13446Y6756D01*
G75*
G01X13446Y6756D02*
G02X11446Y6756I-1000J0D01*
G01*
G01X11446Y6756D02*
G01X11446Y72756D01*
G75*
G01X11446Y72756D02*
G02X13446Y72756I1000J0D01*
G01*
G01X13446Y72756D02*
G01X13446Y72756D01*
G01X28939Y72756D02*
G01X28939Y6756D01*
G75*
G01X28940Y6756D02*
G02X26940Y6756I-1000J0D01*
G01*
G01X26940Y6756D02*
G01X26940Y72756D01*
G75*
G01X26940Y72756D02*
G02X28940Y72756I1000J0D01*
G01*
G01X28939Y72756D02*
G01X28939Y72756D01*
G01X63102Y72756D02*
G01X63102Y6756D01*
G75*
G01X63103Y6756D02*
G02X61103Y6756I-1000J0D01*
G01*
G01X61103Y6756D02*
G01X61103Y72756D01*
G75*
G01X61103Y72756D02*
G02X63103Y72756I1000J0D01*
G01*
G01X63102Y72756D02*
G01X63102Y72756D01*
G01X79104Y72756D02*
G01X79104Y6756D01*
G75*
G01X79105Y6756D02*
G02X77105Y6756I-1000J0D01*
G01*
G01X77104Y6756D02*
G01X77104Y72756D01*
G75*
G01X77105Y72756D02*
G02X79105Y72756I1000J0D01*
G01*
G01X79104Y72756D02*
G01X79104Y72756D01*

%LPD*%
M00*
M02*
